
<svg width="5998px" height="4000px" viewBox="0 0 5998 4000" version="1.1" xmlns="http://www.w3.org/2000/svg" xmlns:xlink="http://www.w3.org/1999/xlink">
    <!-- Generator: Sketch 49.3 (51167) - http://www.bohemiancoding.com/sketch -->
    <desc>Created with Sketch.</desc>
    <defs>
        <linearGradient x1="71.5400514%" y1="85.1738977%" x2="27.7629556%" y2="18.4382812%" id="linearGradient-1">
            <stop stop-color="#FF7777" offset="0%"></stop>
            <stop stop-color="#FF7628" offset="100%"></stop>
        </linearGradient>
        <rect id="path-2" x="0" y="0" width="5998" height="4000"></rect>
        <path d="M0.7835839,439.339202 C5.8544869,444.409366 27.4013921,453.28123 35.0062691,445.675615 C42.611146,438.072215 100.91471,104.723138 100.91471,104.723138 C100.91471,104.723138 121.194628,500.177479 126.265531,503.979918 C131.334218,507.782356 150.549572,509.050821 154.883923,503.979918 C159.218274,498.911231 193.44096,10.929902 193.44096,10.929902 L29.9361048,0.790312 C29.9361048,0.790312 -4.2851028,434.269777 0.7835839,439.339202 Z" id="path-4"></path>
        <polygon id="path-6" points="0.530435366 3927.27918 2619.46271 3927.27918 2619.46271 0.728425169 0.530435366 0.728425169"></polygon>
        <polygon id="path-8" points="0.530435366 3927.27918 2619.46271 3927.27918 2619.46271 0.728425169 0.530435366 0.728425169"></polygon>
        <polygon id="path-10" points="0.530435366 3927.27918 2619.46271 3927.27918 2619.46271 0.728425169 0.530435366 0.728425169"></polygon>
        <polygon id="path-12" points="0.530435366 3927.27918 2619.46271 3927.27918 2619.46271 0.728425169 0.530435366 0.728425169"></polygon>
        <polygon id="path-14" points="0.530435366 3927.27918 2619.46271 3927.27918 2619.46271 0.728425169 0.530435366 0.728425169"></polygon>
        <polygon id="path-16" points="0.530435366 3927.27918 2619.46271 3927.27918 2619.46271 0.728425169 0.530435366 0.728425169"></polygon>
        <polygon id="path-18" points="0.530435366 3927.27918 2619.46271 3927.27918 2619.46271 0.728425169 0.530435366 0.728425169"></polygon>
        <polygon id="path-20" points="0.530435366 3927.27918 2619.46271 3927.27918 2619.46271 0.728425169 0.530435366 0.728425169"></polygon>
        <polygon id="path-22" points="0 0.29022614 735.246225 0.29022614 735.246225 405.426212 0 405.426212"></polygon>
        <polygon id="path-24" points="0 3040.95863 2812.25575 3040.95863 2812.25575 0.28991494 0 0.28991494"></polygon>
        <polygon id="path-26" points="0 3040.95863 2812.25575 3040.95863 2812.25575 0.28991494 0 0.28991494"></polygon>
        <polygon id="path-28" points="0 3040.95863 2812.25575 3040.95863 2812.25575 0.28991494 0 0.28991494"></polygon>
        <polygon id="path-30" points="0 3040.95863 2812.25575 3040.95863 2812.25575 0.28991494 0 0.28991494"></polygon>
        <polygon id="path-32" points="0 3040.95863 2812.25575 3040.95863 2812.25575 0.28991494 0 0.28991494"></polygon>
        <polygon id="path-34" points="0 3040.95863 2812.25575 3040.95863 2812.25575 0.28991494 0 0.28991494"></polygon>
        <path d="M0.7835839,439.339202 C5.8544869,444.409366 27.4013921,453.28123 35.0062691,445.675615 C42.611146,438.072215 100.91471,104.723138 100.91471,104.723138 C100.91471,104.723138 121.194628,500.177479 126.265531,503.979918 C131.334218,507.782356 150.549572,509.050821 154.883923,503.979918 C159.218274,498.911231 193.44096,10.929902 193.44096,10.929902 L29.9361048,0.790312 C29.9361048,0.790312 -4.2851028,434.269777 0.7835839,439.339202 Z" id="path-36"></path>
        <polygon id="path-38" points="0 0.29022614 735.246225 0.29022614 735.246225 405.426212 0 405.426212"></polygon>
        <polygon id="path-40" points="0 0.290226137 735.246225 0.290226137 735.246225 405.426212 0 405.426212"></polygon>
    </defs>
    <g id="Page-1" stroke="none" stroke-width="1" fill="none" fill-rule="evenodd">
        <g id="banner">
            <g id="Group-9">
                <mask id="mask-3" fill="white">
                    <use xlink:href="#path-2"></use>
                </mask>
                <use id="Mask" fill="url(#linearGradient-1)" fill-rule="nonzero" xlink:href="#path-2"></use>
                <g mask="url(#mask-3)">
                    <g transform="translate(-439.000000, -245.000000)">
                        <g id="Page-1-Copy" opacity="0.302026721" stroke-width="1" fill="none" fill-rule="evenodd" transform="translate(1042.206089, 0.597819)">
                            <g id="Group-6" transform="translate(4614.184015, 1346.412941)" fill-rule="nonzero">
                                <polygon id="Fill-1" fill="#FFB39F" points="0.553337172 1465.08317 323.752482 1465.08317 323.752482 178.755241 0.553337172 178.755241"></polygon>
                                <polygon id="Fill-2" fill="#FF7D5A" points="324.198698 1448.17277 646.951626 1448.17277 646.951626 178.871966 324.198698 178.871966"></polygon>
                                <polygon id="Fill-3" fill="#FF9471" points="646.951848 178.755463 323.752703 356.844335 0.553558802 178.755463 323.752703 0.665851526"></polygon>
                            </g>
                            <g id="Group-5" transform="translate(3788.963181, 2292.563970)" fill-rule="nonzero">
                                <polygon id="Fill-4" fill="#FFB39F" points="0.638295483 1972.51404 461.638343 1972.51404 461.638343 254.304604 0.638295483 254.304604"></polygon>
                                <polygon id="Fill-5" fill="#FF7D5A" points="462.274422 882.39844 922.639129 882.39844 922.639129 254.470826 462.274422 254.470826"></polygon>
                                <polygon id="Fill-6" fill="#FF9471" points="922.639055 254.303865 461.639008 508.324781 0.638221606 254.303865 461.638269 0.282948113"></polygon>
                            </g>
                            <g id="Group-4" transform="translate(3185.163829, 2889.550353)" fill-rule="nonzero">
                                <polygon id="Fill-7" fill="#FFB39F" points="0.429962929 1375.58956 461.43001 1375.58956 461.43001 254.493728 0.429962929 254.493728"></polygon>
                                <polygon id="Fill-8" fill="#FF7D5A" points="462.066089 1375.58956 922.431535 1375.58956 922.431535 254.661428 462.066089 254.661428"></polygon>
                                <polygon id="Fill-9" fill="#FF9471" points="922.431018 254.493802 461.430971 508.514719 0.43018456 254.493802 461.430232 0.472885346"></polygon>
                            </g>
                            <g id="Group-2" transform="translate(5121.750184, 1957.025261)" fill-rule="nonzero">
                                <polygon id="Fill-13" fill="#FFB39F" points="0.511227401 2307.91468 415.718006 2307.91468 415.718006 229.327599 0.511227401 229.327599"></polygon>
                                <polygon id="Fill-14" fill="#FF9471" points="0.51100577 229.327156 415.717785 458.115454 415.717785 0.540334857"></polygon>
                            </g>
                            <g id="Group" transform="translate(3816.215055, 3252.340936)" fill-rule="nonzero">
                                <polygon id="Fill-15" fill="#FFB39F" points="0.0398934677 833.333907 461.039941 833.333907 461.039941 254.682114 0.0398934677 254.682114"></polygon>
                                <polygon id="Fill-16" fill="#FF7D5A" points="461.67602 833.333907 922.040727 833.333907 922.040727 254.849814 461.67602 254.849814"></polygon>
                                <polygon id="Fill-17" fill="#FF9471" points="922.040653 254.682262 461.039867 508.703178 0.0398195909 254.682262 461.039867 0.661345042"></polygon>
                                <path d="M652.392135,238.965639 C652.392135,299.633261 583.160716,348.81378 497.759144,348.81378 C412.358311,348.81378 343.126892,299.633261 343.126892,238.965639 C343.126892,178.298018 412.358311,129.117498 497.759144,129.117498 C583.160716,129.117498 652.392135,178.298018 652.392135,238.965639" id="Fill-77" fill="#FF7D5A"></path>
                                <path d="M652.392135,221.235209 C652.392135,281.902831 583.160716,331.08335 497.759144,331.08335 C412.358311,331.08335 343.126892,281.902831 343.126892,221.235209 C343.126892,160.567587 412.358311,111.387068 497.759144,111.387068 C583.160716,111.387068 652.392135,160.567587 652.392135,221.235209" id="Fill-80" fill="#FF7D5A"></path>
                            </g>
                            <g id="phone" transform="translate(4272.683959, 1529.511475)" fill-rule="nonzero">
                                <path d="M849.77467,1982.56941 L125.677204,1567.89233 C101.001617,1556.34391 80.9972588,1526.97788 80.9972588,1502.30156 L1.48145131,55.3595741 C1.48145131,31.7869673 54.5412409,21.5735008 102.507226,3.34661868 C111.345106,-0.0118202867 134.246912,-0.750588207 146.785281,4.81898314 L926.229762,376.533017 C950.906088,388.082176 970.909707,417.448201 970.909707,442.123788 L970.909707,1918.80192 C887.287828,1978.39389 874.450996,1994.11857 849.77467,1982.56941" id="Fill-70" fill="#FFB0A6"></path>
                                <path d="M845.806157,1980.88591 L45.2535983,1606.20793 C20.578011,1594.65951 0.57365329,1565.29275 0.57365329,1540.61716 L0.57365329,63.9397725 C0.57365329,39.2634464 20.578011,28.6222333 45.2535983,40.1706534 L845.806157,414.848624 C870.481744,426.397783 890.486102,455.763808 890.486102,480.440134 L890.486102,1957.11753 C890.486102,1981.79311 870.481744,1992.43506 845.806157,1980.88591" id="Fill-71" fill="#FFCCC2"></path>
                                <polygon id="Fill-72" fill="#FFFFFF" points="803.25571 1733.15353 87.8040448 1398.30475 87.8040448 191.692102 803.25571 526.540878"></polygon>
                                <path d="M524.09201,346.461247 L325.266661,253.40604 C320.330952,251.096652 316.330524,245.222708 316.330524,240.287738 C316.330524,235.352768 320.330952,233.224378 325.266661,235.534505 L524.09201,328.589713 C529.026979,330.899101 533.028146,336.772306 533.028146,341.707276 C533.028146,346.642984 529.026979,348.770636 524.09201,346.461247" id="Fill-73" fill="#FFB0A6"></path>
                                <path d="M569.516485,358.785078 C569.516485,363.720048 565.516057,365.848438 560.580348,363.53905 C555.645378,361.228923 551.64495,355.355718 551.64495,350.420748 C551.64495,345.485778 555.645378,343.357388 560.580348,345.666776 C565.516057,347.976904 569.516485,353.850109 569.516485,358.785078" id="Fill-74" fill="#FFB0A6"></path>
                                <path d="M662.700459,1437.48132 L243.759209,1241.40714 C212.503415,1226.77806 187.165153,1189.5811 187.165153,1158.32456 L187.165153,1156.51089 C187.165153,1125.25436 212.503415,1111.77554 243.759209,1126.40388 L662.700459,1322.47806 C693.956991,1337.10714 719.294515,1374.3041 719.294515,1405.56064 L719.294515,1407.37431 C719.294515,1438.63084 693.956991,1452.10966 662.700459,1437.48132" id="Fill-75" fill="#FBBB1E"></path>
                                <path d="M650.278446,1445.07135 L239.731077,1252.9252 C208.474545,1238.29686 183.136282,1201.09989 183.136282,1169.84336 C183.136282,1138.58683 208.474545,1125.10801 239.731077,1139.73635 L650.278446,1331.8825 C681.534978,1346.51084 706.872501,1383.70781 706.872501,1414.96434 C706.872501,1446.22087 681.534978,1459.70043 650.278446,1445.07135" id="Fill-76" fill="#F9D641"></path>
                                <path d="M531.590061,1713.02425 C531.590061,1756.6943 496.189041,1775.52697 452.518992,1755.08821 C408.848942,1734.64946 373.447184,1682.67935 373.447184,1639.0093 C373.447184,1595.33999 408.848942,1576.50732 452.518992,1596.94534 C496.189041,1617.38409 531.590061,1669.3542 531.590061,1713.02425" id="Fill-78" fill="#FF8E85"></path>
                                <path d="M536.057981,1724.05132 C536.057981,1767.72137 500.656961,1786.55404 456.986912,1766.11529 C413.316863,1745.67653 377.915104,1693.70643 377.915104,1650.03638 C377.915104,1606.36707 413.316863,1587.53439 456.986912,1607.97241 C500.656961,1628.41116 536.057981,1680.38127 536.057981,1724.05132" id="Fill-79" fill="#FFB3A9"></path>
                                <polygon id="Fill-84" fill="#FAC9AF" points="19.5862151 1198.0363 65.8493398 1198.0363 65.8493398 1144.16829 19.5862151 1144.16829"></polygon>
                            </g>
                            <g id="people" transform="translate(4185.818608, 2537.830843)">
                                <path d="M155.189209,155.395916 L128.467235,155.395916 C105.570601,155.395916 87.0097954,136.835111 87.0097954,113.938477 L87.0097954,61.2332962 C87.0097954,38.336662 105.570601,19.7758568 128.467235,19.7758568 L155.189209,19.7758568 C178.085843,19.7758568 196.646649,38.336662 196.646649,61.2332962 L196.646649,113.938477 C196.646649,136.835111 178.085843,155.395916 155.189209,155.395916" id="Fill-83" fill="#FAC9AF" fill-rule="nonzero"></path>
                                <path d="M150.890245,146.029152 C151.113353,147.579826 149.948316,148.973142 148.384344,149.062533 C135.314801,149.806472 86.1978156,153.114675 69.5814475,145.890264 C50.1474186,137.440236 43.7038849,125.18777 43.7038849,97.302975 C43.7038849,69.4189186 47.0985234,1.73595686 112.992928,0.1298754 C180.986911,-1.52791981 199.510039,14.2580731 200.432022,67.3902619 C200.449752,68.4393123 199.077121,68.8648427 198.507531,67.9842313 C196.156033,64.3457993 192.315178,60.2027888 189.675561,60.7310079 C185.450547,61.5761584 183.655341,69.2068922 179.219039,71.1084808 C174.782738,73.0100695 154.50282,80.6149464 152.60197,98.6763445 C151.00697,113.823303 149.710432,137.80962 150.890245,146.029152" id="Fill-85" fill="#000000" fill-rule="nonzero"></path>
                                <path d="M381.401054,235.823142 C379.500205,229.802922 365.75986,215.84538 361.630886,215.812874 C356.138147,215.769287 355.171838,219.434314 351.298478,220.296457 C350.369108,220.503312 349.050407,220.154613 347.605377,219.723173 C352.128114,210.389579 363.150532,199.78161 367.832104,195.852842 C369.441141,194.503852 369.651689,192.105073 368.302699,190.496036 C366.950754,188.887 364.551974,188.678667 362.945154,190.025441 C362.105914,190.727271 344.202612,205.899347 339.292022,220.0667 C339.040841,220.397668 338.808868,220.770746 338.623437,221.247251 C336.405656,226.950539 334.820998,271.945938 338.623437,276.065308 C342.425875,280.184678 360.488012,274.48139 360.488012,274.48139 C360.488012,274.48139 383.302643,241.843362 381.401054,235.823142" id="Fill-86" fill="#FFEEC2" fill-rule="nonzero"></path>
                                <path d="M56.9361787,440.79046 C56.9361787,440.79046 22.7142323,874.269186 27.7843966,879.338611 C32.853822,884.408775 54.401466,893.281378 62.0063429,885.676501 C69.6112199,878.071624 127.914784,544.724025 127.914784,544.724025 C127.914784,544.724025 148.194702,940.177627 153.264867,943.980804 C158.334292,947.783243 177.549646,949.05023 181.884736,943.980804 C186.219087,938.91064 220.441033,450.930049 220.441033,450.930049 L56.9361787,440.79046 Z" id="Fill-87" fill="#4F5B69" fill-rule="nonzero"></path>
                                <g id="Fill-89-Clipped" transform="translate(27.000000, 440.000000)">
                                    <mask id="mask-5" fill="white">
                                        <use xlink:href="#path-4"></use>
                                    </mask>
                                    <g id="path-2"></g>
                                    <polygon id="Fill-89" fill="#2E2C30" fill-rule="nonzero" mask="url(#mask-5)" points="-2.3980679 -33.431413 101.336768 105.199126 78.720866 429.748 36.8940427 447.912087 -6.2005064 460.886329"></polygon>
                                </g>
                                <path d="M43.7040326,447.550334 C43.7040326,447.550334 63.1388003,396.005757 59.758937,392.625894 C56.3790738,389.246031 12.4393742,377.41614 2.93364741,337.490906 C-6.57281818,297.564932 12.4393742,263.976849 28.282991,236.725916 C44.1266079,209.474984 61.2372116,167.648161 77.7146913,164.479585 C94.192171,161.31101 104.648692,162.577997 105.916418,165.747311 C107.184144,168.915887 112.253569,182.540983 126.82946,181.907859 C141.40609,181.273996 144.891597,176.203832 154.397324,177.154626 C163.903789,178.104682 194.11201,190.674079 204.251599,194.899093 C214.391189,199.124107 242.487272,214.997274 249.035711,240.528355 C253.444678,257.716529 231.363643,322.963034 261.710752,332.632029 C283.979433,339.727156 325.08448,299.677808 336.914371,267.567999 C336.914371,267.567999 363.53144,259.117972 363.109604,278.55274 C362.687029,297.987507 338.604672,364.319263 311.142452,384.599181 C283.680232,404.87836 269.315629,418.821127 251.571162,413.328388 C233.825957,407.835648 213.546777,378.261291 213.546777,373.191127 C213.546777,373.191127 235.516258,481.349705 228.756531,484.729568 C221.996066,488.109432 118.06324,521.064391 43.7040326,447.550334" id="Fill-92" fill="#FFAB24" fill-rule="nonzero"></path>
                                <path d="M27.2716178,926.552604 C27.2716178,926.552604 31.4515667,940.811564 42.2250192,940.811564 C52.9984718,940.811564 97.6776781,920.849316 107.500336,915.145289 C117.323733,909.441261 132.216556,898.667809 127.463323,889.479013 C127.463323,889.479013 123.027022,883.141123 91.6567195,892.330658 C91.6567195,892.330658 58.1033581,901.482515 49.8298962,907.22348 C40.535457,913.673663 26.1708536,899.829891 27.2716178,926.552604" id="Fill-94" fill="#41464E" fill-rule="nonzero"></path>
                                <path d="M143.940729,995.630286 C143.940729,995.630286 142.989935,1010.52311 158.51662,1009.57231 C174.043305,1008.62226 217.137854,986.124559 221.574156,982.955245 C226.010457,979.786669 253.894513,963.309189 246.606568,951.585681 C239.318622,939.861434 189.253059,960.774476 176.894949,966.795435 C164.537578,972.815655 163.269853,966.161572 155.348044,968.696285 C147.426236,971.230998 141.406016,980.737463 143.940729,995.630286" id="Fill-96" fill="#41464E" fill-rule="nonzero"></path>
                                <polygon id="Fill-81" fill="#EAAA9A" fill-rule="nonzero" points="38.3885974 912.610354 57.3505536 912.610354 57.3505536 877.120682 38.3885974 877.120682"></polygon>
                                <polygon id="Fill-82" fill="#CF9B91" fill-rule="nonzero" points="162.36272 971.09861 179.083254 971.09861 179.083254 935.608938 162.36272 935.608938"></polygon>
                            </g>
                            <g id="Group-108" transform="translate(2921.161292, 0.000000)">
                                <g id="Fill-98-Clipped">
                                    <mask id="mask-7" fill="white">
                                        <use xlink:href="#path-6"></use>
                                    </mask>
                                    <g id="path-4"></g>
                                    <polygon id="Fill-98" fill="#FFB39F" fill-rule="nonzero" mask="url(#mask-7)" points="2373.88296 4001.22689 2558.08957 4001.22689 2558.08957 2880.81073 2373.88296 2880.81073"></polygon>
                                </g>
                                <g id="Fill-101-Clipped">
                                    <mask id="mask-9" fill="white">
                                        <use xlink:href="#path-8"></use>
                                    </mask>
                                    <g id="path-4"></g>
                                    <polygon id="Fill-101" fill="#FF9471" fill-rule="nonzero" mask="url(#mask-9)" points="2742.29625 2880.81088 2558.08964 2982.31242 2373.88303 2880.81088 2558.08964 2779.30934"></polygon>
                                </g>
                                <g id="Fill-102-Clipped">
                                    <mask id="mask-11" fill="white">
                                        <use xlink:href="#path-10"></use>
                                    </mask>
                                    <g id="path-4"></g>
                                    <polygon id="Fill-102" fill="#FFB39F" fill-rule="nonzero" mask="url(#mask-11)" points="2167.19121 4231.64048 2351.39782 4231.64048 2351.39782 3111.22432 2167.19121 3111.22432"></polygon>
                                </g>
                                <g id="Fill-103-Clipped">
                                    <mask id="mask-13" fill="white">
                                        <use xlink:href="#path-12"></use>
                                    </mask>
                                    <g id="path-4"></g>
                                    <polygon id="Fill-103" fill="#FF7D5A" fill-rule="nonzero" mask="url(#mask-13)" points="2351.65195 4222.00252 2535.60443 4222.00252 2535.60443 3111.29081 2351.65195 3111.29081"></polygon>
                                </g>
                                <g id="Fill-104-Clipped">
                                    <mask id="mask-15" fill="white">
                                        <use xlink:href="#path-14"></use>
                                    </mask>
                                    <g id="path-4"></g>
                                    <polygon id="Fill-104" fill="#FF9471" fill-rule="nonzero" mask="url(#mask-15)" points="2535.60428 3111.22439 2351.39767 3212.72593 2167.19106 3111.22439 2351.39767 3009.72285"></polygon>
                                </g>
                                <g id="Fill-105-Clipped">
                                    <mask id="mask-17" fill="white">
                                        <use xlink:href="#path-16"></use>
                                    </mask>
                                    <g id="path-4"></g>
                                    <polygon id="Fill-105" fill="#FFB39F" fill-rule="nonzero" mask="url(#mask-17)" points="1925.93251 4470.23519 2110.13912 4470.23519 2110.13912 3349.81902 1925.93251 3349.81902"></polygon>
                                </g>
                                <g id="Fill-106-Clipped">
                                    <mask id="mask-19" fill="white">
                                        <use xlink:href="#path-18"></use>
                                    </mask>
                                    <g id="path-4"></g>
                                    <polygon id="Fill-106" fill="#FF7D5A" fill-rule="nonzero" mask="url(#mask-19)" points="2110.39325 4460.59722 2294.34573 4460.59722 2294.34573 3349.88551 2110.39325 3349.88551"></polygon>
                                </g>
                                <g id="Fill-107-Clipped">
                                    <mask id="mask-21" fill="white">
                                        <use xlink:href="#path-20"></use>
                                    </mask>
                                    <g id="path-4"></g>
                                    <polygon id="Fill-107" fill="#FF9471" fill-rule="nonzero" mask="url(#mask-21)" points="2294.3455 3349.81924 2110.13889 3451.32078 1925.93228 3349.81924 2110.13889 3248.3177"></polygon>
                                </g>
                            </g>
                            <g id="Page-1" transform="translate(0.000000, 2063.626276)">
                                <polygon id="Fill-1" fill="#FFB39F" fill-rule="nonzero" points="1959.21252 2937.98351 2385.68423 2937.98351 2385.68423 1130.79245 1959.21252 1130.79245"></polygon>
                                <polygon id="Fill-2" fill="#FF7D5A" fill-rule="nonzero" points="2386.22038 2915.51503 2812.10237 2915.51503 2812.10237 1130.79245 2386.22038 1130.79245"></polygon>
                                <polygon id="Fill-3" fill="#FF9471" fill-rule="nonzero" points="1959.21252 1130.85906 2385.68423 1365.85231 2812.15594 1130.85906 2385.68423 895.864255"></polygon>
                                <g id="Group-64" transform="translate(0.000000, 0.264518)">
                                    <g id="Group-63">
                                        <polygon id="Fill-49" fill="#FFB39F" fill-rule="nonzero" points="376.948311 2110.23817 9.32566489 2112.43834 0.000622395628 205.058699 367.623268 202.85853"></polygon>
                                        <polygon id="Fill-51" fill="#FF7D5A" fill-rule="nonzero" points="744.45628 2088.80271 377.340887 2090.99976 368.130987 202.989078 735.246381 200.790465"></polygon>
                                        <g id="Group-55">
                                            <g id="Fill-53-Clipped">
                                                <mask id="mask-23" fill="white">
                                                    <use xlink:href="#path-22"></use>
                                                </mask>
                                                <g id="path-6"></g>
                                                <polygon id="Fill-53" fill="#FF9471" fill-rule="nonzero" mask="url(#mask-23)" points="735.246225 200.658051 368.835695 405.426212 -0.000622395628 205.058388 366.409908 0.29022614"></polygon>
                                            </g>
                                        </g>
                                        <g id="Fill-56-Clipped">
                                            <mask id="mask-25" fill="white">
                                                <use xlink:href="#path-24"></use>
                                            </mask>
                                            <g id="path-8"></g>
                                            <polygon id="Fill-56" fill="#FFB39F" fill-rule="nonzero" mask="url(#mask-25)" points="517.465949 2590.89969 885.096375 2590.89969 885.096375 683.49204 517.465949 683.49204"></polygon>
                                        </g>
                                        <g id="Fill-58-Clipped">
                                            <mask id="mask-27" fill="white">
                                                <use xlink:href="#path-26"></use>
                                            </mask>
                                            <g id="path-8"></g>
                                            <polygon id="Fill-58" fill="#FF7D5A" fill-rule="nonzero" mask="url(#mask-27)" points="885.602071 2571.66455 1252.72524 2571.66455 1252.72524 683.625855 885.602071 683.625855"></polygon>
                                        </g>
                                        <g id="Fill-59-Clipped">
                                            <mask id="mask-29" fill="white">
                                                <use xlink:href="#path-28"></use>
                                            </mask>
                                            <g id="path-8"></g>
                                            <polygon id="Fill-59" fill="#FF9471" fill-rule="nonzero" mask="url(#mask-29)" points="1252.72602 683.49204 885.095597 886.063145 517.466727 683.49204 885.095597 480.920935"></polygon>
                                        </g>
                                        <g id="Fill-60-Clipped">
                                            <mask id="mask-31" fill="white">
                                                <use xlink:href="#path-30"></use>
                                            </mask>
                                            <g id="path-8"></g>
                                            <polygon id="Fill-60" fill="#FFB39F" fill-rule="nonzero" mask="url(#mask-31)" points="1052.73086 3040.95863 1420.36128 3040.95863 1420.36128 1133.55099 1052.73086 1133.55099"></polygon>
                                        </g>
                                        <g id="Fill-61-Clipped">
                                            <mask id="mask-33" fill="white">
                                                <use xlink:href="#path-32"></use>
                                            </mask>
                                            <g id="path-8"></g>
                                            <polygon id="Fill-61" fill="#FF7D5A" fill-rule="nonzero" mask="url(#mask-33)" points="1420.86698 3021.7235 1787.99015 3021.7235 1787.99015 1133.6848 1420.86698 1133.6848"></polygon>
                                        </g>
                                        <g id="Fill-62-Clipped">
                                            <mask id="mask-35" fill="white">
                                                <use xlink:href="#path-34"></use>
                                            </mask>
                                            <g id="path-8"></g>
                                            <polygon id="Fill-62" fill="#FF9471" fill-rule="nonzero" mask="url(#mask-35)" points="1787.99046 1133.55114 1420.36159 1336.12225 1052.73117 1133.55114 1420.36004 930.980037"></polygon>
                                        </g>
                                    </g>
                                </g>
                            </g>
                        </g>
                        <g id="Page-1" stroke-width="1" fill="none" fill-rule="evenodd" transform="translate(0.000000, 1317.000000)">
                            <g id="Group-6" transform="translate(5662.756355, 0.412941)" fill-rule="nonzero">
                                <polygon id="Fill-1" fill="#FFB39F" points="0.553337172 1465.08317 323.752482 1465.08317 323.752482 178.755241 0.553337172 178.755241"></polygon>
                                <polygon id="Fill-2" fill="#FF7D5A" points="324.198698 1448.17277 646.951626 1448.17277 646.951626 178.871966 324.198698 178.871966"></polygon>
                                <polygon id="Fill-3" fill="#FF9471" points="646.951848 178.755463 323.752703 356.844335 0.553558802 178.755463 323.752703 0.665851526"></polygon>
                            </g>
                            <g id="Group-5" transform="translate(4837.535520, 946.563970)" fill-rule="nonzero">
                                <polygon id="Fill-4" fill="#FFB39F" points="0.638295483 1972.51404 461.638343 1972.51404 461.638343 254.304604 0.638295483 254.304604"></polygon>
                                <polygon id="Fill-5" fill="#FF7D5A" points="462.274422 882.39844 922.639129 882.39844 922.639129 254.470826 462.274422 254.470826"></polygon>
                                <polygon id="Fill-6" fill="#FF9471" points="922.639055 254.303865 461.639008 508.324781 0.638221606 254.303865 461.638269 0.282948113"></polygon>
                            </g>
                            <g id="Group-4" transform="translate(4233.736168, 1543.550353)" fill-rule="nonzero">
                                <polygon id="Fill-7" fill="#FFC4B5" points="0.429962929 1375.58956 461.43001 1375.58956 461.43001 254.493728 0.429962929 254.493728"></polygon>
                                <polygon id="Fill-8" fill="#FF8D6F" points="462.066089 1375.58956 922.431535 1375.58956 922.431535 254.661428 462.066089 254.661428"></polygon>
                                <polygon id="Fill-9" fill="#FFA689" points="922.431018 254.493802 461.430971 508.514719 0.43018456 254.493802 461.430232 0.472885346"></polygon>
                            </g>
                            <g id="Group-2" transform="translate(6170.322523, 611.025261)" fill-rule="nonzero">
                                <polygon id="Fill-13" fill="#FFB39F" points="0.511227401 2307.91468 415.718006 2307.91468 415.718006 229.327599 0.511227401 229.327599"></polygon>
                                <polygon id="Fill-14" fill="#FFA689" points="0.51100577 229.327156 415.717785 458.115454 415.717785 0.540334857"></polygon>
                            </g>
                            <g id="Group" transform="translate(4864.787395, 1906.340936)" fill-rule="nonzero">
                                <polygon id="Fill-15" fill="#FFC4B5" points="0.0398934677 1049.30577 461.039941 1049.30577 461.039941 254.682114 0.0398934677 254.682114"></polygon>
                                <polygon id="Fill-16" fill="#FF8D6F" points="461.67602 1003.07242 922.040727 1003.07242 922.040727 254.849814 461.67602 254.849814"></polygon>
                                <polygon id="Fill-17" fill="#FFA689" points="922.040653 254.682262 461.039867 508.703178 0.0398195909 254.682262 461.039867 0.661345042"></polygon>
                                <path d="M652.392135,238.965639 C652.392135,299.633261 583.160716,348.81378 497.759144,348.81378 C412.358311,348.81378 343.126892,299.633261 343.126892,238.965639 C343.126892,178.298018 412.358311,129.117498 497.759144,129.117498 C583.160716,129.117498 652.392135,178.298018 652.392135,238.965639" id="Fill-77" fill="#FF7D5A"></path>
                                <path d="M652.392135,221.235209 C652.392135,281.902831 583.160716,331.08335 497.759144,331.08335 C412.358311,331.08335 343.126892,281.902831 343.126892,221.235209 C343.126892,160.567587 412.358311,111.387068 497.759144,111.387068 C583.160716,111.387068 652.392135,160.567587 652.392135,221.235209" id="Fill-80" fill="#FF7D5A"></path>
                            </g>
                            <g id="phone" transform="translate(5321.256298, 183.511475)" fill-rule="nonzero">
                                <path d="M849.77467,1982.56941 L125.677204,1567.89233 C101.001617,1556.34391 80.9972588,1526.97788 80.9972588,1502.30156 L1.48145131,55.3595741 C1.48145131,31.7869673 54.5412409,21.5735008 102.507226,3.34661868 C111.345106,-0.0118202867 134.246912,-0.750588207 146.785281,4.81898314 L926.229762,376.533017 C950.906088,388.082176 970.909707,417.448201 970.909707,442.123788 L970.909707,1918.80192 C887.287828,1978.39389 874.450996,1994.11857 849.77467,1982.56941" id="Fill-70" fill="#FFB0A6"></path>
                                <path d="M845.806157,1980.88591 L45.2535983,1606.20793 C20.578011,1594.65951 0.57365329,1565.29275 0.57365329,1540.61716 L0.57365329,63.9397725 C0.57365329,39.2634464 20.578011,28.6222333 45.2535983,40.1706534 L845.806157,414.848624 C870.481744,426.397783 890.486102,455.763808 890.486102,480.440134 L890.486102,1957.11753 C890.486102,1981.79311 870.481744,1992.43506 845.806157,1980.88591" id="Fill-71" fill="#FFCCC2"></path>
                                <polygon id="Fill-72" fill="#FFFFFF" points="803.25571 1733.15353 87.8040448 1398.30475 87.8040448 191.692102 803.25571 526.540878"></polygon>
                                <path d="M524.09201,346.461247 L325.266661,253.40604 C320.330952,251.096652 316.330524,245.222708 316.330524,240.287738 C316.330524,235.352768 320.330952,233.224378 325.266661,235.534505 L524.09201,328.589713 C529.026979,330.899101 533.028146,336.772306 533.028146,341.707276 C533.028146,346.642984 529.026979,348.770636 524.09201,346.461247" id="Fill-73" fill="#FFB0A6"></path>
                                <path d="M569.516485,358.785078 C569.516485,363.720048 565.516057,365.848438 560.580348,363.53905 C555.645378,361.228923 551.64495,355.355718 551.64495,350.420748 C551.64495,345.485778 555.645378,343.357388 560.580348,345.666776 C565.516057,347.976904 569.516485,353.850109 569.516485,358.785078" id="Fill-74" fill="#FFB0A6"></path>
                                <path d="M662.700459,1437.48132 L243.759209,1241.40714 C212.503415,1226.77806 187.165153,1189.5811 187.165153,1158.32456 L187.165153,1156.51089 C187.165153,1125.25436 212.503415,1111.77554 243.759209,1126.40388 L662.700459,1322.47806 C693.956991,1337.10714 719.294515,1374.3041 719.294515,1405.56064 L719.294515,1407.37431 C719.294515,1438.63084 693.956991,1452.10966 662.700459,1437.48132" id="Fill-75" fill="#FBBB1E"></path>
                                <path d="M650.278446,1445.07135 L239.731077,1252.9252 C208.474545,1238.29686 183.136282,1201.09989 183.136282,1169.84336 C183.136282,1138.58683 208.474545,1125.10801 239.731077,1139.73635 L650.278446,1331.8825 C681.534978,1346.51084 706.872501,1383.70781 706.872501,1414.96434 C706.872501,1446.22087 681.534978,1459.70043 650.278446,1445.07135" id="Fill-76" fill="#F9D641"></path>
                                <path d="M531.590061,1713.02425 C531.590061,1756.6943 496.189041,1775.52697 452.518992,1755.08821 C408.848942,1734.64946 373.447184,1682.67935 373.447184,1639.0093 C373.447184,1595.33999 408.848942,1576.50732 452.518992,1596.94534 C496.189041,1617.38409 531.590061,1669.3542 531.590061,1713.02425" id="Fill-78" fill="#FF8E85"></path>
                                <path d="M536.057981,1724.05132 C536.057981,1767.72137 500.656961,1786.55404 456.986912,1766.11529 C413.316863,1745.67653 377.915104,1693.70643 377.915104,1650.03638 C377.915104,1606.36707 413.316863,1587.53439 456.986912,1607.97241 C500.656961,1628.41116 536.057981,1680.38127 536.057981,1724.05132" id="Fill-79" fill="#FFB3A9"></path>
                                <polygon id="Fill-84" fill="#FAC9AF" points="19.5862151 1198.0363 65.8493398 1198.0363 65.8493398 1144.16829 19.5862151 1144.16829"></polygon>
                            </g>
                            <g id="people" transform="translate(5234.390947, 1191.830843)">
                                <path d="M155.189209,155.395916 L128.467235,155.395916 C105.570601,155.395916 87.0097954,136.835111 87.0097954,113.938477 L87.0097954,61.2332962 C87.0097954,38.336662 105.570601,19.7758568 128.467235,19.7758568 L155.189209,19.7758568 C178.085843,19.7758568 196.646649,38.336662 196.646649,61.2332962 L196.646649,113.938477 C196.646649,136.835111 178.085843,155.395916 155.189209,155.395916" id="Fill-83" fill="#FAC9AF" fill-rule="nonzero"></path>
                                <path d="M150.890245,146.029152 C151.113353,147.579826 149.948316,148.973142 148.384344,149.062533 C135.314801,149.806472 86.1978156,153.114675 69.5814475,145.890264 C50.1474186,137.440236 43.7038849,125.18777 43.7038849,97.302975 C43.7038849,69.4189186 47.0985234,1.73595686 112.992928,0.1298754 C180.986911,-1.52791981 199.510039,14.2580731 200.432022,67.3902619 C200.449752,68.4393123 199.077121,68.8648427 198.507531,67.9842313 C196.156033,64.3457993 192.315178,60.2027888 189.675561,60.7310079 C185.450547,61.5761584 183.655341,69.2068922 179.219039,71.1084808 C174.782738,73.0100695 154.50282,80.6149464 152.60197,98.6763445 C151.00697,113.823303 149.710432,137.80962 150.890245,146.029152" id="Fill-85" fill="#000000" fill-rule="nonzero"></path>
                                <path d="M381.401054,235.823142 C379.500205,229.802922 365.75986,215.84538 361.630886,215.812874 C356.138147,215.769287 355.171838,219.434314 351.298478,220.296457 C350.369108,220.503312 349.050407,220.154613 347.605377,219.723173 C352.128114,210.389579 363.150532,199.78161 367.832104,195.852842 C369.441141,194.503852 369.651689,192.105073 368.302699,190.496036 C366.950754,188.887 364.551974,188.678667 362.945154,190.025441 C362.105914,190.727271 344.202612,205.899347 339.292022,220.0667 C339.040841,220.397668 338.808868,220.770746 338.623437,221.247251 C336.405656,226.950539 334.820998,271.945938 338.623437,276.065308 C342.425875,280.184678 360.488012,274.48139 360.488012,274.48139 C360.488012,274.48139 383.302643,241.843362 381.401054,235.823142" id="Fill-86" fill="#FFEEC2" fill-rule="nonzero"></path>
                                <path d="M56.9361787,440.79046 C56.9361787,440.79046 22.7142323,874.269186 27.7843966,879.338611 C32.853822,884.408775 54.401466,893.281378 62.0063429,885.676501 C69.6112199,878.071624 127.914784,544.724025 127.914784,544.724025 C127.914784,544.724025 148.194702,940.177627 153.264867,943.980804 C158.334292,947.783243 177.549646,949.05023 181.884736,943.980804 C186.219087,938.91064 220.441033,450.930049 220.441033,450.930049 L56.9361787,440.79046 Z" id="Fill-87" fill="#4F5B69" fill-rule="nonzero"></path>
                                <g id="Fill-89-Clipped" transform="translate(27.000000, 440.000000)">
                                    <mask id="mask-37" fill="white">
                                        <use xlink:href="#path-36"></use>
                                    </mask>
                                    <g id="path-10"></g>
                                    <polygon id="Fill-89" fill="#2E2C30" fill-rule="nonzero" mask="url(#mask-37)" points="-2.3980679 -33.431413 101.336768 105.199126 78.720866 429.748 36.8940427 447.912087 -6.2005064 460.886329"></polygon>
                                </g>
                                <path d="M43.7040326,447.550334 C43.7040326,447.550334 63.1388003,396.005757 59.758937,392.625894 C56.3790738,389.246031 12.4393742,377.41614 2.93364741,337.490906 C-6.57281818,297.564932 12.4393742,263.976849 28.282991,236.725916 C44.1266079,209.474984 61.2372116,167.648161 77.7146913,164.479585 C94.192171,161.31101 104.648692,162.577997 105.916418,165.747311 C107.184144,168.915887 112.253569,182.540983 126.82946,181.907859 C141.40609,181.273996 144.891597,176.203832 154.397324,177.154626 C163.903789,178.104682 194.11201,190.674079 204.251599,194.899093 C214.391189,199.124107 242.487272,214.997274 249.035711,240.528355 C253.444678,257.716529 231.363643,322.963034 261.710752,332.632029 C283.979433,339.727156 325.08448,299.677808 336.914371,267.567999 C336.914371,267.567999 363.53144,259.117972 363.109604,278.55274 C362.687029,297.987507 338.604672,364.319263 311.142452,384.599181 C283.680232,404.87836 269.315629,418.821127 251.571162,413.328388 C233.825957,407.835648 213.546777,378.261291 213.546777,373.191127 C213.546777,373.191127 235.516258,481.349705 228.756531,484.729568 C221.996066,488.109432 118.06324,521.064391 43.7040326,447.550334" id="Fill-92" fill="#FFAB24" fill-rule="nonzero"></path>
                                <path d="M27.2716178,926.552604 C27.2716178,926.552604 31.4515667,940.811564 42.2250192,940.811564 C52.9984718,940.811564 97.6776781,920.849316 107.500336,915.145289 C117.323733,909.441261 132.216556,898.667809 127.463323,889.479013 C127.463323,889.479013 123.027022,883.141123 91.6567195,892.330658 C91.6567195,892.330658 58.1033581,901.482515 49.8298962,907.22348 C40.535457,913.673663 26.1708536,899.829891 27.2716178,926.552604" id="Fill-94" fill="#41464E" fill-rule="nonzero"></path>
                                <path d="M143.940729,995.630286 C143.940729,995.630286 142.989935,1010.52311 158.51662,1009.57231 C174.043305,1008.62226 217.137854,986.124559 221.574156,982.955245 C226.010457,979.786669 253.894513,963.309189 246.606568,951.585681 C239.318622,939.861434 189.253059,960.774476 176.894949,966.795435 C164.537578,972.815655 163.269853,966.161572 155.348044,968.696285 C147.426236,971.230998 141.406016,980.737463 143.940729,995.630286" id="Fill-96" fill="#41464E" fill-rule="nonzero"></path>
                                <polygon id="Fill-81" fill="#EAAA9A" fill-rule="nonzero" points="38.3885974 912.610354 57.3505536 912.610354 57.3505536 877.120682 38.3885974 877.120682"></polygon>
                                <polygon id="Fill-82" fill="#CF9B91" fill-rule="nonzero" points="162.36272 971.09861 179.083254 971.09861 179.083254 935.608938 162.36272 935.608938"></polygon>
                            </g>
                            <g id="Group-108" transform="translate(5894.733631, 1433.000000)" fill-rule="nonzero">
                                <polygon id="Fill-98" fill="#FFB39F" points="448.882957 1222.22689 633.089566 1222.22689 633.089566 101.810728 448.882957 101.810728"></polygon>
                                <polygon id="Fill-101" fill="#FFA689" points="817.29625 101.810876 633.08964 203.312417 448.883031 101.810876 633.08964 0.309335178"></polygon>
                                <polygon id="Fill-102" fill="#FFC4B5" points="242.191207 1452.64048 426.397817 1452.64048 426.397817 332.224316 242.191207 332.224316"></polygon>
                                <polygon id="Fill-103" fill="#FF8D6F" points="426.651953 1443.00252 610.604426 1443.00252 610.604426 332.290805 426.651953 332.290805"></polygon>
                                <polygon id="Fill-104" fill="#FFA689" points="610.604278 332.22439 426.397669 433.725931 242.191059 332.22439 426.397669 230.722849"></polygon>
                                <polygon id="Fill-105" fill="#FFC4B5" points="0.932506285 1691.23519 185.139116 1691.23519 185.139116 570.81902 0.932506285 570.81902"></polygon>
                                <polygon id="Fill-106" fill="#FF8D6F" points="185.393252 1681.59722 369.345725 1681.59722 369.345725 570.885509 185.393252 570.885509"></polygon>
                                <polygon id="Fill-107" fill="#FFA689" points="369.345504 570.819241 185.138894 672.320782 0.932284655 570.819241 185.138894 469.317701"></polygon>
                            </g>
                            <g id="Group" transform="translate(0.000000, 758.000000)">
                                <polygon id="Fill-1" fill="#FFC4B5" fill-rule="nonzero" points="2932.78486 2937.98351 3359.25657 2937.98351 3359.25657 1130.79245 2932.78486 1130.79245"></polygon>
                                <polygon id="Fill-2" fill="#FF8D6F" fill-rule="nonzero" points="3359.79272 2915.51503 3785.67471 2915.51503 3785.67471 1130.79245 3359.79272 1130.79245"></polygon>
                                <polygon id="Fill-3" fill="#FFA689" fill-rule="nonzero" points="2932.78486 1130.85906 3359.25657 1365.85231 3785.72828 1130.85906 3359.25657 895.864255"></polygon>
                                <g id="Group-64" transform="translate(973.572340, 0.000000)">
                                    <g id="Group-63">
                                        <polygon id="Fill-49" fill="#FFB39F" fill-rule="nonzero" points="376.948311 2110.23817 9.32566489 2112.43834 0.000622395628 205.058699 367.623268 202.85853"></polygon>
                                        <polygon id="Fill-51" fill="#FF7D5A" fill-rule="nonzero" points="744.45628 2088.80271 377.340887 2090.99976 368.130987 202.989078 735.246381 200.790465"></polygon>
                                        <g id="Group-55">
                                            <g id="Fill-53-Clipped">
                                                <mask id="mask-39" fill="white">
                                                    <use xlink:href="#path-38"></use>
                                                </mask>
                                                <g id="path-12"></g>
                                                <polygon id="Fill-53" fill="#FF9471" fill-rule="nonzero" mask="url(#mask-39)" points="735.246225 200.658051 368.835695 405.426212 -0.000622395628 205.058388 366.409908 0.29022614"></polygon>
                                            </g>
                                        </g>
                                        <polygon id="Fill-56" fill="#FFC4B5" fill-rule="nonzero" points="517.465949 2590.89969 885.096375 2590.89969 885.096375 683.49204 517.465949 683.49204"></polygon>
                                        <polygon id="Fill-58" fill="#FF8D6F" fill-rule="nonzero" points="885.602071 2571.66455 1252.72524 2571.66455 1252.72524 683.625855 885.602071 683.625855"></polygon>
                                        <polygon id="Fill-59" fill="#FFA689" fill-rule="nonzero" points="1252.72602 683.49204 885.095597 886.063145 517.466727 683.49204 885.095597 480.920935"></polygon>
                                        <polygon id="Fill-60" fill="#FFC4B5" fill-rule="nonzero" points="1052.73086 3040.95863 1420.36128 3040.95863 1420.36128 1133.55099 1052.73086 1133.55099"></polygon>
                                        <polygon id="Fill-61" fill="#FF8D6F" fill-rule="nonzero" points="1420.86698 3021.7235 1787.99015 3021.7235 1787.99015 1133.6848 1420.86698 1133.6848"></polygon>
                                        <polygon id="Fill-62" fill="#FFA689" fill-rule="nonzero" points="1787.99046 1133.55114 1420.36159 1336.12225 1052.73117 1133.55114 1420.36004 930.980037"></polygon>
                                    </g>
                                </g>
                                <g id="Group-64-Copy">
                                    <g id="Group-63">
                                        <polygon id="Fill-51" fill="#FF8D6F" fill-rule="nonzero" points="744.45628 2088.80271 377.340887 2090.99976 368.130987 202.989078 735.246381 200.790465"></polygon>
                                        <g id="Group-55">
                                            <g id="Fill-53-Clipped">
                                                <mask id="mask-41" fill="white">
                                                    <use xlink:href="#path-40"></use>
                                                </mask>
                                                <g id="path-14"></g>
                                                <polygon id="Fill-53" fill="#FFA689" fill-rule="nonzero" mask="url(#mask-41)" points="735.246225 200.658051 368.835695 405.426212 -0.000622395628 205.058388 366.409908 0.290226137"></polygon>
                                            </g>
                                        </g>
                                        <polygon id="Fill-56" fill="#FFC4B5" fill-rule="nonzero" points="517.465949 2590.89969 885.096375 2590.89969 885.096375 683.49204 517.465949 683.49204"></polygon>
                                        <polygon id="Fill-58" fill="#FF8D6F" fill-rule="nonzero" points="885.602071 2571.66455 1252.72524 2571.66455 1252.72524 683.625855 885.602071 683.625855"></polygon>
                                        <polygon id="Fill-59" fill="#FFA689" fill-rule="nonzero" points="1252.72602 683.49204 885.095597 886.063145 517.466727 683.49204 885.095597 480.920935"></polygon>
                                        <polygon id="Fill-60" fill="#FFB39F" fill-rule="nonzero" points="1052.73086 3040.95863 1420.36128 3040.95863 1420.36128 1133.55099 1052.73086 1133.55099"></polygon>
                                        <polygon id="Fill-61" fill="#FF8D6F" fill-rule="nonzero" points="1420.86698 3021.7235 1787.99015 3021.7235 1787.99015 1133.6848 1420.86698 1133.6848"></polygon>
                                        <polygon id="Fill-62" fill="#FFA689" fill-rule="nonzero" points="1787.99046 1133.55114 1420.36159 1336.12225 1052.73117 1133.55114 1420.36004 930.980037"></polygon>
                                    </g>
                                </g>
                            </g>
                        </g>
                        <g id="Group-8" stroke-width="1" fill="none" fill-rule="evenodd" transform="translate(5506.894695, 2001.628778)">
                            <g id="Group-7" fill-rule="nonzero">
                                <path d="M0,8.68412099 L-7.10542736e-15,117.867414 C-6.72878998e-15,120.942891 1.76303327,123.746088 4.53508019,125.078123 L189.374219,213.897788 C193.356584,215.81141 198.136226,214.134363 200.049848,210.151998 C200.54583,209.119829 200.814438,207.993208 200.837514,206.84829 L203.079415,95.6183209 C203.143362,92.4456003 201.325959,89.5350131 198.447183,88.1997628 L11.3661436,1.42677455 C7.35802181,-0.432295217 2.60172332,1.30985565 0.742653556,5.31797741 C0.253433665,6.37272691 1.63396919e-15,7.52143763 0,8.68412099 Z" id="Path-2" fill="#FFD9B4"></path>
                                <rect id="Rectangle-2" fill="#FEE1D3" transform="translate(413.160504, 208.810624) rotate(25.000000) translate(-413.160504, -208.810624) " x="252.095706" y="195.388557" width="322.129597" height="26.8441331" rx="13.4220666"></rect>
                                <rect id="Rectangle-2-Copy-3" fill="#FEE1D3" opacity="0.510360054" transform="translate(334.679708, 252.746826) rotate(25.000000) translate(-334.679708, -252.746826) " x="260.208887" y="239.324759" width="148.941642" height="26.8441331" rx="13.4220666"></rect>
                            </g>
                            <g id="Group-7-Copy" transform="translate(0.000000, 199.166149)" fill-rule="nonzero">
                                <path d="M0,8.68412099 L-7.10542736e-15,117.867414 C-6.72878998e-15,120.942891 1.76303327,123.746088 4.53508019,125.078123 L189.374219,213.897788 C193.356584,215.81141 198.136226,214.134363 200.049848,210.151998 C200.54583,209.119829 200.814438,207.993208 200.837514,206.84829 L203.079415,95.6183209 C203.143362,92.4456003 201.325959,89.5350131 198.447183,88.1997628 L11.3661436,1.42677455 C7.35802181,-0.432295217 2.60172332,1.30985565 0.742653556,5.31797741 C0.253433665,6.37272691 1.63396919e-15,7.52143763 0,8.68412099 Z" id="Path-2" fill="#FFD9B4"></path>
                                <rect id="Rectangle-2" fill="#FEE1D3" transform="translate(413.160504, 208.810624) rotate(25.000000) translate(-413.160504, -208.810624) " x="252.095706" y="195.388557" width="322.129597" height="26.8441331" rx="13.4220666"></rect>
                                <rect id="Rectangle-2-Copy-3" fill="#FEE1D3" opacity="0.510360054" transform="translate(334.679708, 252.746826) rotate(25.000000) translate(-334.679708, -252.746826) " x="260.208887" y="239.324759" width="148.941642" height="26.8441331" rx="13.4220666"></rect>
                            </g>
                            <g id="Group-7-Copy-2" transform="translate(0.000000, 404.393876)" fill-rule="nonzero">
                                <path d="M0,8.68412099 L1.77635684e-15,117.867414 C2.15299422e-15,120.942891 1.76303327,123.746088 4.53508019,125.078123 L189.374219,213.897788 C193.356584,215.81141 198.136226,214.134363 200.049848,210.151998 C200.54583,209.119829 200.814438,207.993208 200.837514,206.84829 L203.079415,95.6183209 C203.143362,92.4456003 201.325959,89.5350131 198.447183,88.1997628 L11.3661436,1.42677455 C7.35802181,-0.432295217 2.60172332,1.30985565 0.742653556,5.31797741 C0.253433665,6.37272691 -1.03056607e-15,7.52143763 0,8.68412099 Z" id="Path-2" fill="#FFD9B4"></path>
                                <rect id="Rectangle-2" fill="#FEE1D3" transform="translate(413.160504, 208.810624) rotate(25.000000) translate(-413.160504, -208.810624) " x="252.095706" y="195.388557" width="322.129597" height="26.8441331" rx="13.4220666"></rect>
                                <rect id="Rectangle-2-Copy-3" fill="#FEE1D3" opacity="0.510360054" transform="translate(334.679708, 252.746826) rotate(25.000000) translate(-334.679708, -252.746826) " x="260.208887" y="239.324759" width="148.941642" height="26.8441331" rx="13.4220666"></rect>
                            </g>
                        </g>
                        <rect id="Rectangle-3" fill="#FEE1D3" fill-rule="nonzero" transform="translate(5788.917441, 2010.288177) rotate(25.000000) translate(-5788.917441, -2010.288177) " x="5484.10664" y="1992.53641" width="609.621603" height="35.5035309" rx="17.7517654"></rect>
                    </g>
                </g>
            </g>
        </g>
    </g>
</svg>