
<svg width="536px" height="234px" viewBox="0 0 536 234" version="1.1" xmlns="http://www.w3.org/2000/svg" xmlns:xlink="http://www.w3.org/1999/xlink">
    <!-- Generator: Sketch 49.3 (51167) - http://www.bohemiancoding.com/sketch -->
    <desc>Created with Sketch.</desc>
    <defs>
        <polygon id="path-1" points="0 0.37 39.2295 0.37 39.2295 54.774 0 54.774"></polygon>
        <polygon id="path-3" points="0 55.7803 535.186 55.7803 535.186 1.0003 0 1.0003"></polygon>
    </defs>
    <g id="Page-1" stroke="none" stroke-width="1" fill="none" fill-rule="evenodd">
        <g id="banner-pic" transform="translate(-349.000000, -320.000000)">
            <g id="XMLID_5_" transform="translate(619.000000, 329.000000)" fill="#FFFFFF" fill-rule="nonzero">
                <polygon id="XMLID_10_" points="6.8 32.1 0.4 32.1 0.4 0 6.8 0"></polygon>
                <path d="M20.7,26.4 L40.5,26.4 L40.5,32.1 L14.3,32.1 L14.3,23.6 C14.2,20 15.1,17.3 16.8,15.4 C17.6,14.6 18.5,14 19.5,13.7 C20.5,13.4 22,13.3 24,13.3 L28.9,13.3 C30.6,13.3 31.7,13.1 32.4,12.7 C33.5,12 34,11 34,9.7 C34,8.3 33.5,7.2 32.5,6.5 C31.7,6 30.5,5.8 28.8,5.8 L14.6,5.8 L14.6,0.1 L30.2,0.1 C34.1,0.1 36.8,0.8 38.3,2.2 C39.2,3 39.9,4 40.4,5.3 C40.9,6.6 41.1,8 41.1,9.5 C41.1,11.4 40.8,13 40.2,14.4 C39.6,15.8 38.8,16.9 37.7,17.6 C36.1,18.6 33.8,19.1 30.6,19.1 L26.3,19.1 C24.8,19.1 23.7,19.2 22.9,19.4 C22.2,19.6 21.6,19.9 21.2,20.5 C20.7,21 20.5,22.1 20.4,23.8 L20.4,26.4 L20.7,26.4 Z" id="XMLID_12_"></path>
            </g>
            <g id="XMLID_8_" transform="translate(565.000000, 328.000000)" fill="#FFFFFF" fill-rule="nonzero">
                <polygon id="XMLID_107_" points="6.4 32.8 0 32.8 0 0.6 6.4 0.6"></polygon>
                <path d="M20.3,27.1 L40,27.1 L40,32.8 L13.8,32.8 L13.8,24.2 C13.7,20.6 14.6,17.9 16.3,16 C17.1,15.2 18,14.6 19,14.3 C20,14 21.5,13.9 23.5,13.9 L28.4,13.9 C30.1,13.9 31.2,13.7 31.9,13.3 C33,12.6 33.5,11.6 33.5,10.3 C33.5,8.9 33,7.8 32,7.1 C31.2,6.6 30,6.4 28.3,6.4 L14.1,6.4 L14.1,0.7 L29.7,0.7 C33.6,0.7 36.3,1.4 37.8,2.8 C38.7,3.6 39.4,4.6 39.9,5.9 C40.4,7.2 40.6,8.6 40.6,10.1 C40.6,12 40.3,13.6 39.7,15 C39.1,16.4 38.3,17.5 37.2,18.2 C35.6,19.2 33.3,19.7 30.1,19.7 L25.8,19.7 C24.3,19.7 23.2,19.8 22.4,20 C21.7,20.2 21.1,20.5 20.7,21.1 C20.2,21.6 20,22.7 19.9,24.4 L19.9,27.1 L20.3,27.1 Z" id="XMLID_9_"></path>
            </g>
            <path d="M763.4,553.4 L460.1,553.4 C452,553.4 445.4,546.8 445.4,538.7 C445.4,530.6 452,524 460.1,524 L763.4,524 C771.5,524 778.1,530.6 778.1,538.7 C778.1,546.8 771.5,553.4 763.4,553.4 Z" id="XMLID_6_" fill="#FFFFFF" fill-rule="nonzero" opacity="0.18"></path>
            <path d="M761.7,550.1 L458.4,550.1 C450.3,550.1 443.7,543.5 443.7,535.4 C443.7,527.3 450.3,520.7 458.4,520.7 L761.7,520.7 C769.8,520.7 776.4,527.3 776.4,535.4 C776.4,543.5 769.8,550.1 761.7,550.1 Z" id="XMLID_4_" fill="#FFFFFF" fill-rule="nonzero"></path>
            <g id="XMLID_68_" transform="translate(564.000000, 368.000000)" fill="#FFFFFF" fill-rule="nonzero">
                <path d="M5.3,1 C5.8,1.5 6,2 6,2.8 C6,3.5 5.7,4.1 5.2,4.7 C4.9,5 4.3,5.5 3.5,6 C2.6,6.6 2.1,7.1 1.9,7.5 L6,7.5 L6,8.6 L0.4,8.6 C0.4,7.8 0.7,7.1 1.2,6.5 C1.5,6.1 2.1,5.7 3,5 C3.5,4.6 3.9,4.3 4.2,4.1 C4.6,3.7 4.8,3.2 4.8,2.8 C4.8,2.3 4.7,2 4.4,1.8 C4.2,1.6 3.8,1.5 3.3,1.5 C2.8,1.5 2.4,1.7 2.1,2 C1.8,2.3 1.7,2.8 1.7,3.5 L0.5,3.5 C0.5,2.6 0.8,1.9 1.3,1.3 C1.8,0.7 2.5,0.4 3.4,0.4 C4.1,0.3 4.8,0.6 5.3,1 Z" id="XMLID_69_"></path>
                <path d="M12.3,1.6 C12.8,2.3 13,3.4 13,4.6 C13,5.8 12.8,6.9 12.3,7.6 C11.8,8.4 11,8.8 10.1,8.8 C9.2,8.8 8.4,8.4 7.9,7.6 C7.4,6.9 7.2,5.9 7.2,4.6 C7.2,3.3 7.4,2.3 7.9,1.6 C8.4,0.8 9.2,0.4 10.1,0.4 C11,0.4 11.8,0.7 12.3,1.6 Z M8.7,2.5 C8.5,3 8.4,3.7 8.4,4.6 C8.4,5.5 8.5,6.2 8.7,6.7 C9,7.4 9.4,7.8 10.1,7.8 C10.8,7.8 11.2,7.4 11.5,6.7 C11.7,6.2 11.8,5.5 11.8,4.6 C11.8,3.7 11.7,3 11.5,2.5 C11.2,1.8 10.7,1.4 10.1,1.4 C9.4,1.4 8.9,1.8 8.7,2.5 Z" id="XMLID_71_"></path>
                <path d="M17,0.5 L17,8.6 L15.8,8.6 L15.8,2 C15.3,2.5 14.7,2.8 13.9,3 L13.9,1.8 C14.3,1.7 14.6,1.5 15,1.3 C15.4,1 15.7,0.8 16,0.5 C16,0.5 17,0.5 17,0.5 Z" id="XMLID_74_"></path>
                <path d="M23.6,1 C24.1,1.4 24.3,1.9 24.3,2.5 C24.3,2.9 24.2,3.3 24,3.6 C23.8,3.9 23.5,4.1 23.1,4.3 C23.5,4.4 23.8,4.6 24.1,5 C24.4,5.4 24.6,5.8 24.6,6.3 C24.6,7 24.3,7.6 23.8,8 C23.3,8.4 22.5,8.7 21.6,8.7 C20.6,8.7 19.9,8.5 19.4,8 C18.9,7.5 18.6,7 18.6,6.3 C18.6,5.8 18.8,5.3 19.1,5 C19.4,4.6 19.7,4.4 20.1,4.3 C19.7,4.1 19.4,3.9 19.2,3.6 C19,3.3 18.9,3 18.9,2.5 C18.9,1.9 19.1,1.4 19.6,1 C20.1,0.5 20.8,0.3 21.7,0.3 C22.6,0.3 23.1,0.6 23.6,1 Z M20.2,5.3 C19.9,5.6 19.7,5.9 19.7,6.4 C19.7,6.8 19.8,7.2 20.2,7.4 C20.5,7.7 20.9,7.8 21.5,7.8 C22.1,7.8 22.5,7.7 22.9,7.4 C23.2,7.1 23.3,6.8 23.3,6.4 C23.3,5.9 23.2,5.6 22.9,5.3 C22.6,5 22.1,4.9 21.5,4.9 C20.9,4.9 20.5,5 20.2,5.3 Z M20.3,1.7 C20,1.9 19.9,2.2 19.9,2.6 C19.9,3 20,3.3 20.2,3.5 C20.5,3.8 20.9,3.9 21.5,3.9 C22.1,3.9 22.5,3.8 22.8,3.5 C23,3.3 23.1,3 23.1,2.6 C23.1,2.3 23,2 22.7,1.7 C22.4,1.4 22,1.3 21.5,1.3 C21,1.3 20.6,1.5 20.3,1.7 Z" id="XMLID_76_"></path>
                <path d="M27.1,7.2 C27.3,7.4 27.4,7.6 27.4,7.8 C27.4,8 27.3,8.2 27.1,8.4 C26.9,8.5 26.7,8.6 26.5,8.6 C26.3,8.6 26.1,8.5 25.9,8.4 C25.7,8.2 25.6,8 25.6,7.8 C25.6,7.5 25.7,7.3 25.9,7.2 C26,7 26.2,7 26.5,7 C26.7,7 26.9,7.1 27.1,7.2 Z" id="XMLID_80_"></path>
                <path d="M31.6,0.5 L31.6,8.6 L30.4,8.6 L30.4,2 C29.9,2.5 29.3,2.8 28.5,3 L28.5,1.8 C28.9,1.7 29.2,1.5 29.6,1.3 C30,1 30.3,0.8 30.6,0.5 C30.6,0.5 31.6,0.5 31.6,0.5 Z" id="XMLID_82_"></path>
                <path d="M38.1,1 C38.6,1.5 38.8,2 38.8,2.8 C38.8,3.5 38.5,4.1 38,4.7 C37.7,5 37.1,5.5 36.3,6 C35.4,6.6 34.9,7.1 34.7,7.5 L38.8,7.5 L38.8,8.6 L33.2,8.6 C33.2,7.8 33.5,7.1 34,6.5 C34.3,6.1 34.9,5.7 35.8,5 C36.3,4.6 36.7,4.3 37,4.1 C37.4,3.7 37.6,3.2 37.6,2.8 C37.6,2.3 37.5,2 37.2,1.8 C37,1.6 36.6,1.5 36.1,1.5 C35.6,1.5 35.2,1.7 34.9,2 C34.6,2.3 34.5,2.8 34.5,3.5 L33.3,3.5 C33.3,2.6 33.6,1.9 34.1,1.3 C34.6,0.7 35.3,0.4 36.2,0.4 C36.9,0.3 37.6,0.6 38.1,1 Z" id="XMLID_84_"></path>
                <path d="M41.6,7.2 C41.8,7.4 41.9,7.6 41.9,7.8 C41.9,8 41.8,8.2 41.6,8.4 C41.4,8.5 41.2,8.6 41,8.6 C40.8,8.6 40.6,8.5 40.4,8.4 C40.2,8.2 40.1,8 40.1,7.8 C40.1,7.5 40.2,7.3 40.4,7.2 C40.5,7 40.7,7 41,7 C41.2,7 41.4,7.1 41.6,7.2 Z" id="XMLID_86_"></path>
                <path d="M46.1,0.5 L46.1,8.6 L44.9,8.6 L44.9,2 C44.4,2.5 43.8,2.8 43,3 L43,1.8 C43.4,1.7 43.7,1.5 44.1,1.3 C44.5,1 44.9,0.8 45.1,0.5 C45.1,0.5 46.1,0.5 46.1,0.5 Z" id="XMLID_88_"></path>
                <path d="M52.8,1.6 C53.3,2.3 53.5,3.4 53.5,4.6 C53.5,5.8 53.3,6.9 52.8,7.6 C52.3,8.4 51.5,8.8 50.6,8.8 C49.7,8.8 48.9,8.4 48.4,7.6 C47.9,6.9 47.7,5.9 47.7,4.6 C47.7,3.3 47.9,2.3 48.4,1.6 C48.9,0.8 49.7,0.4 50.6,0.4 C51.5,0.4 52.3,0.7 52.8,1.6 Z M49.2,2.5 C49,3 48.9,3.7 48.9,4.6 C48.9,5.5 49,6.2 49.2,6.7 C49.5,7.4 49.9,7.8 50.6,7.8 C51.3,7.8 51.7,7.4 52,6.7 C52.2,6.2 52.3,5.5 52.3,4.6 C52.3,3.7 52.2,3 52,2.5 C51.7,1.8 51.3,1.4 50.6,1.4 C49.9,1.4 49.4,1.8 49.2,2.5 Z" id="XMLID_90_"></path>
                <polygon id="XMLID_93_" points="57.8 6.1 57.8 5.3 67.1 5.3 67.1 6.1"></polygon>
                <path d="M73.2,0.5 L73.2,8.6 L72,8.6 L72,2 C71.5,2.5 70.9,2.8 70.1,3 L70.1,1.8 C70.5,1.7 70.8,1.5 71.2,1.3 C71.6,1 72,0.8 72.2,0.5 C72.2,0.5 73.2,0.5 73.2,0.5 Z" id="XMLID_95_"></path>
                <path d="M79.7,1 C80.2,1.5 80.4,2 80.4,2.8 C80.4,3.5 80.1,4.1 79.6,4.7 C79.3,5 78.7,5.5 77.9,6 C77,6.6 76.5,7.1 76.3,7.5 L80.4,7.5 L80.4,8.6 L74.8,8.6 C74.8,7.8 75.1,7.1 75.6,6.5 C75.9,6.1 76.5,5.7 77.4,5 C77.9,4.6 78.3,4.3 78.6,4.1 C79,3.7 79.2,3.2 79.2,2.8 C79.2,2.3 79.1,2 78.8,1.8 C78.5,1.6 78.2,1.5 77.7,1.5 C77.2,1.5 76.8,1.7 76.5,2 C76.2,2.3 76.1,2.8 76.1,3.5 L74.9,3.5 C74.9,2.6 75.2,1.9 75.7,1.3 C76.2,0.7 76.9,0.4 77.8,0.4 C78.6,0.3 79.2,0.6 79.7,1 Z" id="XMLID_97_"></path>
                <path d="M83.2,7.2 C83.4,7.4 83.5,7.6 83.5,7.8 C83.5,8 83.4,8.2 83.2,8.4 C83,8.5 82.8,8.6 82.6,8.6 C82.4,8.6 82.2,8.5 82,8.4 C81.8,8.2 81.7,8 81.7,7.8 C81.7,7.5 81.8,7.3 82,7.2 C82.1,7 82.3,7 82.6,7 C82.9,7 83.1,7.1 83.2,7.2 Z" id="XMLID_99_"></path>
                <path d="M89.6,1 C90.1,1.5 90.3,2 90.3,2.8 C90.3,3.5 90,4.1 89.5,4.7 C89.2,5 88.6,5.5 87.8,6 C86.9,6.6 86.4,7.1 86.2,7.5 L90.3,7.5 L90.3,8.6 L84.7,8.6 C84.7,7.8 85,7.1 85.5,6.5 C85.8,6.1 86.4,5.7 87.3,5 C87.8,4.6 88.2,4.3 88.5,4.1 C88.9,3.7 89.1,3.2 89.1,2.8 C89.1,2.3 89,2 88.7,1.8 C88.4,1.6 88.1,1.5 87.6,1.5 C87.1,1.5 86.7,1.7 86.4,2 C86.1,2.3 86,2.8 86,3.5 L84.8,3.5 C84.8,2.6 85.1,1.9 85.6,1.3 C86.1,0.7 86.8,0.4 87.7,0.4 C88.5,0.3 89.1,0.6 89.6,1 Z" id="XMLID_101_"></path>
                <path d="M97.2,2.6 L96,2.6 C95.8,1.8 95.3,1.4 94.5,1.4 C93.9,1.4 93.5,1.7 93.2,2.2 C92.9,2.7 92.7,3.4 92.7,4.2 L92.7,4.3 C92.9,3.9 93.2,3.7 93.6,3.5 C93.9,3.3 94.3,3.2 94.7,3.2 C95.5,3.2 96.1,3.5 96.6,3.9 C97.1,4.4 97.3,5.1 97.3,5.9 C97.3,6.7 97,7.4 96.5,7.9 C96,8.4 95.3,8.7 94.5,8.7 C93.5,8.7 92.8,8.3 92.2,7.6 C91.7,6.9 91.5,5.9 91.5,4.7 C91.5,3.4 91.8,2.3 92.3,1.5 C92.8,0.7 93.6,0.3 94.5,0.3 C96.1,0.3 97,1.1 97.2,2.6 Z M93.3,4.7 C93,5 92.9,5.4 92.9,6 C92.9,6.5 93,6.9 93.4,7.3 C93.7,7.6 94.1,7.8 94.6,7.8 C95.1,7.8 95.5,7.6 95.8,7.3 C96.1,7 96.3,6.5 96.3,6 C96.3,5.5 96.2,5.1 95.9,4.8 C95.6,4.5 95.2,4.3 94.7,4.3 C94,4.3 93.6,4.4 93.3,4.7 Z" id="XMLID_103_"></path>
            </g>
            <g id="XMLID_1_" transform="translate(553.000000, 320.000000)" stroke="#FFFFFF">
                <g id="XMLID_124_">
                    <polyline id="XMLID_132_" points="117.5 62.9 117.5 63.9 116.5 63.9"></polyline>
                    <path d="M114.4,63.9 L2.6,63.9" id="XMLID_131_" stroke-dasharray="2.016,2.016"></path>
                    <polyline id="XMLID_130_" points="1.5 63.9 0.5 63.9 0.5 62.9"></polyline>
                    <path d="M0.5,60.9 L0.5,2.8" id="XMLID_129_" stroke-dasharray="1.9705,1.9705"></path>
                    <polyline id="XMLID_128_" points="0.5 1.8 0.5 0.8 1.5 0.8"></polyline>
                    <path d="M3.6,0.8 L115.4,0.8" id="XMLID_127_" stroke-dasharray="2.016,2.016"></path>
                    <polyline id="XMLID_126_" points="116.5 0.8 117.5 0.8 117.5 1.8"></polyline>
                    <path d="M117.5,3.8 L117.5,61.9" id="XMLID_125_" stroke-dasharray="1.9705,1.9705"></path>
                </g>
            </g>
            <circle id="XMLID_7_" fill="#FFFFFF" fill-rule="nonzero" cx="612.2" cy="357.2" r="3.3"></circle>
            <path d="M469.541016,531.058803 C470.630865,531.058803 471.476559,531.34591 472.078125,531.920131 C472.679691,532.494353 473.013672,533.14669 473.080078,533.877162 L471.943359,533.877162 C471.814452,533.322472 471.557619,532.883023 471.172852,532.558803 C470.788084,532.234583 470.24805,532.072475 469.552734,532.072475 C468.705074,532.072475 468.02051,532.370324 467.499023,532.96603 C466.977536,533.561736 466.716797,534.474813 466.716797,535.705287 C466.716797,536.713105 466.952146,537.53048 467.422852,538.157436 C467.893557,538.784392 468.595698,539.097866 469.529297,539.097866 C470.388676,539.097866 471.042967,538.767791 471.492188,538.107631 C471.73047,537.759973 471.908203,537.302947 472.025391,536.736537 L473.162109,536.736537 C473.060546,537.642792 472.724612,538.40255 472.154297,539.015834 C471.4707,539.754119 470.548834,540.123256 469.388672,540.123256 C468.388667,540.123256 467.548832,539.820525 466.869141,539.215053 C465.974605,538.414268 465.527344,537.177952 465.527344,535.506069 C465.527344,534.236531 465.863278,533.195526 466.535156,532.383022 C467.261722,531.500205 468.263665,531.058803 469.541016,531.058803 Z M474.580078,531.293178 L475.957031,531.293178 L480.304688,538.265834 L480.304688,531.293178 L481.412109,531.293178 L481.412109,539.9006 L480.105469,539.9006 L475.693359,532.933803 L475.693359,539.9006 L474.580078,539.9006 L474.580078,531.293178 Z M482.707031,539.9006 C482.746094,539.17794 482.895507,538.54904 483.155273,538.013881 C483.41504,537.478722 483.921871,536.992399 484.675781,536.554897 L485.800781,535.904506 C486.30469,535.611536 486.658202,535.361539 486.861328,535.154506 C487.181642,534.830286 487.341797,534.459196 487.341797,534.041225 C487.341797,533.552941 487.195314,533.16525 486.902344,532.878139 C486.609374,532.591028 486.218752,532.447475 485.730469,532.447475 C485.007809,532.447475 484.507814,532.72091 484.230469,533.267787 C484.082031,533.560758 484,533.967004 483.984375,534.486537 L482.912109,534.486537 C482.923828,533.756065 483.058592,533.160368 483.316406,532.699428 C483.77344,531.886924 484.580072,531.480678 485.736328,531.480678 C486.69727,531.480678 487.399412,531.740441 487.842773,532.259975 C488.286135,532.779509 488.507812,533.357628 488.507812,533.99435 C488.507812,534.666228 488.271487,535.240441 487.798828,535.717006 C487.525389,535.994351 487.03516,536.330286 486.328125,536.724819 L485.525391,537.170131 C485.142576,537.38107 484.841798,537.58224 484.623047,537.773647 C484.23242,538.113492 483.986329,538.490442 483.884766,538.904506 L488.466797,538.904506 L488.466797,539.9006 L482.707031,539.9006 Z M492.305859,535.0286 L492.305859,541.0526 L491.429859,541.0526 L491.429859,534.9326 C491.033859,536.1566 490.505859,537.2606 489.857859,538.2446 L489.485859,537.2966 C490.361859,536.1206 490.985859,534.7886 491.369859,533.2766 L489.677859,533.2766 L489.677859,532.4486 L491.429859,532.4486 L491.429859,530.1086 L492.305859,530.1086 L492.305859,532.4486 L493.745859,532.4486 L493.745859,533.2766 L492.305859,533.2766 L492.305859,534.0686 C492.833859,534.6566 493.373859,535.3166 493.925859,536.0366 L493.409859,536.7926 C492.977859,536.0726 492.617859,535.4846 492.305859,535.0286 Z M494.837859,531.4166 L493.469859,531.4166 L493.469859,530.5886 L499.097859,530.5886 L499.097859,531.1406 C498.857859,532.2086 498.629859,533.1326 498.389859,533.9006 L499.949859,533.9006 L499.949859,534.3806 C499.697859,536.0246 499.145859,537.4166 498.305859,538.5446 C498.941859,539.2046 499.673859,539.7926 500.513859,540.3206 L499.961859,541.0526 C499.109859,540.5006 498.377859,539.8886 497.753859,539.2046 C497.033859,539.9606 496.157859,540.5846 495.125859,541.0766 L494.645859,540.2846 C495.653859,539.7926 496.493859,539.1926 497.165859,538.4846 C496.445859,537.5246 495.905859,536.4446 495.533859,535.2566 C495.233859,537.7646 494.525859,539.6846 493.409859,541.0166 L492.749859,540.4406 C494.117859,538.8086 494.813859,536.1806 494.837859,532.5806 L494.837859,531.4166 Z M497.693859,537.8486 C498.377859,536.9366 498.845859,535.8686 499.085859,534.6566 L497.357859,534.6566 C497.597859,533.9246 497.873859,532.8446 498.185859,531.4166 L495.689859,531.4166 L495.689859,532.5806 C495.689859,532.7486 495.677859,532.9046 495.677859,533.0606 C495.965859,534.9086 496.637859,536.5046 497.693859,537.8486 Z M505.253859,531.0806 L508.313859,531.0806 L508.313859,530.1086 L509.117859,530.1086 L509.117859,531.0806 L512.129859,531.0806 L512.129859,531.8726 L509.117859,531.8726 L509.117859,532.8926 L511.733859,532.8926 L511.733859,535.9526 L509.117859,535.9526 L509.117859,539.6246 L508.313859,539.6246 L508.313859,536.3006 C507.701859,537.3686 506.753859,538.2806 505.469859,539.0366 L504.929859,538.3526 C506.249859,537.6806 507.185859,536.8766 507.749859,535.9526 L505.697859,535.9526 L505.697859,532.8926 L508.313859,532.8926 L508.313859,531.8726 L505.253859,531.8726 L505.253859,531.0806 Z M510.941859,535.1846 L510.941859,533.6486 L509.117859,533.6486 L509.117859,535.1846 L510.941859,535.1846 Z M508.313859,535.1846 L508.313859,533.6486 L506.501859,533.6486 L506.501859,535.1846 L508.313859,535.1846 Z M510.065859,536.3126 C510.917859,536.9966 511.637859,537.6806 512.225859,538.3766 L511.649859,538.9526 C511.121859,538.2806 510.413859,537.5846 509.501859,536.8406 L510.065859,536.3126 Z M502.517859,530.2886 C503.345859,530.9126 504.041859,531.5366 504.605859,532.1606 L503.993859,532.7606 C503.489859,532.1606 502.805859,531.5246 501.929859,530.8526 L502.517859,530.2886 Z M509.513859,540.8846 C508.853859,540.8846 508.133859,540.8726 507.365859,540.8606 C506.597859,540.8486 505.961859,540.7766 505.481859,540.6446 C505.001859,540.5006 504.581859,540.2006 504.209859,539.7686 C504.041859,539.5646 503.885859,539.4686 503.741859,539.4686 C503.453859,539.4686 502.985859,540.0206 502.337859,541.1246 L501.689859,540.5366 C502.313859,539.5286 502.877859,538.9166 503.357859,538.7006 L503.357859,535.0526 L501.653859,535.0526 L501.653859,534.2606 L504.161859,534.2606 L504.161859,538.7486 C504.257859,538.8206 504.353859,538.9046 504.461859,539.0246 C504.749859,539.3726 505.061859,539.6246 505.397859,539.7806 C505.769859,539.9486 506.309859,540.0446 507.029859,540.0686 C507.665859,540.0806 508.457859,540.0926 509.393859,540.0926 C509.969859,540.0926 510.545859,540.0806 511.133859,540.0686 C511.721859,540.0566 512.177859,540.0446 512.489859,540.0206 L512.273859,540.8846 L509.513859,540.8846 Z M513.737859,533.2526 L518.405859,533.2526 C518.501859,532.5566 518.549859,531.8366 518.561859,531.0806 L518.561859,530.1086 L519.449859,530.1086 L519.449859,530.8886 C519.449859,531.7286 519.389859,532.5086 519.293859,533.2526 L524.273859,533.2526 L524.273859,534.0926 L519.545859,534.0926 C520.385859,536.8046 522.041859,538.8926 524.501859,540.3566 L523.961859,541.0526 C521.549859,539.5646 519.893859,537.4766 518.993859,534.7646 C518.249859,537.6806 516.593859,539.8046 514.037859,541.1366 L513.497859,540.4166 C516.053859,539.1566 517.637859,537.0446 518.261859,534.0926 L513.737859,534.0926 L513.737859,533.2526 Z M529.937859,531.9446 L532.481859,531.9446 L532.481859,530.2406 L533.345859,530.2406 L533.345859,531.9446 L535.973859,531.9446 L535.973859,532.7486 L533.345859,532.7486 L533.345859,534.6566 L536.453859,534.6566 L536.453859,535.4726 L533.345859,535.4726 L533.345859,539.7086 L535.037859,539.7086 L535.037859,536.5766 L535.853859,536.5766 L535.853859,541.0766 L535.037859,541.0766 L535.037859,540.5246 L530.777859,540.5246 L530.777859,541.0646 L529.961859,541.0646 L529.961859,536.5766 L530.777859,536.5766 L530.777859,539.7086 L532.481859,539.7086 L532.481859,535.4726 L529.565859,535.4726 L529.565859,534.6566 L532.481859,534.6566 L532.481859,532.7486 L529.937859,532.7486 L529.937859,531.9446 Z M525.989859,530.6246 L529.325859,530.6246 L529.325859,531.2966 C528.989859,532.3766 528.593859,533.4926 528.137859,534.6566 C528.833859,535.7246 529.217859,536.6966 529.265859,537.5606 C529.265859,538.0886 529.157859,538.4726 528.953859,538.7126 C528.641859,539.0006 528.125859,539.1446 527.381859,539.1566 L527.105859,538.2926 C527.285859,538.3166 527.441859,538.3406 527.561859,538.3406 C527.897859,538.3166 528.125859,538.2446 528.245859,538.1366 C528.353859,538.0166 528.413859,537.8246 528.413859,537.5606 C528.413859,536.7326 528.029859,535.8086 527.285859,534.7886 C527.777859,533.5406 528.173859,532.4246 528.461859,531.4166 L526.829859,531.4166 L526.829859,541.1246 L525.989859,541.1246 L525.989859,530.6246 Z M537.917859,531.1886 L542.549859,531.1886 C542.597859,530.8046 542.645859,530.4326 542.681859,530.0606 L543.557859,530.1806 C543.521859,530.5286 543.485859,530.8646 543.437859,531.1886 L548.093859,531.1886 L548.093859,532.0166 L543.305859,532.0166 C543.245859,532.3646 543.173859,532.7006 543.101859,533.0126 L546.557859,533.0126 L546.557859,540.0206 L548.333859,540.0206 L548.333859,540.8246 L537.689859,540.8246 L537.689859,540.0206 L539.405859,540.0206 L539.405859,533.0126 L542.213859,533.0126 C542.285859,532.6766 542.357859,532.3406 542.417859,532.0166 L537.917859,532.0166 L537.917859,531.1886 Z M540.257859,540.0206 L545.705859,540.0206 L545.705859,538.9646 L540.257859,538.9646 L540.257859,540.0206 Z M540.257859,538.2566 L545.705859,538.2566 L545.705859,537.2366 L540.257859,537.2366 L540.257859,538.2566 Z M540.257859,536.5406 L545.705859,536.5406 L545.705859,535.5326 L540.257859,535.5326 L540.257859,536.5406 Z M540.257859,534.8246 L545.705859,534.8246 L545.705859,533.7806 L540.257859,533.7806 L540.257859,534.8246 Z M554.525859,532.7126 L557.513859,532.7126 C557.969859,531.9086 558.365859,531.0446 558.689859,530.1206 L559.481859,530.4206 C559.121859,531.3326 558.761859,532.0886 558.377859,532.7126 L560.165859,532.7126 L560.165859,533.5286 L557.705859,533.5286 L557.705859,533.8886 C557.705859,534.4886 557.669859,535.0526 557.609859,535.5926 L560.369859,535.5926 L560.369859,536.4206 L557.885859,536.4206 C558.173859,537.7406 559.061859,539.0846 560.549859,540.4526 L559.949859,541.0886 C558.569859,539.7206 557.705859,538.3646 557.357859,537.0326 C556.889859,538.8806 555.965859,540.2486 554.597859,541.1366 L554.081859,540.4526 C555.425859,539.6366 556.289859,538.2926 556.661859,536.4206 L554.345859,536.4206 L554.345859,535.5926 L556.781859,535.5926 C556.829859,535.1126 556.865859,534.6086 556.877859,534.0806 L556.877859,533.5286 L554.525859,533.5286 L554.525859,532.7126 Z M555.713859,530.1926 C556.193859,530.9006 556.565859,531.5246 556.829859,532.0646 L556.181859,532.5086 C555.905859,531.9326 555.533859,531.3086 555.053859,530.6126 L555.713859,530.1926 Z M549.557859,530.5886 L554.333859,530.5886 L554.333859,531.3926 L553.553859,531.3926 L553.553859,537.9806 C553.829859,537.8846 554.093859,537.8006 554.357859,537.7166 L554.357859,538.5566 C554.093859,538.6406 553.817859,538.7246 553.553859,538.7966 L553.553859,541.1606 L552.725859,541.1606 L552.725859,539.0246 C551.765859,539.2646 550.781859,539.4926 549.749859,539.6846 L549.533859,538.8686 L550.289859,538.7486 L550.289859,531.3926 L549.557859,531.3926 L549.557859,530.5886 Z M551.117859,538.5926 C551.669859,538.4726 552.197859,538.3526 552.725859,538.2206 L552.725859,536.4446 L551.117859,536.4446 L551.117859,538.5926 Z M551.117859,535.6526 L552.725859,535.6526 L552.725859,533.9366 L551.117859,533.9366 L551.117859,535.6526 Z M551.117859,533.1566 L552.725859,533.1566 L552.725859,531.3926 L551.117859,531.3926 L551.117859,533.1566 Z M563.237859,538.4726 C563.501859,538.4726 563.729859,538.5806 563.897859,538.8086 C564.053859,539.0246 564.137859,539.3006 564.137859,539.6486 C564.137859,540.1766 563.981859,540.6446 563.669859,541.0526 C563.357859,541.4366 562.937859,541.7006 562.433859,541.8326 L562.433859,541.2446 C562.745859,541.1366 562.997859,540.9566 563.189859,540.7166 C563.369859,540.4646 563.453859,540.2006 563.453859,539.9126 C563.405859,539.9366 563.309859,539.9606 563.189859,539.9606 C562.985859,539.9606 562.817859,539.8886 562.673859,539.7446 C562.529859,539.6006 562.457859,539.4206 562.457859,539.2166 C562.457859,538.9886 562.529859,538.8086 562.673859,538.6766 C562.817859,538.5326 562.997859,538.4726 563.237859,538.4726 Z M577.154297,534.93185 C577.646487,534.93185 578.029296,534.863491 578.302734,534.726772 C578.732424,534.511927 578.947266,534.125212 578.947266,533.566616 C578.947266,533.004113 578.718752,532.62521 578.261719,532.429897 C578.003905,532.320521 577.621096,532.265834 577.113281,532.265834 L575.033203,532.265834 L575.033203,534.93185 L577.154297,534.93185 Z M577.546875,538.904506 C578.261722,538.904506 578.771483,538.697477 579.076172,538.283412 C579.267579,538.021692 579.363281,537.705289 579.363281,537.334194 C579.363281,536.709191 579.083987,536.283414 578.525391,536.05685 C578.228514,535.935756 577.83594,535.875209 577.347656,535.875209 L575.033203,535.875209 L575.033203,538.904506 L577.546875,538.904506 Z M573.890625,531.293178 L577.587891,531.293178 C578.595708,531.293178 579.312498,531.593956 579.738281,532.195522 C579.988282,532.550992 580.113281,532.961145 580.113281,533.425991 C580.113281,533.968962 579.958986,534.41427 579.650391,534.761928 C579.490234,534.945523 579.259767,535.11349 578.958984,535.265834 C579.400393,535.433804 579.730468,535.623255 579.949219,535.834194 C580.335939,536.209196 580.529297,536.726769 580.529297,537.386928 C580.529297,537.941618 580.35547,538.443567 580.007812,538.892787 C579.488279,539.564666 578.662115,539.9006 577.529297,539.9006 L573.890625,539.9006 L573.890625,531.293178 Z M585.644531,531.070522 C586.453129,531.070522 587.152341,531.22677 587.742188,531.539272 C588.597661,531.988493 589.121093,532.775594 589.3125,533.9006 L588.158203,533.9006 C588.017577,533.271691 587.726565,532.813687 587.285156,532.526577 C586.843748,532.239466 586.287113,532.095912 585.615234,532.095912 C584.818355,532.095912 584.147464,532.394738 583.602539,532.992397 C583.057614,533.590056 582.785156,534.480672 582.785156,535.664272 C582.785156,536.687714 583.009763,537.520714 583.458984,538.163295 C583.908205,538.805877 584.64062,539.127162 585.65625,539.127162 C586.433598,539.127162 587.077146,538.901579 587.586914,538.450405 C588.096682,537.999231 588.357422,537.269746 588.369141,536.261928 L585.673828,536.261928 L585.673828,535.295131 L589.453125,535.295131 L589.453125,539.9006 L588.703125,539.9006 L588.421875,538.793178 C588.027342,539.226774 587.677736,539.527552 587.373047,539.695522 C586.861326,539.984586 586.210941,540.129116 585.421875,540.129116 C584.402339,540.129116 583.525394,539.799041 582.791016,539.138881 C581.99023,538.310752 581.589844,537.174045 581.589844,535.728725 C581.589844,534.287312 581.980465,533.140839 582.761719,532.289272 C583.50391,531.476768 584.464838,531.070522 585.644531,531.070522 Z M591.369141,531.293178 L595.242188,531.293178 C596.007816,531.293178 596.624998,531.508996 597.09375,531.940639 C597.562502,532.372282 597.796875,532.978721 597.796875,533.759975 C597.796875,534.431853 597.587893,535.016808 597.169922,535.514858 C596.751951,536.012907 596.109379,536.261928 595.242188,536.261928 L592.535156,536.261928 L592.535156,539.9006 L591.369141,539.9006 L591.369141,531.293178 Z M596.619141,533.765834 C596.619141,533.133019 596.384768,532.703336 595.916016,532.476772 C595.658202,532.355678 595.30469,532.295131 594.855469,532.295131 L592.535156,532.295131 L592.535156,535.277553 L594.855469,535.277553 C595.378909,535.277553 595.803709,535.166226 596.129883,534.943569 C596.456056,534.720911 596.619141,534.328337 596.619141,533.765834 Z M601.371656,532.5566 L607.311656,532.5566 L607.311656,533.3366 L604.791656,533.3366 L604.791656,535.0646 L606.939656,535.0646 L606.939656,535.8326 L604.791656,535.8326 L604.791656,537.7406 L607.659656,537.7406 L607.659656,538.5326 L601.047656,538.5326 L601.047656,537.7406 L603.903656,537.7406 L603.903656,535.8326 L601.755656,535.8326 L601.755656,535.0646 L603.903656,535.0646 L603.903656,533.3366 L601.371656,533.3366 L601.371656,532.5566 Z M609.279656,530.6486 L609.279656,541.0766 L608.403656,541.0766 L608.403656,540.5606 L600.291656,540.5606 L600.291656,541.0766 L599.415656,541.0766 L599.415656,530.6486 L609.279656,530.6486 Z M600.291656,539.7446 L608.403656,539.7446 L608.403656,531.4646 L600.291656,531.4646 L600.291656,539.7446 Z M606.207656,536.0846 C606.507656,536.4926 606.771656,536.9366 606.987656,537.4046 L606.315656,537.7166 C606.075656,537.1766 605.811656,536.7086 605.523656,536.3126 L606.207656,536.0846 Z M616.287656,535.5686 L617.079656,535.7366 C616.683656,537.4166 616.119656,538.8686 615.399656,540.0926 L614.679656,539.6366 C615.423656,538.4126 615.951656,537.0566 616.287656,535.5686 Z M620.463656,535.4126 C620.991656,536.7686 621.459656,538.2206 621.843656,539.7566 L621.075656,540.1046 C620.667656,538.4246 620.211656,536.9486 619.707656,535.6646 L620.463656,535.4126 Z M617.823656,541.0406 L616.635656,541.0406 L616.467656,540.2246 C616.827656,540.2606 617.187656,540.2846 617.535656,540.2846 C617.847656,540.2846 618.015656,540.1046 618.015656,539.7446 L618.015656,534.5366 L615.039656,534.5366 L615.039656,533.6966 L621.819656,533.6966 L621.819656,534.5366 L618.879656,534.5366 L618.879656,539.9606 C618.879656,540.6806 618.519656,541.0406 617.823656,541.0406 Z M615.771656,530.8166 L621.195656,530.8166 L621.195656,531.6446 L615.771656,531.6446 L615.771656,530.8166 Z M611.367656,530.6006 L614.967656,530.6006 L614.967656,531.2846 C614.607656,532.3646 614.175656,533.4806 613.683656,534.6446 C614.367656,535.7006 614.739656,536.6486 614.787656,537.5006 C614.787656,538.0286 614.667656,538.4006 614.439656,538.6406 C614.127656,538.9286 613.575656,539.0726 612.795656,539.0846 L612.519656,538.2446 C612.699656,538.2686 612.855656,538.2926 612.975656,538.2926 C613.359656,538.2686 613.623656,538.1966 613.743656,538.0766 C613.875656,537.9686 613.947656,537.7766 613.947656,537.5006 C613.947656,536.6846 613.575656,535.7846 612.831656,534.7766 C613.383656,533.5286 613.815656,532.4126 614.127656,531.4166 L612.207656,531.4166 L612.207656,541.1126 L611.367656,541.1126 L611.367656,530.6006 Z M628.299656,530.0606 L629.067656,530.4686 C628.851656,530.7086 628.623656,530.9366 628.383656,531.1526 L631.827656,531.1526 L631.827656,531.8366 C630.531656,534.1406 628.119656,535.4366 624.615656,535.7126 L624.243656,534.9326 C625.323656,534.8606 626.283656,534.7046 627.147656,534.4526 C626.775656,533.9966 626.379656,533.5766 625.971656,533.2046 L626.727656,532.8446 C627.159656,533.2526 627.567656,533.6846 627.951656,534.1646 C629.199656,533.6606 630.171656,532.9046 630.843656,531.9206 L627.339656,531.9206 C626.403656,532.4726 625.299656,532.8926 624.015656,533.1806 L623.511656,532.3886 C625.647656,531.9806 627.243656,531.2126 628.299656,530.0606 Z M627.843656,537.5606 C628.299656,538.0286 628.743656,538.5326 629.151656,539.0726 C630.483656,538.4966 631.527656,537.6686 632.295656,536.6126 L628.743656,536.6126 C627.687656,537.1166 626.439656,537.5006 624.987656,537.7526 L624.471656,536.9846 C627.087656,536.7206 629.019656,535.9166 630.267656,534.5966 L631.011656,535.0046 C630.723656,535.2926 630.423656,535.5686 630.087656,535.8206 L633.375656,535.8206 L633.375656,536.5046 C631.671656,539.3366 628.503656,540.8006 623.847656,540.9086 L623.499656,540.0806 C625.371656,540.0686 626.991656,539.8406 628.347656,539.3846 C627.939656,538.8446 627.519656,538.3526 627.075656,537.9206 L627.843656,537.5606 Z M639.123656,538.7126 L639.123656,539.5406 C637.947656,539.9966 636.603656,540.3686 635.091656,540.6446 L634.983656,539.8046 C636.567656,539.5406 637.947656,539.1686 639.123656,538.7126 Z M636.987656,530.0366 L637.815656,530.3606 C637.203656,531.9206 636.579656,533.1686 635.955656,534.1046 C636.495656,534.0566 637.035656,533.9846 637.575656,533.9006 C637.791656,533.4686 638.031656,533.0126 638.271656,532.5326 L639.039656,532.8206 C637.983656,534.8486 637.095656,536.2886 636.399656,537.1406 C637.263656,536.9726 638.127656,536.7446 638.991656,536.4566 L638.991656,537.2366 C637.731656,537.6446 636.531656,537.9326 635.379656,538.0886 L635.139656,537.2966 C635.295656,537.2246 635.427656,537.1406 635.535656,537.0446 C635.979656,536.5886 636.519656,535.7966 637.143656,534.6806 C636.483656,534.7766 635.811656,534.8606 635.139656,534.9446 L634.935656,534.1526 C635.067656,534.1046 635.187656,533.9966 635.295656,533.8406 C635.943656,532.7366 636.507656,531.4646 636.987656,530.0366 Z M644.943656,532.2206 L645.063656,533.0126 L641.979656,533.4446 C642.003656,534.0206 642.039656,534.5606 642.087656,535.0766 L645.267656,534.5726 L645.399656,535.3886 L642.183656,535.8926 C642.207656,536.1086 642.243656,536.3246 642.279656,536.5166 C642.399656,537.1406 642.543656,537.6806 642.711656,538.1606 C643.359656,537.5606 643.935656,536.8886 644.439656,536.1206 L645.123656,536.5886 C644.487656,537.5126 643.803656,538.3046 643.059656,538.9526 C643.107656,539.0246 643.143656,539.1086 643.191656,539.1806 C643.587656,539.7686 643.935656,540.0686 644.247656,540.0686 C644.559656,540.0686 644.835656,539.4206 645.051656,538.1366 L645.783656,538.6166 C645.447656,540.2006 644.967656,541.0046 644.343656,541.0046 C643.767656,540.9806 643.227656,540.6206 642.711656,539.9006 C642.603656,539.7566 642.507656,539.6126 642.435656,539.4566 C641.547656,540.1166 640.587656,540.6086 639.567656,540.9206 L639.063656,540.2246 C640.167656,539.8646 641.163656,539.3606 642.051656,538.7006 C641.823656,538.1726 641.643656,537.5966 641.499656,536.9486 C641.427656,536.6366 641.379656,536.3366 641.331656,536.0246 L639.171656,536.3726 L639.051656,535.5566 L641.223656,535.2086 C641.163656,534.6926 641.127656,534.1406 641.115656,533.5646 L639.387656,533.8166 L639.255656,533.0246 L641.091656,532.7606 L641.091656,530.0966 L641.955656,530.0966 L641.955656,532.6406 L644.943656,532.2206 Z M643.299656,530.0606 C643.911656,530.6366 644.379656,531.1286 644.715656,531.5486 L644.043656,532.0166 C643.707656,531.5486 643.227656,531.0326 642.627656,530.4806 L643.299656,530.0606 Z M648.579656,538.4726 C648.843656,538.4726 649.071656,538.5806 649.239656,538.8086 C649.395656,539.0246 649.479656,539.3006 649.479656,539.6486 C649.479656,540.1766 649.323656,540.6446 649.011656,541.0526 C648.699656,541.4366 648.279656,541.7006 647.775656,541.8326 L647.775656,541.2446 C648.087656,541.1366 648.339656,540.9566 648.531656,540.7166 C648.711656,540.4646 648.795656,540.2006 648.795656,539.9126 C648.747656,539.9366 648.651656,539.9606 648.531656,539.9606 C648.327656,539.9606 648.159656,539.8886 648.015656,539.7446 C647.871656,539.6006 647.799656,539.4206 647.799656,539.2166 C647.799656,538.9886 647.871656,538.8086 648.015656,538.6766 C648.159656,538.5326 648.339656,538.4726 648.579656,538.4726 Z M662.888672,531.058803 C663.978521,531.058803 664.824216,531.34591 665.425781,531.920131 C666.027347,532.494353 666.361328,533.14669 666.427734,533.877162 L665.291016,533.877162 C665.162109,533.322472 664.905275,532.883023 664.520508,532.558803 C664.13574,532.234583 663.595707,532.072475 662.900391,532.072475 C662.05273,532.072475 661.368167,532.370324 660.84668,532.96603 C660.325193,533.561736 660.064453,534.474813 660.064453,535.705287 C660.064453,536.713105 660.299802,537.53048 660.770508,538.157436 C661.241213,538.784392 661.943355,539.097866 662.876953,539.097866 C663.736332,539.097866 664.390623,538.767791 664.839844,538.107631 C665.078126,537.759973 665.255859,537.302947 665.373047,536.736537 L666.509766,536.736537 C666.408203,537.642792 666.072268,538.40255 665.501953,539.015834 C664.818356,539.754119 663.89649,540.123256 662.736328,540.123256 C661.736323,540.123256 660.896488,539.820525 660.216797,539.215053 C659.322261,538.414268 658.875,537.177952 658.875,535.506069 C658.875,534.236531 659.210934,533.195526 659.882812,532.383022 C660.609379,531.500205 661.611322,531.058803 662.888672,531.058803 Z M667.787109,533.654506 L668.859375,533.654506 L668.859375,539.9006 L667.787109,539.9006 L667.787109,533.654506 Z M667.787109,531.293178 L668.859375,531.293178 L668.859375,532.488491 L667.787109,532.488491 L667.787109,531.293178 Z M671.080078,537.93185 C671.111328,538.283414 671.199218,538.552943 671.34375,538.740444 C671.609376,539.080289 672.070309,539.250209 672.726562,539.250209 C673.117189,539.250209 673.460936,539.165249 673.757812,538.995327 C674.054689,538.825404 674.203125,538.562711 674.203125,538.207241 C674.203125,537.937708 674.083986,537.732632 673.845703,537.592006 C673.693359,537.506068 673.39258,537.40646 672.943359,537.293178 L672.105469,537.082241 C671.57031,536.949427 671.175783,536.800991 670.921875,536.636928 C670.468748,536.35177 670.242188,535.957243 670.242188,535.453334 C670.242188,534.859581 670.456053,534.379117 670.883789,534.011928 C671.311526,533.644739 671.886715,533.461147 672.609375,533.461147 C673.554692,533.461147 674.236326,533.738488 674.654297,534.293178 C674.916017,534.644742 675.042969,535.023645 675.035156,535.429897 L674.039062,535.429897 C674.019531,535.191614 673.935548,534.97482 673.787109,534.779506 C673.544921,534.502161 673.125003,534.363491 672.527344,534.363491 C672.128904,534.363491 671.827149,534.439662 671.62207,534.592006 C671.416991,534.744351 671.314453,534.945521 671.314453,535.195522 C671.314453,535.468961 671.449217,535.687709 671.71875,535.851772 C671.875001,535.949429 672.105467,536.035365 672.410156,536.109584 L673.107422,536.279506 C673.865238,536.463101 674.373046,536.640834 674.630859,536.812709 C675.041018,537.082242 675.246094,537.506066 675.246094,538.084194 C675.246094,538.64279 675.034182,539.125207 674.610352,539.531459 C674.186521,539.937711 673.54102,540.140834 672.673828,540.140834 C671.74023,540.140834 671.079104,539.928922 670.69043,539.505092 C670.301756,539.081262 670.09375,538.556853 670.066406,537.93185 L671.080078,537.93185 Z M678.873047,533.443569 C679.580082,533.443569 680.155271,533.615442 680.598633,533.959194 C681.041994,534.302945 681.308593,534.894736 681.398438,535.734584 L680.373047,535.734584 C680.310547,535.347864 680.16797,535.026578 679.945312,534.770717 C679.722655,534.514857 679.365237,534.386928 678.873047,534.386928 C678.201169,534.386928 677.720705,534.71505 677.431641,535.371303 C677.24414,535.797087 677.150391,536.322472 677.150391,536.947475 C677.150391,537.576384 677.283202,538.105676 677.548828,538.535366 C677.814454,538.965055 678.232419,539.179897 678.802734,539.179897 C679.240237,539.179897 679.586913,539.046109 679.842773,538.77853 C680.098634,538.51095 680.27539,538.144743 680.373047,537.679897 L681.398438,537.679897 C681.281249,538.511932 680.988284,539.120325 680.519531,539.505092 C680.050779,539.88986 679.451176,540.082241 678.720703,540.082241 C677.900387,540.082241 677.246096,539.782439 676.757812,539.182827 C676.269529,538.583214 676.025391,537.834198 676.025391,536.935756 C676.025391,535.834188 676.292966,534.976775 676.828125,534.363491 C677.363284,533.750206 678.044918,533.443569 678.873047,533.443569 Z M684.943359,539.220912 C685.642582,539.220912 686.122069,538.956267 686.381836,538.426967 C686.641603,537.897668 686.771484,537.308806 686.771484,536.660366 C686.771484,536.074425 686.677735,535.597867 686.490234,535.230678 C686.193358,534.65255 685.681644,534.363491 684.955078,534.363491 C684.310544,534.363491 683.841798,534.609582 683.548828,535.101772 C683.255858,535.593962 683.109375,536.187706 683.109375,536.883022 C683.109375,537.550994 683.255858,538.107629 683.548828,538.552944 C683.841798,538.998258 684.306637,539.220912 684.943359,539.220912 Z M684.984375,533.443569 C685.792973,533.443569 686.47656,533.713097 687.035156,534.252162 C687.593753,534.791228 687.873047,535.584189 687.873047,536.631069 C687.873047,537.642793 687.626956,538.478722 687.134766,539.138881 C686.642576,539.799041 685.878911,540.129116 684.84375,540.129116 C683.980464,540.129116 683.294924,539.837126 682.787109,539.253139 C682.279294,538.669152 682.025391,537.88498 682.025391,536.9006 C682.025391,535.845907 682.292966,535.006072 682.828125,534.381069 C683.363284,533.756066 684.082027,533.443569 684.984375,533.443569 Z M689.829516,531.0086 L698.901516,531.0086 L698.901516,531.8486 L689.829516,531.8486 L689.829516,531.0086 Z M690.633516,535.1606 L698.085516,535.1606 L698.085516,536.0006 L690.633516,536.0006 L690.633516,535.1606 Z M688.941516,539.6006 L699.765516,539.6006 L699.765516,540.4646 L688.941516,540.4646 L688.941516,539.6006 Z M704.241516,534.6926 L710.757516,534.6926 L710.757516,535.4606 L704.241516,535.4606 L704.241516,534.6926 Z M703.401516,536.6486 L711.537516,536.6486 L711.537516,537.4406 L706.941516,537.4406 C706.197516,538.6166 705.561516,539.4566 705.009516,539.9726 C706.581516,539.8526 708.141516,539.6846 709.677516,539.4566 C709.353516,539.0606 709.005516,538.6646 708.645516,538.2566 L709.281516,537.8606 C710.265516,538.9046 711.033516,539.8166 711.561516,540.5846 L710.865516,541.0766 C710.673516,540.7646 710.457516,540.4526 710.217516,540.1406 C708.309516,540.4046 706.221516,540.6086 703.965516,540.7526 L703.773516,540.0206 C703.845516,539.9966 703.905516,539.9606 703.953516,539.9366 C704.481516,539.6246 705.177516,538.7966 706.017516,537.4406 L703.401516,537.4406 L703.401516,536.6486 Z M710.073516,531.3806 L703.029516,531.3806 L703.029516,532.7726 L710.073516,532.7726 L710.073516,531.3806 Z M703.029516,533.5526 L703.029516,534.5486 C703.017516,537.0566 702.525516,539.2166 701.541516,541.0166 L700.917516,540.4526 C701.745516,538.9286 702.165516,536.9606 702.177516,534.5486 L702.177516,530.5766 L710.913516,530.5766 L710.913516,533.5526 L703.029516,533.5526 Z M718.005516,538.3766 C717.621516,537.7646 717.237516,537.1886 716.865516,536.6486 C716.433516,537.8246 715.905516,538.8326 715.293516,539.6726 L714.741516,539.0006 C715.365516,538.1126 715.881516,537.0566 716.289516,535.8446 C715.713516,535.0766 715.149516,534.3806 714.597516,533.7446 L715.137516,533.2286 C715.581516,533.6966 716.061516,534.2606 716.565516,534.9326 C716.793516,534.0926 716.985516,533.1806 717.129516,532.2206 L717.921516,532.3646 C717.729516,533.6006 717.477516,534.7286 717.165516,535.7486 C717.621516,536.3726 718.101516,537.0566 718.581516,537.8006 L718.005516,538.3766 Z M721.521516,538.9286 C721.113516,538.2206 720.705516,537.5606 720.309516,536.9366 C719.829516,538.1126 719.265516,539.1206 718.617516,539.9606 L718.065516,539.3006 C718.737516,538.3886 719.301516,537.3206 719.745516,536.0966 C719.193516,535.2806 718.653516,534.5366 718.101516,533.8646 L718.641516,533.3486 C719.073516,533.8406 719.553516,534.4406 720.057516,535.1606 C720.321516,534.2606 720.525516,533.2886 720.693516,532.2566 L721.509516,532.4006 C721.293516,533.7326 721.005516,534.9326 720.645516,536.0126 C721.101516,536.7086 721.593516,537.4886 722.109516,538.3526 L721.521516,538.9286 Z M722.073516,541.0286 L720.861516,541.0286 L720.633516,540.1886 L721.785516,540.2246 C722.121516,540.2246 722.289516,540.0566 722.289516,539.7326 L722.289516,531.4166 L714.417516,531.4166 L714.417516,541.0766 L713.565516,541.0766 L713.565516,530.5886 L723.141516,530.5886 L723.141516,539.9246 C723.141516,540.6566 722.781516,541.0286 722.073516,541.0286 Z M729.189516,538.7126 L729.189516,539.5286 C728.013516,539.9846 726.681516,540.3446 725.169516,540.6326 L725.061516,539.7806 C726.633516,539.5166 728.013516,539.1566 729.189516,538.7126 Z M727.041516,530.0726 L727.845516,530.3846 C727.245516,531.9326 726.645516,533.1686 726.045516,534.0806 C726.561516,534.0086 727.077516,533.9246 727.605516,533.8286 C727.809516,533.4206 728.025516,532.9886 728.241516,532.5446 L728.985516,532.8206 C727.953516,534.8486 727.101516,536.2886 726.429516,537.1526 C727.269516,536.9726 728.109516,536.7326 728.961516,536.4206 L728.961516,537.2006 C727.725516,537.6326 726.549516,537.9326 725.421516,538.0886 L725.193516,537.3086 C725.349516,537.2366 725.481516,537.1526 725.577516,537.0566 C726.009516,536.5766 726.549516,535.7726 727.185516,534.6206 C726.537516,534.7406 725.889516,534.8486 725.229516,534.9446 L725.013516,534.1526 C725.145516,534.0926 725.265516,533.9846 725.373516,533.8286 C726.009516,532.7366 726.561516,531.4886 727.041516,530.0726 Z M734.841516,536.6006 L734.841516,541.0286 L734.013516,541.0286 L734.013516,540.5126 L730.737516,540.5126 L730.737516,541.0286 L729.909516,541.0286 L729.909516,536.6006 L734.841516,536.6006 Z M730.737516,539.7206 L734.013516,539.7206 L734.013516,537.3926 L730.737516,537.3926 L730.737516,539.7206 Z M731.097516,530.0726 L731.925516,530.2286 C731.829516,530.5646 731.709516,530.8766 731.589516,531.1766 L734.841516,531.1766 L734.841516,531.8006 C734.397516,532.7966 733.761516,533.6726 732.933516,534.4286 C733.773516,535.0406 734.793516,535.5206 735.969516,535.8566 L735.477516,536.5646 C734.217516,536.1806 733.161516,535.6526 732.297516,534.9566 C731.433516,535.6046 730.401516,536.1686 729.225516,536.6246 L728.697516,535.9286 C729.849516,535.4966 730.845516,534.9926 731.673516,534.3926 C731.217516,533.9366 730.833516,533.4326 730.509516,532.9046 C730.185516,533.2886 729.825516,533.6486 729.429516,533.9726 L728.925516,533.3006 C729.993516,532.4246 730.713516,531.3446 731.097516,530.0726 Z M730.977516,532.2926 C731.337516,532.8926 731.769516,533.4326 732.285516,533.9006 C732.969516,533.3126 733.509516,532.6646 733.905516,531.9446 L731.193516,531.9446 C731.121516,532.0646 731.049516,532.1846 730.977516,532.2926 Z M738.285516,530.3246 C739.041516,530.9246 739.677516,531.5126 740.193516,532.1006 L739.605516,532.7006 C739.137516,532.1246 738.501516,531.5246 737.685516,530.8886 L738.285516,530.3246 Z M736.893516,533.7926 L739.401516,533.7926 L739.401516,539.1206 C739.833516,538.7606 740.301516,538.3526 740.793516,537.8846 L741.033516,538.7966 C740.277516,539.5046 739.473516,540.1286 738.633516,540.6806 L738.297516,539.9126 C738.465516,539.7446 738.561516,539.5646 738.561516,539.3726 L738.561516,534.6206 L736.893516,534.6206 L736.893516,533.7926 Z M741.153516,535.1966 L746.865516,535.1966 L746.865516,535.9886 C746.481516,537.1166 745.857516,538.0886 744.981516,538.9046 C745.797516,539.4686 746.793516,539.9606 747.969516,540.3926 L747.501516,541.1366 C746.253516,540.6326 745.197516,540.0686 744.357516,539.4206 C743.397516,540.1406 742.209516,540.7046 740.805516,541.1366 L740.325516,540.4046 C741.657516,540.0086 742.773516,539.4926 743.673516,538.8566 C742.761516,538.0166 742.149516,537.0806 741.813516,536.0366 L741.153516,536.0366 L741.153516,535.1966 Z M742.629516,536.0366 C742.941516,536.9006 743.493516,537.6806 744.285516,538.3646 C745.053516,537.6926 745.629516,536.9246 746.013516,536.0366 L742.629516,536.0366 Z M742.077516,530.5646 L746.109516,530.5646 L746.109516,533.1566 C746.109516,533.4566 746.265516,533.6126 746.577516,533.6126 L747.681516,533.6126 L747.681516,534.4046 L746.361516,534.4046 C745.617516,534.4046 745.257516,534.0446 745.257516,533.3366 L745.257516,531.3806 L742.929516,531.3806 L742.929516,531.8006 C742.929516,533.0726 742.305516,534.0566 741.081516,534.7526 L740.505516,534.0926 C741.549516,533.5766 742.077516,532.8446 742.077516,531.8966 L742.077516,530.5646 Z M752.649516,533.6966 L755.901516,533.6966 L755.901516,530.0846 L756.789516,530.0846 L756.789516,533.6966 L759.873516,533.6966 L759.873516,534.5606 L756.789516,534.5606 L756.789516,541.1246 L755.901516,541.1246 L755.901516,534.5606 L752.649516,534.5606 L752.649516,533.6966 Z M750.297516,530.2166 C751.113516,530.8286 751.797516,531.4406 752.349516,532.0646 L751.761516,532.6646 C751.257516,532.0766 750.561516,531.4526 749.697516,530.8046 L750.297516,530.2166 Z M748.893516,533.7686 L751.485516,533.7686 L751.485516,539.1086 C751.917516,538.7486 752.397516,538.3406 752.901516,537.8606 L753.117516,538.7486 C752.373516,539.4686 751.569516,540.1046 750.717516,540.6686 L750.381516,539.8886 C750.561516,539.7446 750.657516,539.5766 750.657516,539.3846 L750.657516,534.5966 L748.893516,534.5966 L748.893516,533.7686 Z" id="CN2极速大陆直联，BGP国际多线，Cisco三层网络设计" fill="#000000"></path>
            <path d="M509.9306,406.5934 L509.9306,410.2114 L514.5566,410.2114 C512.4866,409.2034 510.9386,407.9974 509.9306,406.5934 Z M514.6106,410.2294 L514.6106,418.0774 L513.3506,418.0774 L513.3506,417.1054 L505.3766,417.1054 L505.3766,418.0774 L504.1166,418.0774 L504.1166,410.2114 L508.6706,410.2114 L508.6706,406.5754 C507.4466,408.3394 505.1606,409.8514 501.8126,411.1474 L501.0926,409.9954 C504.1886,408.9694 506.3126,407.8174 507.4646,406.5214 L501.5066,406.5214 L501.5066,405.2974 L508.6706,405.2974 L508.6706,403.5874 C506.9426,403.6954 505.0886,403.7494 503.0906,403.7494 L502.7126,402.6154 C507.6626,402.5974 511.7666,402.2554 515.0426,401.6074 L515.6546,402.6514 C514.0166,403.0294 512.1086,403.3174 509.9306,403.4974 L509.9306,405.2974 L516.9326,405.2974 L516.9326,406.5214 L511.1726,406.5214 C512.4866,407.9794 514.5386,409.1314 517.3286,409.9594 L516.7706,411.1474 C515.9786,410.8594 515.2586,410.5534 514.6106,410.2294 Z M505.3766,415.9534 L513.3506,415.9534 L513.3506,414.2614 L505.3766,414.2614 L505.3766,415.9534 Z M505.3766,413.1454 L513.3506,413.1454 L513.3506,411.3634 L505.3766,411.3634 L505.3766,413.1454 Z M524.4926,403.5514 L526.6166,403.5514 L526.6166,401.6434 L527.8766,401.6434 L527.8766,403.5514 L530.9006,403.5514 L530.9006,401.6434 L532.1606,401.6434 L532.1606,403.5514 L534.4466,403.5514 L534.4466,404.7214 L532.1606,404.7214 L532.1606,406.8634 L535.0226,406.8634 L535.0226,408.0514 L532.0706,408.0514 C532.8086,409.2934 533.9786,410.2834 535.5806,411.0034 L535.0406,412.1194 C534.0506,411.5974 533.2226,411.0034 532.5566,410.3554 L532.5566,414.1174 L527.0666,414.1174 L527.0666,415.8454 C527.0666,416.3134 527.3186,416.5474 527.8586,416.5654 L532.7006,416.5654 C533.0606,416.5474 533.2946,416.4034 533.4386,416.1334 C533.5466,415.8994 533.6546,415.3594 533.7266,414.4954 L534.9506,414.8914 C534.8606,415.7914 534.7346,416.4394 534.5906,416.8354 C534.3386,417.4294 533.8346,417.7354 533.0786,417.7534 L527.3906,417.7534 C526.3106,417.7534 525.7886,417.2674 525.7886,416.2954 L525.7886,410.9494 C525.1586,411.5254 524.4566,412.0474 523.6826,412.5334 L523.0166,411.4354 C524.7806,410.4454 525.9866,409.3114 526.6346,408.0514 L523.7906,408.0514 L523.7906,406.8634 L526.6166,406.8634 L526.6166,404.7214 L524.4926,404.7214 L524.4926,403.5514 Z M526.6526,410.0314 L532.2326,410.0314 C531.6566,409.4194 531.1886,408.7534 530.8286,408.0514 L527.8406,408.0514 C527.5526,408.7534 527.1566,409.4194 526.6526,410.0314 Z M527.8766,406.8634 L530.9006,406.8634 L530.9006,404.7214 L527.8766,404.7214 L527.8766,406.8634 Z M527.0666,413.0014 L531.3506,413.0014 L531.3506,411.1294 L527.0666,411.1294 L527.0666,413.0014 Z M520.4066,401.9494 C521.6666,402.8494 522.7286,403.7674 523.5926,404.6674 L522.6746,405.5674 C521.9006,404.7034 520.8386,403.8034 519.4886,402.8314 L520.4066,401.9494 Z M520.0466,406.3954 C521.2346,407.2594 522.2426,408.1054 523.0346,408.9694 L522.1346,409.8874 C521.4146,409.0594 520.4066,408.1954 519.1466,407.2774 L520.0466,406.3954 Z M521.8286,411.6694 L522.9986,412.1374 C522.2786,414.2614 521.4866,416.2414 520.6046,418.0774 L519.3086,417.5194 C520.2806,415.6114 521.1086,413.6674 521.8286,411.6694 Z M539.5046,407.7454 L539.5046,410.7514 L542.4026,410.7514 L542.4026,407.7454 L539.5046,407.7454 Z M542.4026,406.5754 L542.4026,403.5334 L539.5046,403.5334 L539.5046,406.5754 L542.4026,406.5754 Z M539.4866,411.9214 C539.3786,414.4414 538.9466,416.5114 538.2086,418.1314 L537.2366,417.2314 C537.9566,415.6114 538.3166,413.5234 538.3346,411.0034 L538.3346,402.3634 L543.5906,402.3634 L543.5906,416.4034 C543.5906,417.4834 543.0866,418.0414 542.0786,418.0414 L540.6386,418.0414 L540.3326,416.8894 C540.8366,416.9254 541.2866,416.9614 541.7186,416.9614 C542.1686,416.9614 542.4026,416.6374 542.4026,415.9894 L542.4026,411.9214 L539.4866,411.9214 Z M546.3266,410.1394 L546.3266,418.1134 L545.1026,418.1134 L545.1026,402.3454 L552.3926,402.3454 C552.3926,404.5774 552.2846,406.0534 552.0686,406.7734 C551.8526,407.5114 551.1866,407.8894 550.0526,407.8894 L548.5946,407.8894 L548.2526,406.7734 C548.5586,406.7734 548.9546,406.7914 549.4586,406.7914 C549.8906,406.7914 550.1966,406.7554 550.4126,406.7014 C550.6286,406.6294 550.7906,406.4494 550.8986,406.1794 C551.0246,405.7834 551.0966,404.9014 551.1326,403.5334 L546.3266,403.5334 L546.3266,408.9874 L552.4466,408.9874 L552.4466,410.0854 C552.1046,411.9394 551.5106,413.5234 550.6826,414.8194 C551.4926,415.6114 552.4466,416.3134 553.5446,416.9434 L552.8966,418.0414 C551.7446,417.3754 550.7726,416.6374 549.9446,415.8274 C549.1526,416.7454 548.2346,417.4834 547.1546,418.0594 L546.4706,417.0154 C547.4966,416.4574 548.3606,415.7554 549.0806,414.8914 C547.9286,413.4874 547.1546,411.9034 546.7586,410.1394 L546.3266,410.1394 Z M547.8746,410.1394 C548.2526,411.5254 548.9006,412.7674 549.8186,413.8834 C550.4846,412.8034 550.9706,411.5614 551.2946,410.1394 L547.8746,410.1394 Z M560.4206,401.5354 L561.7346,401.7154 C561.5366,402.2014 561.3026,402.6514 561.0506,403.0834 L568.8986,403.0834 L568.8986,404.1274 C567.7466,405.4594 566.3426,406.5934 564.6866,407.5294 C566.7206,408.3934 568.9886,408.9514 571.4906,409.2034 L570.8966,410.4094 C568.0526,410.0854 565.5146,409.3654 563.2826,408.2494 C561.0866,409.2574 558.5126,409.9954 555.5966,410.4454 L555.0026,409.2214 C557.6126,408.8614 559.8986,408.2854 561.8786,407.4934 C560.8706,406.8994 559.9346,406.2154 559.0706,405.4594 C558.3866,406.0714 557.6486,406.6294 556.8206,407.1334 L556.0286,406.0894 C558.1886,404.8474 559.6646,403.3354 560.4206,401.5354 Z M563.2646,406.8634 C564.7226,406.1434 565.9826,405.2794 567.0446,404.3074 L560.1686,404.3074 L559.9346,404.5954 C560.9426,405.4774 562.0586,406.2334 563.2646,406.8634 Z M562.1666,409.5454 L563.4446,409.5454 C563.4446,410.2654 563.3726,410.9494 563.2646,411.5974 L569.6006,411.5974 C569.5646,414.6394 569.2946,416.4574 568.7726,417.0514 C568.2506,417.6454 567.3506,417.9514 566.0726,417.9514 C565.4966,417.9514 564.7946,417.9154 563.9666,417.8794 L563.6426,416.7094 L565.7666,416.7994 C566.8466,416.7814 567.5126,416.5474 567.8006,416.1154 C568.0706,415.6834 568.2326,414.5674 568.2866,412.7674 L562.9586,412.7674 C562.8146,413.2354 562.6166,413.6854 562.3826,414.1174 C561.4646,415.7374 559.3586,417.0874 556.0466,418.1314 L555.1826,417.0694 C558.1346,416.2054 560.0966,415.1074 561.0326,413.7934 C561.2486,413.4694 561.4466,413.1274 561.5906,412.7674 L556.2266,412.7674 L556.2266,411.5974 L561.9506,411.5974 C562.0946,410.9494 562.1666,410.2654 562.1666,409.5454 Z M574.7486,402.2734 L580.2386,402.2734 L580.2386,406.6474 L574.7486,406.6474 L574.7486,402.2734 Z M579.0506,405.5494 L579.0506,403.3894 L575.9186,403.3894 L575.9186,405.5494 L579.0506,405.5494 Z M582.2366,402.2734 L587.8346,402.2734 L587.8346,406.6474 L582.2366,406.6474 L582.2366,402.2734 Z M586.6646,405.5494 L586.6646,403.3894 L583.4246,403.3894 L583.4246,405.5494 L586.6646,405.5494 Z M573.2906,408.4474 L579.3566,408.4474 C579.6986,407.9794 579.9686,407.4934 580.1846,406.9894 L581.4266,407.1154 C581.2466,407.5834 581.0126,408.0154 580.7606,408.4474 L585.4046,408.4474 C585.1526,407.9974 584.8826,407.5834 584.5946,407.2234 L585.6926,406.8634 C586.0706,407.3674 586.3946,407.8894 586.6826,408.4474 L589.1666,408.4474 L589.1666,409.5994 L584.3066,409.5994 C585.4766,410.6794 587.2226,411.5434 589.5446,412.1734 L589.0226,413.2714 C588.5726,413.1274 588.1586,412.9654 587.7626,412.8214 L587.7626,418.1134 L586.6106,418.1134 L586.6106,417.3394 L583.2446,417.3394 L583.2446,418.1134 L582.0926,418.1134 L582.0926,412.4434 L586.8986,412.4434 C585.1706,411.6514 583.8386,410.6974 582.9386,409.5994 L579.8966,409.5994 C578.8886,410.7514 577.5386,411.6874 575.8466,412.4434 L580.3646,412.4434 L580.3646,418.1134 L579.2126,418.1134 L579.2126,417.3394 L576.1346,417.3394 L576.1346,418.1134 L575.0006,418.1134 L575.0006,412.8034 C574.5146,412.9834 574.0286,413.1454 573.5246,413.3074 L572.9306,412.2454 C575.2346,411.5614 576.9986,410.6794 578.2586,409.5994 L573.2906,409.5994 L573.2906,408.4474 Z M576.1346,416.2234 L579.2126,416.2234 L579.2126,413.5234 L576.1346,413.5234 L576.1346,416.2234 Z M583.2446,416.2234 L586.6106,416.2234 L586.6106,413.5234 L583.2446,413.5234 L583.2446,416.2234 Z M594.324303,403.384267 L595.660241,403.384267 L591.564538,416.2954 L590.2286,416.2954 L594.324303,403.384267 Z M604.931577,406.5934 L604.931577,410.2114 L609.557577,410.2114 C607.487577,409.2034 605.939577,407.9974 604.931577,406.5934 Z M609.611577,410.2294 L609.611577,418.0774 L608.351577,418.0774 L608.351577,417.1054 L600.377577,417.1054 L600.377577,418.0774 L599.117577,418.0774 L599.117577,410.2114 L603.671577,410.2114 L603.671577,406.5754 C602.447577,408.3394 600.161577,409.8514 596.813577,411.1474 L596.093577,409.9954 C599.189577,408.9694 601.313577,407.8174 602.465577,406.5214 L596.507577,406.5214 L596.507577,405.2974 L603.671577,405.2974 L603.671577,403.5874 C601.943577,403.6954 600.089577,403.7494 598.091577,403.7494 L597.713577,402.6154 C602.663577,402.5974 606.767577,402.2554 610.043577,401.6074 L610.655577,402.6514 C609.017577,403.0294 607.109577,403.3174 604.931577,403.4974 L604.931577,405.2974 L611.933577,405.2974 L611.933577,406.5214 L606.173577,406.5214 C607.487577,407.9794 609.539577,409.1314 612.329577,409.9594 L611.771577,411.1474 C610.979577,410.8594 610.259577,410.5534 609.611577,410.2294 Z M600.377577,415.9534 L608.351577,415.9534 L608.351577,414.2614 L600.377577,414.2614 L600.377577,415.9534 Z M600.377577,413.1454 L608.351577,413.1454 L608.351577,411.3634 L600.377577,411.3634 L600.377577,413.1454 Z M619.493577,403.5514 L621.617577,403.5514 L621.617577,401.6434 L622.877577,401.6434 L622.877577,403.5514 L625.901577,403.5514 L625.901577,401.6434 L627.161577,401.6434 L627.161577,403.5514 L629.447577,403.5514 L629.447577,404.7214 L627.161577,404.7214 L627.161577,406.8634 L630.023577,406.8634 L630.023577,408.0514 L627.071577,408.0514 C627.809577,409.2934 628.979577,410.2834 630.581577,411.0034 L630.041577,412.1194 C629.051577,411.5974 628.223577,411.0034 627.557577,410.3554 L627.557577,414.1174 L622.067577,414.1174 L622.067577,415.8454 C622.067577,416.3134 622.319577,416.5474 622.859577,416.5654 L627.701577,416.5654 C628.061577,416.5474 628.295577,416.4034 628.439577,416.1334 C628.547577,415.8994 628.655577,415.3594 628.727577,414.4954 L629.951577,414.8914 C629.861577,415.7914 629.735577,416.4394 629.591577,416.8354 C629.339577,417.4294 628.835577,417.7354 628.079577,417.7534 L622.391577,417.7534 C621.311577,417.7534 620.789577,417.2674 620.789577,416.2954 L620.789577,410.9494 C620.159577,411.5254 619.457577,412.0474 618.683577,412.5334 L618.017577,411.4354 C619.781577,410.4454 620.987577,409.3114 621.635577,408.0514 L618.791577,408.0514 L618.791577,406.8634 L621.617577,406.8634 L621.617577,404.7214 L619.493577,404.7214 L619.493577,403.5514 Z M621.653577,410.0314 L627.233577,410.0314 C626.657577,409.4194 626.189577,408.7534 625.829577,408.0514 L622.841577,408.0514 C622.553577,408.7534 622.157577,409.4194 621.653577,410.0314 Z M622.877577,406.8634 L625.901577,406.8634 L625.901577,404.7214 L622.877577,404.7214 L622.877577,406.8634 Z M622.067577,413.0014 L626.351577,413.0014 L626.351577,411.1294 L622.067577,411.1294 L622.067577,413.0014 Z M615.407577,401.9494 C616.667577,402.8494 617.729577,403.7674 618.593577,404.6674 L617.675577,405.5674 C616.901577,404.7034 615.839577,403.8034 614.489577,402.8314 L615.407577,401.9494 Z M615.047577,406.3954 C616.235577,407.2594 617.243577,408.1054 618.035577,408.9694 L617.135577,409.8874 C616.415577,409.0594 615.407577,408.1954 614.147577,407.2774 L615.047577,406.3954 Z M616.829577,411.6694 L617.999577,412.1374 C617.279577,414.2614 616.487577,416.2414 615.605577,418.0774 L614.309577,417.5194 C615.281577,415.6114 616.109577,413.6674 616.829577,411.6694 Z M640.463577,401.4814 C640.661577,401.9674 640.859577,402.5074 641.039577,403.1014 L648.167577,403.1014 L648.167577,404.2894 L632.273577,404.2894 L632.273577,403.1014 L639.653577,403.1014 C639.473577,402.5974 639.257577,402.1474 639.041577,401.7334 L640.463577,401.4814 Z M645.287577,418.0414 L643.775577,418.0414 L643.469577,416.8714 L644.909577,416.9254 C645.647577,416.9254 646.025577,416.6374 646.025577,416.0614 L646.025577,411.1654 L634.433577,411.1654 L634.433577,418.0954 L633.191577,418.0954 L633.191577,410.0314 L647.267577,410.0314 L647.267577,416.3314 C647.267577,417.4654 646.601577,418.0414 645.287577,418.0414 Z M635.207577,405.4594 L645.269577,405.4594 L645.269577,408.9514 L635.207577,408.9514 L635.207577,405.4594 Z M644.009577,407.9434 L644.009577,406.4674 L636.467577,406.4674 L636.467577,407.9434 L644.009577,407.9434 Z M636.701577,412.3174 L643.775577,412.3174 L643.775577,415.9174 L636.701577,415.9174 L636.701577,412.3174 Z M642.623577,414.9454 L642.623577,413.2894 L637.871577,413.2894 L637.871577,414.9454 L642.623577,414.9454 Z M650.705577,402.3094 L656.267577,402.3094 L656.267577,403.3354 C655.727577,404.9554 655.079577,406.6474 654.341577,408.4114 C655.457577,410.0314 656.069577,411.5074 656.141577,412.8394 C656.141577,413.5954 655.943577,414.1354 655.583577,414.4594 C655.079577,414.8554 654.161577,415.0714 652.865577,415.0894 L652.451577,413.7754 C652.721577,413.8114 652.955577,413.8474 653.153577,413.8474 C653.837577,413.8114 654.287577,413.7214 654.503577,413.5774 C654.719577,413.4334 654.845577,413.1994 654.845577,412.8394 C654.845577,411.5794 654.233577,410.1574 653.009577,408.6094 C653.837577,406.7374 654.503577,405.0454 654.971577,403.5334 L651.983577,403.5334 L651.983577,418.1134 L650.705577,418.1134 L650.705577,402.3094 Z M656.519577,404.2714 L661.019577,404.2714 C660.767577,403.3534 660.497577,402.5074 660.173577,401.7514 L661.469577,401.5354 C661.775577,402.3274 662.063577,403.2274 662.333577,404.2714 L666.239577,404.2714 L666.239577,405.5314 L660.281577,405.5314 C660.263577,406.2334 660.227577,407.2774 660.155577,408.6454 L665.303577,408.6454 C665.267577,412.4974 665.123577,414.9634 664.889577,416.0614 C664.565577,417.2494 663.755577,417.8794 662.495577,417.9154 C662.063577,417.9154 661.541577,417.8794 660.929577,417.8254 L660.515577,416.6194 C661.235577,416.6554 661.865577,416.6914 662.369577,416.6914 C663.125577,416.6554 663.611577,416.1874 663.809577,415.2874 C663.917577,414.4414 663.971577,412.6414 663.989577,409.9054 L660.047577,409.9054 C659.867577,411.3994 659.525577,412.7674 659.003577,414.0094 C658.301577,415.5214 657.329577,416.9074 656.087577,418.1674 L655.133577,417.2674 C656.609577,415.6654 657.599577,414.1894 658.085577,412.8214 C658.553577,411.4534 658.823577,409.9234 658.895577,408.2314 C658.931577,407.0074 658.967577,406.1074 658.985577,405.5314 L656.519577,405.5314 L656.519577,404.2714 Z M670.505577,407.7454 L670.505577,410.7514 L673.403577,410.7514 L673.403577,407.7454 L670.505577,407.7454 Z M673.403577,406.5754 L673.403577,403.5334 L670.505577,403.5334 L670.505577,406.5754 L673.403577,406.5754 Z M670.487577,411.9214 C670.379577,414.4414 669.947577,416.5114 669.209577,418.1314 L668.237577,417.2314 C668.957577,415.6114 669.317577,413.5234 669.335577,411.0034 L669.335577,402.3634 L674.591577,402.3634 L674.591577,416.4034 C674.591577,417.4834 674.087577,418.0414 673.079577,418.0414 L671.639577,418.0414 L671.333577,416.8894 C671.837577,416.9254 672.287577,416.9614 672.719577,416.9614 C673.169577,416.9614 673.403577,416.6374 673.403577,415.9894 L673.403577,411.9214 L670.487577,411.9214 Z M677.327577,410.1394 L677.327577,418.1134 L676.103577,418.1134 L676.103577,402.3454 L683.393577,402.3454 C683.393577,404.5774 683.285577,406.0534 683.069577,406.7734 C682.853577,407.5114 682.187577,407.8894 681.053577,407.8894 L679.595577,407.8894 L679.253577,406.7734 C679.559577,406.7734 679.955577,406.7914 680.459577,406.7914 C680.891577,406.7914 681.197577,406.7554 681.413577,406.7014 C681.629577,406.6294 681.791577,406.4494 681.899577,406.1794 C682.025577,405.7834 682.097577,404.9014 682.133577,403.5334 L677.327577,403.5334 L677.327577,408.9874 L683.447577,408.9874 L683.447577,410.0854 C683.105577,411.9394 682.511577,413.5234 681.683577,414.8194 C682.493577,415.6114 683.447577,416.3134 684.545577,416.9434 L683.897577,418.0414 C682.745577,417.3754 681.773577,416.6374 680.945577,415.8274 C680.153577,416.7454 679.235577,417.4834 678.155577,418.0594 L677.471577,417.0154 C678.497577,416.4574 679.361577,415.7554 680.081577,414.8914 C678.929577,413.4874 678.155577,411.9034 677.759577,410.1394 L677.327577,410.1394 Z M678.875577,410.1394 C679.253577,411.5254 679.901577,412.7674 680.819577,413.8834 C681.485577,412.8034 681.971577,411.5614 682.295577,410.1394 L678.875577,410.1394 Z M691.421577,401.5354 L692.735577,401.7154 C692.537577,402.2014 692.303577,402.6514 692.051577,403.0834 L699.899577,403.0834 L699.899577,404.1274 C698.747577,405.4594 697.343577,406.5934 695.687577,407.5294 C697.721577,408.3934 699.989577,408.9514 702.491577,409.2034 L701.897577,410.4094 C699.053577,410.0854 696.515577,409.3654 694.283577,408.2494 C692.087577,409.2574 689.513577,409.9954 686.597577,410.4454 L686.003577,409.2214 C688.613577,408.8614 690.899577,408.2854 692.879577,407.4934 C691.871577,406.8994 690.935577,406.2154 690.071577,405.4594 C689.387577,406.0714 688.649577,406.6294 687.821577,407.1334 L687.029577,406.0894 C689.189577,404.8474 690.665577,403.3354 691.421577,401.5354 Z M694.265577,406.8634 C695.723577,406.1434 696.983577,405.2794 698.045577,404.3074 L691.169577,404.3074 L690.935577,404.5954 C691.943577,405.4774 693.059577,406.2334 694.265577,406.8634 Z M693.167577,409.5454 L694.445577,409.5454 C694.445577,410.2654 694.373577,410.9494 694.265577,411.5974 L700.601577,411.5974 C700.565577,414.6394 700.295577,416.4574 699.773577,417.0514 C699.251577,417.6454 698.351577,417.9514 697.073577,417.9514 C696.497577,417.9514 695.795577,417.9154 694.967577,417.8794 L694.643577,416.7094 L696.767577,416.7994 C697.847577,416.7814 698.513577,416.5474 698.801577,416.1154 C699.071577,415.6834 699.233577,414.5674 699.287577,412.7674 L693.959577,412.7674 C693.815577,413.2354 693.617577,413.6854 693.383577,414.1174 C692.465577,415.7374 690.359577,417.0874 687.047577,418.1314 L686.183577,417.0694 C689.135577,416.2054 691.097577,415.1074 692.033577,413.7934 C692.249577,413.4694 692.447577,413.1274 692.591577,412.7674 L687.227577,412.7674 L687.227577,411.5974 L692.951577,411.5974 C693.095577,410.9494 693.167577,410.2654 693.167577,409.5454 Z M705.749577,402.2734 L711.239577,402.2734 L711.239577,406.6474 L705.749577,406.6474 L705.749577,402.2734 Z M710.051577,405.5494 L710.051577,403.3894 L706.919577,403.3894 L706.919577,405.5494 L710.051577,405.5494 Z M713.237577,402.2734 L718.835577,402.2734 L718.835577,406.6474 L713.237577,406.6474 L713.237577,402.2734 Z M717.665577,405.5494 L717.665577,403.3894 L714.425577,403.3894 L714.425577,405.5494 L717.665577,405.5494 Z M704.291577,408.4474 L710.357577,408.4474 C710.699577,407.9794 710.969577,407.4934 711.185577,406.9894 L712.427577,407.1154 C712.247577,407.5834 712.013577,408.0154 711.761577,408.4474 L716.405577,408.4474 C716.153577,407.9974 715.883577,407.5834 715.595577,407.2234 L716.693577,406.8634 C717.071577,407.3674 717.395577,407.8894 717.683577,408.4474 L720.167577,408.4474 L720.167577,409.5994 L715.307577,409.5994 C716.477577,410.6794 718.223577,411.5434 720.545577,412.1734 L720.023577,413.2714 C719.573577,413.1274 719.159577,412.9654 718.763577,412.8214 L718.763577,418.1134 L717.611577,418.1134 L717.611577,417.3394 L714.245577,417.3394 L714.245577,418.1134 L713.093577,418.1134 L713.093577,412.4434 L717.899577,412.4434 C716.171577,411.6514 714.839577,410.6974 713.939577,409.5994 L710.897577,409.5994 C709.889577,410.7514 708.539577,411.6874 706.847577,412.4434 L711.365577,412.4434 L711.365577,418.1134 L710.213577,418.1134 L710.213577,417.3394 L707.135577,417.3394 L707.135577,418.1134 L706.001577,418.1134 L706.001577,412.8034 C705.515577,412.9834 705.029577,413.1454 704.525577,413.3074 L703.931577,412.2454 C706.235577,411.5614 707.999577,410.6794 709.259577,409.5994 L704.291577,409.5994 L704.291577,408.4474 Z M707.135577,416.2234 L710.213577,416.2234 L710.213577,413.5234 L707.135577,413.5234 L707.135577,416.2234 Z M714.245577,416.2234 L717.611577,416.2234 L717.611577,413.5234 L714.245577,413.5234 L714.245577,416.2234 Z" id="香港服务器/香港高防服务器" fill="#FFF569"></path>
        </g>
        <g transform="translate(0.000000, 117.000000)">
            <g id="Group-3" transform="translate(0.000000, 0.780300)">
                <mask id="mask-2" fill="white">
                    <use xlink:href="#path-1"></use>
                </mask>
                <g id="Clip-2"></g>
                <path d="M33.0405,12.335 L33.0405,34.909 L33.1735,34.909 C33.3815,34.909 33.5595,34.759 33.7075,34.457 C33.8265,34.258 33.8865,33.957 33.8865,33.555 L33.8865,12.335 L33.0405,12.335 Z M26.8955,34.909 L27.7415,34.909 L27.7415,12.335 L26.8955,12.335 L26.8955,34.909 Z M33.0405,48.454 L34.2425,48.378 L33.8865,42.886 L38.3395,42.886 L39.0075,54.699 L34.6435,54.699 L34.5985,53.646 L21.1065,54.774 L21.1065,49.432 L27.7415,48.981 L27.7415,40.553 L21.5515,40.553 L21.5515,6.541 L27.7415,6.541 L27.7415,0.37 L33.0405,0.37 L33.0405,6.541 L39.2295,6.541 L39.2295,34.984 C39.2295,36.439 38.9175,37.769 38.2945,38.973 C37.6715,40.025 36.8695,40.553 35.8905,40.553 L33.0405,40.553 L33.0405,48.454 Z M12.8245,37.091 L14.8725,37.091 L14.8725,29.792 L12.8245,29.792 L12.8245,37.091 Z M12.8245,17.603 L12.8245,24.524 L14.8725,24.524 L14.8725,19.107 C14.8725,18.105 14.5615,17.603 13.9375,17.603 L12.8245,17.603 Z M5.6995,37.091 L7.8375,37.091 L7.8375,29.792 L5.6995,29.792 L5.6995,37.091 Z M5.6995,24.524 L7.8375,24.524 L7.8375,17.602 L5.6995,17.602 L5.6995,24.524 Z M7.8375,54.699 L7.8375,42.358 L5.6995,42.358 L5.6995,54.699 L-0.0005,54.699 L-0.0005,12.335 L11.0875,12.335 L11.9785,8.798 L0.7955,8.798 L3.3355,0.37 L9.8405,0.37 L8.9055,3.531 L19.6815,3.531 L17.5885,12.335 L18.4355,12.335 C18.9095,12.335 19.3845,12.687 19.8595,13.389 C20.3345,14.092 20.5725,15.495 20.5725,17.603 L20.5725,48.077 C20.5725,48.981 20.4835,49.834 20.3055,50.636 C20.0975,51.539 19.8005,52.242 19.4145,52.743 C19.1175,53.295 18.7025,53.796 18.1675,54.248 C17.6335,54.549 17.1135,54.699 16.6095,54.699 L13.0465,54.699 L13.9815,49.884 L14.1605,49.884 C14.3085,49.884 14.4725,49.759 14.6495,49.507 C14.7985,49.308 14.8725,48.981 14.8725,48.529 L14.8725,42.358 L12.8245,42.358 L12.8245,54.699 L7.8375,54.699 Z" id="Fill-1" fill="#FFFFFF" mask="url(#mask-2)"></path>
            </g>
            <path d="M72.2251,30.4971 L70.9341,23.6491 L60.7371,24.5531 L60.7371,30.4971 L72.2251,30.4971 Z M80.3741,37.9461 L83.7581,55.5551 L77.0341,55.5551 L73.6501,37.9461 L60.7371,37.9461 L60.7371,46.6011 L66.1691,45.5471 L65.5911,42.7631 L71.2901,42.7631 L73.9621,55.4791 L68.2621,55.4791 L67.7281,52.9211 L54.5471,55.4791 L54.5471,39.6291 L54.5471,25.0791 L54.5471,17.6301 L83.7581,15.0711 L83.7581,22.5201 L77.5241,23.0481 L78.9491,30.4971 L83.7581,30.4971 L83.7581,37.9461 L80.3741,37.9461 Z M69.5091,5.5151 L83.7581,5.5151 L83.7581,12.9651 L52.8111,12.9651 L52.8111,47.8801 L50.7921,55.5551 L44.6181,55.5551 L46.6211,47.8801 L46.6211,5.5151 L62.3401,5.5151 L61.6271,1.2261 L68.7971,1.2261 L69.5091,5.5151 Z" id="Fill-4" fill="#FFFFFF"></path>
            <path d="M112.3062,37.7959 L114.8392,48.3309 L108.8852,48.3309 L106.3522,37.7959 L112.3062,37.7959 Z M123.9222,47.3529 C123.9222,48.5069 123.7952,49.5859 123.5422,50.5879 C123.2882,51.5929 122.9382,52.4699 122.4912,53.2219 C122.0442,53.9749 121.5222,54.5649 120.9272,54.9899 C120.3302,55.4169 119.6892,55.6299 119.0032,55.6299 L113.3252,55.6299 L115.0172,49.0079 L116.7982,49.0079 C117.2132,49.0079 117.5552,48.7829 117.8222,48.3339 C118.0892,47.8859 118.2232,47.3379 118.2232,46.6889 L118.2232,35.3139 L105.3992,35.3139 L105.3992,28.6919 L118.2232,28.6919 L118.2232,26.2829 L123.9222,26.2829 L123.9222,28.6919 L125.9262,28.6919 L125.9262,35.3139 L123.9222,35.3139 L123.9222,47.3529 Z M126.5052,24.6279 L104.9092,24.6279 L104.9092,17.6299 L112.7462,17.6299 L112.7462,12.5889 L106.2002,12.5889 L106.2002,5.5899 L112.7462,5.5899 L112.7462,1.0749 L118.7132,1.0749 L118.7132,5.5899 L125.2582,5.5899 L125.2582,12.5889 L118.7132,12.5889 L118.7132,17.6299 L126.5052,17.6299 L126.5052,24.6279 Z M94.1332,42.8379 L87.3202,44.1919 L87.3202,36.7429 L94.1332,35.3889 L94.1332,16.9529 L87.5872,16.9529 L88.1212,2.5799 L93.0642,2.5799 L92.7972,9.5029 L94.1332,9.5029 L94.1332,1.3759 L100.3232,1.3759 L100.3232,9.5029 L104.1072,9.5029 L104.1072,16.9529 L100.3232,16.9529 L100.3232,34.1849 L103.9292,33.4319 L103.9292,40.8819 L100.3232,41.6339 L100.3232,55.4039 L94.1332,55.4039 L94.1332,42.8379 Z" id="Fill-6" fill="#FFFFFF"></path>
            <mask id="mask-4" fill="white">
                <use xlink:href="#path-3"></use>
            </mask>
            <g id="Clip-9"></g>
            <path d="M160.837,55.2543 L166.225,55.2543 L166.225,21.0163 L160.837,21.0163 L160.837,55.2543 Z M148.324,54.9533 L142.936,54.9533 L144.94,45.6223 L144.94,21.0153 L150.372,21.0153 L150.372,45.6223 L148.324,54.9533 Z M165.156,1.2253 L169.208,19.0593 L162.751,19.0593 L160.658,7.6223 L152.109,7.6223 L152.109,7.4713 L148.992,18.6833 L142.535,18.6833 L147.255,1.2253 L152.109,1.2253 L153.801,1.2253 L165.156,1.2253 Z M133.852,21.6933 L130.067,21.6933 L135.055,1.3013 L141.021,1.3013 L137.904,13.9423 L139.552,13.9423 L139.552,55.5543 L133.852,55.5543 L133.852,21.6933 Z" id="Fill-8" fill="#FFFFFF" mask="url(#mask-4)"></path>
            <path d="M211.7773,34.0342 L207.3243,34.0342 L205.4543,2.7302 L209.9073,2.7302 L211.7773,34.0342 Z M191.9623,2.7302 L196.3703,2.7302 L194.1883,39.6022 L189.7803,39.6022 L191.9623,2.7302 Z M211.5993,45.0202 L189.4683,55.1032 L189.4683,46.8262 L202.1593,41.0322 L197.8843,41.0322 L197.8843,1.2252 L203.2723,1.2252 L203.2723,40.5802 L211.5993,36.7432 L211.5993,39.5272 L211.5993,39.6022 L211.5993,45.0202 Z M184.6593,55.5552 L183.8133,26.0572 L187.3313,26.0572 L188.1323,55.5552 L184.6593,55.5552 Z M173.0373,55.5552 L173.8393,26.0572 L177.3573,26.0572 L176.5103,55.5552 L173.0373,55.5552 Z M178.3813,55.5552 L178.3813,23.1982 L172.9933,23.1982 L172.9933,16.7262 L178.3813,16.7262 L178.3813,9.6532 L173.5713,9.8802 L173.5713,3.0322 L187.9543,2.2042 L187.9543,9.0522 L183.0113,9.3522 L183.0113,16.7262 L187.9993,16.7262 L187.9993,23.1982 L183.0113,23.1982 L183.0113,55.5552 L178.3813,55.5552 Z" id="Fill-10" fill="#FFFFFF" mask="url(#mask-4)"></path>
            <path d="M248.1567,55.4795 L243.7927,40.7305 L250.2497,40.7305 L254.6137,55.4795 L248.1567,55.4795 Z M253.6337,1.2255 C252.5647,2.7305 250.9687,4.6755 248.8467,7.0575 C246.7237,9.4405 244.2227,11.8865 241.3437,14.3945 C243.1837,15.4485 245.1287,16.4255 247.1777,17.3295 C249.2257,18.2325 251.3777,18.9595 253.6337,19.5105 L253.6337,26.8855 C250.3087,26.4335 247.0877,25.5055 243.9707,24.1015 C240.8537,22.6975 237.8997,21.0415 235.1097,19.1345 C232.3197,21.0415 229.3727,22.6975 226.2707,24.1015 C223.1687,25.5055 219.9547,26.4335 216.6307,26.8855 L216.6307,19.5105 C218.8857,18.9595 221.0387,18.2325 223.0877,17.3295 C225.1357,16.4255 227.0797,15.4485 228.9207,14.3945 C226.0107,11.8865 223.5027,9.4405 221.3947,7.0575 C219.2867,4.6755 217.6987,2.7305 216.6307,1.2255 L225.0017,1.2255 C225.7737,1.8785 227.0127,3.0445 228.7197,4.7245 C230.4267,6.4065 232.5567,8.2235 235.1097,10.1805 C237.6927,8.2235 239.8367,6.4065 241.5447,4.7245 C243.2507,3.0445 244.4757,1.8785 245.2177,1.2255 L253.6337,1.2255 Z M220.0587,40.7305 L226.5157,40.7305 L222.1527,55.4795 L215.6957,55.4795 L220.0587,40.7305 Z M232.8837,36.5915 L215.5617,36.5915 L215.5617,29.6685 L232.8837,29.6685 L232.8837,25.1545 L238.5827,25.1545 L238.5827,29.6685 L254.7467,29.6685 L254.7467,36.5915 L238.5827,36.5915 L238.5827,47.2025 C238.5827,48.3565 238.4557,49.4345 238.2007,50.4375 C237.9467,51.4425 237.5947,52.3195 237.1467,53.0715 C236.6977,53.8245 236.1747,54.4145 235.5757,54.8395 C234.9777,55.2665 234.3497,55.4795 233.6917,55.4795 L228.2077,55.4795 L230.1677,48.5565 L231.4587,48.5565 C231.8737,48.5565 232.2157,48.3315 232.4827,47.8795 C232.7497,47.4275 232.8837,46.8515 232.8837,46.1485 L232.8837,36.5915 Z" id="Fill-11" fill="#FFFFFF" mask="url(#mask-4)"></path>
            <path d="M317.5317,47.0518 L321.5387,55.7048 L314.5487,55.7048 L310.5407,47.0518 L317.5317,47.0518 Z M305.4647,29.6688 L302.9697,29.6688 L305.4647,35.9148 L299.7637,35.9148 L296.8257,28.5408 L299.3187,28.5408 L296.8257,22.2948 L302.5697,22.2948 L305.4647,29.6688 Z M312.4997,37.4948 L321.5837,37.4948 L321.5837,44.9448 L310.3297,44.9448 L304.5287,55.7048 L296.8707,55.7048 L303.0147,44.9448 L296.2917,44.9448 L296.2917,37.4948 L306.3097,37.4948 L306.3097,22.0698 L312.4997,22.0698 L312.4997,37.4948 Z M311.9207,10.7068 L311.9207,13.4158 L316.7077,13.4158 C317.3627,13.4158 317.9887,13.6418 318.5867,14.0938 C319.1817,14.5448 319.7047,15.1468 320.1517,15.8998 C320.5987,16.6518 320.9497,17.5308 321.2027,18.5328 C321.4567,19.5368 321.5837,20.5898 321.5837,21.6938 L321.5837,30.1208 L315.3937,30.1208 L315.3937,22.7468 C315.3937,22.0958 315.2607,21.5428 314.9937,21.0918 C314.7257,20.6398 314.3847,20.4138 313.9687,20.4138 L296.1577,20.4138 L296.1577,13.4158 L305.7307,13.4158 L305.7307,10.7068 L296.1127,10.7068 L296.1127,4.3868 L305.7307,4.3868 L305.7307,1.4518 L311.9207,1.4518 L311.9207,4.3868 L321.4497,4.3868 L321.4497,10.7068 L311.9207,10.7068 Z M282.3537,55.6298 L295.4897,55.6298 L295.4897,48.7818 L282.3537,48.7818 L282.3537,55.6298 Z M295.4897,45.1708 L282.3537,45.1708 L286.8067,26.5088 L282.3537,26.5088 L288.4547,1.0748 L295.0447,1.0748 L290.5917,19.6618 L291.6607,19.6618 L294.9107,19.6618 L290.5917,38.3228 L295.4897,38.3228 L295.4897,45.1708 Z" id="Fill-12" fill="#FFFFFF" mask="url(#mask-4)"></path>
            <path d="M353.02,7.7725 L353.02,10.3315 L357.83,10.3315 C358.037,10.3315 358.207,10.2175 358.341,9.9925 C358.475,9.7665 358.541,9.5025 358.541,9.2025 L358.541,7.7725 L353.02,7.7725 Z M341.042,10.3315 L346.831,10.3315 L346.831,7.7725 L341.309,7.7725 L341.042,10.3315 Z M346.831,18.1565 L346.831,15.2965 L340.552,15.2965 L340.241,18.1565 L346.831,18.1565 Z M334.051,18.1565 L334.319,15.2965 L331.914,15.2965 L331.914,18.1565 L334.051,18.1565 Z M353.02,18.1565 L364.267,18.1565 L364.267,24.1015 C364.267,25.8065 363.94,27.2985 363.288,28.5785 C362.634,29.8575 361.818,30.6735 360.838,31.0235 C361.616,31.6265 362.244,32.4915 362.722,33.6205 C363.201,34.7495 363.44,36.0165 363.44,37.4195 L363.44,44.6435 L357.25,44.6435 L357.25,38.1725 C357.25,37.5705 357.117,37.0695 356.85,36.6685 C356.583,36.2665 356.255,36.0655 355.871,36.0655 L332.225,36.0655 L332.225,44.6435 L326.081,44.6435 L326.081,30.1215 L354.133,30.1215 L355.291,25.6065 L356.894,25.6065 C357.22,25.6065 357.496,25.4185 357.718,25.0425 C357.941,24.6655 358.052,24.2025 358.052,23.6495 L353.02,23.6495 L353.02,28.0135 L346.831,28.0135 L346.831,23.6495 L339.647,23.6495 L339.201,28.0135 L333.042,28.0135 L333.489,23.6495 L331.927,23.6495 L325.769,23.6495 L325.769,18.1565 L325.769,10.3315 L328.841,10.3315 L331.914,10.3315 L334.853,10.3315 L335.12,7.7725 L325.724,7.7725 L325.724,2.8055 L335.61,2.8055 L335.788,1.1505 L341.933,1.1505 L341.754,2.8055 L346.831,2.8055 L346.831,1.0755 L353.02,1.0755 L353.02,2.8055 L364.197,2.8055 L364.197,3.0325 L364.197,7.7725 L364.197,8.1485 C364.197,9.1535 364.085,10.0805 363.863,10.9325 C363.64,11.7865 363.343,12.5395 362.972,13.1905 C362.601,13.8425 362.156,14.3565 361.636,14.7335 C361.117,15.1095 360.575,15.2965 360.011,15.2965 L353.02,15.2965 L353.02,18.1565 Z M347.632,44.5685 L364.019,48.1055 L364.019,55.6295 L344.538,51.4165 L325.101,55.6295 L325.101,48.1055 L341.443,44.5685 L341.443,43.2895 L341.443,37.9465 L347.632,37.9465 L347.632,43.2895 L347.632,44.5685 Z" id="Fill-13" fill="#FFFFFF" mask="url(#mask-4)"></path>
            <path d="M382.8999,46.9014 L406.9449,48.5564 L406.9449,55.2544 L382.8999,53.6734 L382.8999,46.9014 Z M406.9449,45.3214 L382.8999,43.6664 L382.8999,36.8934 L406.9449,38.5484 L406.9449,45.3214 Z M388.9559,3.7094 L407.0789,3.7094 L407.0789,10.3314 L407.0339,10.3314 C406.4399,14.0934 405.6159,17.3044 404.5629,19.9634 C403.5079,22.6224 402.2689,24.8804 400.8439,26.7344 C401.7949,26.9644 402.7889,27.1364 403.8279,27.2524 C404.8669,27.3674 405.9499,27.4704 407.0789,27.5624 L407.0789,35.0114 C402.1209,35.1134 397.9209,34.1594 394.4769,32.1524 C392.4289,33.3074 390.2839,34.0974 388.0429,34.5224 C385.8009,34.9504 383.5969,35.2374 381.4299,35.3884 L381.4299,27.4874 C382.3799,27.3454 383.4039,27.1924 384.5029,27.0264 C385.6009,26.8604 386.7579,26.5884 387.9759,26.2084 C385.4529,22.7474 383.3889,18.1074 381.7869,12.2874 L387.4859,12.2874 C388.5549,14.8454 389.6299,16.9654 390.7139,18.6454 C391.7969,20.3274 392.9189,21.7444 394.0769,22.8974 C395.5019,21.6934 396.8439,20.0894 398.1059,18.0814 C399.3679,16.0754 400.4279,13.4914 401.2899,10.3314 L381.3409,10.3314 L383.7009,1.3764 L389.5789,1.3764 L388.9559,3.7094 Z M381.1189,53.2214 L367.8039,55.4044 L367.8039,48.4814 L381.1189,46.1484 L381.1189,53.2214 Z M367.8039,43.1384 L372.7479,26.0574 L367.8039,26.0574 L375.0179,1.3004 L381.2959,1.3004 L376.3539,18.3074 L381.2959,18.3074 L375.9979,36.5164 L381.1189,36.5164 L381.1189,43.1384 L374.0839,43.1384 L369.8079,43.1384 L367.8039,43.1384 Z" id="Fill-14" fill="#FFFFFF" mask="url(#mask-4)"></path>
            <path d="M420.615,36.9683 L441.81,36.9683 L441.81,33.8073 L420.615,33.8073 L420.615,36.9683 Z M420.615,26.7343 L441.81,26.7343 L441.81,23.6493 L420.615,23.6493 L420.615,26.7343 Z M420.615,16.5763 L441.81,16.5763 L441.81,13.4163 L420.615,13.4163 L420.615,16.5763 Z M425.394,1.3013 L424.011,6.3423 L448,6.3423 L448,47.2023 C448,48.3563 447.874,49.4223 447.621,50.4003 C447.369,51.3793 447.019,52.2443 446.573,52.9963 C446.127,53.7493 445.607,54.3393 445.012,54.7643 C444.418,55.1913 443.794,55.4043 443.14,55.4043 L437.388,55.4043 L439.069,49.2343 L440.44,49.2343 C440.823,49.2343 441.147,49.0083 441.413,48.5563 C441.677,48.1053 441.81,47.5293 441.81,46.8263 L441.81,44.0423 L425.825,44.0423 L419.635,55.4043 L412.689,55.4043 L418.878,44.0423 L412.421,44.0423 L412.421,36.9683 L414.514,36.9683 L414.514,6.3423 L417.324,6.3423 L418.706,1.3013 L425.394,1.3013 Z" id="Fill-15" fill="#FFFFFF" mask="url(#mask-4)"></path>
            <path d="M486.2495,54.878 L473.3365,1.903 L479.4805,1.903 L492.5725,54.878 L486.2495,54.878 Z M459.6665,54.651 L453.2985,54.651 L464.2975,5.59 L470.4415,5.59 L459.6665,54.651 Z" id="Fill-16" fill="#FFFFFF" mask="url(#mask-4)"></path>
            <path d="M501.8794,30.0459 L501.8794,12.9649 L497.1584,12.9649 L497.1584,5.5149 L501.8794,5.5149 L501.8794,0.9999 L507.5784,0.9999 L507.5784,5.5149 L512.5214,5.5149 L512.5214,12.9649 L507.5784,12.9649 L507.5784,19.4359 L512.5214,19.4359 L512.5214,11.0829 L512.5214,8.1489 L512.5214,4.0099 L535.1864,1.4519 L535.1864,8.6009 L517.9984,10.4819 L517.9984,19.5109 L535.1864,19.5109 L535.1864,26.6589 L531.7134,26.6589 L531.7134,55.6299 L526.2804,55.6299 L526.2804,26.6589 L517.9984,26.6589 L517.9984,48.2559 L516.1284,55.6299 L510.6504,55.6299 L512.5214,48.2559 L512.5214,21.9939 L507.5784,32.7549 L507.5784,47.5029 C507.5784,48.6579 507.4444,49.7359 507.1784,50.7389 C506.9104,51.7429 506.5544,52.6199 506.1084,53.3719 C505.6634,54.1249 505.1444,54.7149 504.5504,55.1409 C503.9564,55.5669 503.3334,55.7799 502.6804,55.7799 L498.0494,55.7799 L499.7414,49.3099 L500.4984,49.3099 C500.8844,49.3099 501.2114,49.0709 501.4784,48.5949 C501.7454,48.1179 501.8794,47.5539 501.8794,46.9009 L501.8794,42.4619 L496.1354,42.4619 L501.8794,30.0459 Z" id="Fill-17" fill="#FFFFFF" mask="url(#mask-4)"></path>
        </g>
    </g>
</svg>