
<svg width="251px" height="180px" viewBox="757 598 251 180" version="1.1" xmlns="http://www.w3.org/2000/svg" xmlns:xlink="http://www.w3.org/1999/xlink">
    <!-- Generator: Sketch 42 (36781) - http://www.bohemiancoding.com/sketch -->
    <desc>Created with Sketch.</desc>
    <defs>
        <linearGradient x1="50%" y1="0%" x2="50%" y2="100%" id="linearGradient-1">
            <stop stop-color="#91B8FF" offset="0%"></stop>
            <stop stop-color="#A1D3FF" offset="100%"></stop>
        </linearGradient>
        <linearGradient x1="50%" y1="0%" x2="50%" y2="100%" id="linearGradient-2">
            <stop stop-color="#FFCA73" offset="0%"></stop>
            <stop stop-color="#FFD181" offset="100%"></stop>
        </linearGradient>
    </defs>
    <circle id="Oval-Copy-2" stroke="url(#linearGradient-1)" stroke-width="3" fill="none" cx="976.5" cy="719.5" r="7.5"></circle>
    <g id="椭圆形" stroke="none" fill="none" transform="translate(976.000000, 735.000000)" stroke-width="3">
        <ellipse id="Oval" stroke="url(#linearGradient-2)" cx="9.6" cy="9.55555556" rx="6.4" ry="6.37037037"></ellipse>
    </g>
    <g id="矩形" stroke="none" fill="none" transform="translate(757.000000, 598.000000)" fill-rule="evenodd">
        <rect id="Rectangle" fill="#FFBF5C" opacity="0.66089221" x="0" y="5" width="13" height="3"></rect>
        <rect id="Rectangle-2" fill="#FFBF5C" opacity="0.594259511" x="5" y="0" width="3" height="13"></rect>
    </g>
    <path d="M816.042935,612.000169 C798.345682,612.000169 784,626.34602 784,644.043103 L784,728.957234 C784,746.654486 798.345851,761.000169 816.042935,761.000169 L900.957065,761.000169 C918.653643,761.000169 933,746.654318 933,728.957234 L933,644.043103 C933,626.345851 918.653474,612 900.957065,612 L816.042935,612.000169 Z M823.363069,669.234341 C823.55783,661.248648 826.542136,654.653091 832.842096,649.718985 C837.804024,645.831697 843.547187,644.632613 849.776662,645.114371 L849.776662,654.781245 C849.559137,654.781245 849.355776,654.772645 849.151573,654.781245 C847.493156,654.853247 845.821418,654.818679 844.181719,655.029965 C841.627403,655.359288 839.4159,656.531899 837.493081,658.227918 C835.063379,660.371635 833.538512,663.056297 832.870424,666.215298 C832.667064,667.175948 832.6099,668.166445 832.479217,669.195895 L839.648264,669.195895 C835.567733,673.965592 831.565612,678.643726 827.52808,683.361824 C823.499048,678.652059 819.469441,673.942786 815.439261,669.234004 L823.363069,669.234341 Z M853.125027,728.006026 C842.922267,728.009736 832.719337,728.015301 822.517588,728.003666 C820.228687,728.001305 818.605344,726.769338 818.018701,724.64063 C817.901339,724.21654 817.859183,723.758052 817.859183,723.316257 C817.850583,714.249685 817.850583,705.181089 817.852944,696.114179 C817.854293,693.82376 819.082044,692.158935 821.226941,691.572799 C821.697233,691.445319 822.205465,691.41328 822.695318,691.411763 C827.733296,691.401814 832.770599,691.404006 837.807734,691.404006 C842.86055,691.404006 847.91421,691.406367 852.96787,691.404006 C854.098325,691.404006 855.151381,691.643283 856.058747,692.366849 C857.0914,693.190745 857.644318,694.263025 857.74937,695.57357 C857.763535,695.747253 857.76657,695.923971 857.76657,696.100857 C857.767582,705.167093 857.765221,714.234677 857.77028,723.30243 C857.771966,724.872656 857.224444,726.169712 855.957235,727.130531 C855.119849,727.76422 854.152959,728.005183 853.125027,728.006026 Z M857.868082,677.019877 C857.858133,667.856852 857.854086,658.693489 857.871286,649.529621 C857.874489,647.320984 859.177784,645.673528 861.291485,645.125163 C861.732774,645.009993 862.208968,644.983519 862.6683,644.981833 C872.774945,644.974076 882.88159,644.97728 892.988741,644.975594 C894.925555,644.975594 896.458347,645.711806 897.306357,647.505459 C897.595716,648.121105 897.759281,648.854956 897.761642,649.534848 C897.790645,658.697873 897.786598,667.861236 897.776649,677.024093 C897.773445,679.209291 896.510283,680.844774 894.405013,681.416747 C893.93489,681.544226 893.42632,681.57323 892.93495,681.57323 C887.89849,681.58419 882.860512,681.579469 877.823209,681.579469 L862.663747,681.579469 C861.584048,681.579469 860.569606,681.362618 859.687197,680.700938 C858.461975,679.779745 857.871286,678.526532 857.868082,677.019877 Z M884.318603,723.821286 C879.483986,727.358004 873.96661,728.389814 868.049259,727.940263 L868.049259,718.262429 C868.991192,718.262429 869.914914,718.296828 870.835769,718.253829 C871.886297,718.203748 872.954866,718.18503 873.979763,717.977454 C877.860812,717.188125 880.835844,715.035304 882.969949,711.727745 C884.496839,709.362625 885.229341,706.743727 885.277905,703.86852 L878.1613,703.86852 C882.256838,699.082466 886.258116,694.405006 890.296322,689.686234 C894.33065,694.401297 898.327375,699.07218 902.396945,703.827207 L894.466561,703.827207 C894.234197,712.133791 891.045518,718.899996 884.318603,723.821286 Z" id="Shape-Copy-4" stroke="none" fill="#C8E2FF" fill-rule="nonzero" opacity="0.68"></path>
    <path d="M919.021586,599.000179 L828.978414,599.000179 C810.2122,599.000179 795,614.212558 795,632.978593 L795,723.021765 C795,741.787979 810.212379,757.000179 828.978414,757.000179 L919.021586,757.000179 C937.787085,757.000179 953,741.7878 953,723.021765 L953,632.978593 C953,614.212379 937.786906,599 919.021586,599 L919.021586,599.000179 Z M828.338277,659.691449 L836.740704,659.691449 C836.947229,651.223398 840.111795,644.229452 846.792289,638.997313 C852.053931,634.875223 858.143997,633.60371 864.749748,634.114568 L864.749748,644.365347 C864.519084,644.365347 864.30344,644.356228 864.086902,644.365347 C862.328313,644.441699 860.555598,644.405043 858.816856,644.629091 C856.108253,644.978305 853.763169,646.221745 851.724207,648.020209 C849.147744,650.293411 847.530772,653.140234 846.822329,656.490047 C846.606685,657.508724 846.546069,658.55905 846.407492,659.65068 L854.009569,659.65068 C849.682563,664.70848 845.438703,669.669186 841.157293,674.67227 C836.884896,669.678023 832.611891,664.684296 828.338277,659.691091 L828.338277,659.691449 Z M871.303288,721.084009 C870.415678,721.756689 869.390386,722.012208 868.300365,722.013102 C857.48133,722.017036 846.662116,722.022936 835.844154,722.010598 C833.416997,722.008095 831.6956,720.701714 831.073522,718.444426 C830.949071,717.994721 830.904369,717.508538 830.904369,717.040058 C830.895249,707.42584 830.895249,697.809476 830.897753,688.194901 C830.899183,685.766134 832.201094,684.00075 834.475548,683.379209 C834.974247,683.244029 835.513178,683.210056 836.032619,683.208446 C841.374904,683.197897 846.716474,683.200221 852.057865,683.200221 C857.415886,683.200221 862.7748,683.202724 868.133714,683.200221 C869.332452,683.200221 870.449116,683.453952 871.411289,684.221222 C872.506317,685.094884 873.092632,686.231933 873.20403,687.621638 C873.21905,687.805812 873.222269,687.993204 873.222269,688.180775 C873.223342,697.794635 873.220839,707.409926 873.226203,717.025395 C873.227991,718.690468 872.647397,720.065869 871.303645,721.084724 L871.303288,721.084009 Z M875.258728,671.851017 C873.959679,670.873824 873.33331,669.544913 873.329912,667.947252 C873.319362,658.230756 873.315071,648.513901 873.33331,638.796511 C873.336707,636.454466 874.718724,634.7075 876.960098,634.126012 C877.428042,634.003885 877.933,633.975812 878.420076,633.974024 C889.13719,633.965799 899.854303,633.969196 910.571953,633.967408 C912.625757,633.967408 914.251133,634.748089 915.150365,636.650084 C915.457202,637.302917 915.630647,638.081095 915.63315,638.802054 C915.663905,648.51855 915.659614,658.235405 915.649064,667.951723 C915.645667,670.268912 914.306206,672.003183 912.073772,672.609705 C911.575252,672.744884 911.035963,672.77564 910.514913,672.77564 C905.174237,672.787262 899.831952,672.782256 894.490382,672.782256 L878.415248,672.782256 C877.270332,672.782256 876.194616,672.552307 875.258907,671.850659 L875.258728,671.851017 Z M912.139038,696.373995 C911.892639,705.182141 908.511355,712.357043 901.378116,717.575592 C896.251475,721.325938 890.400835,722.420072 884.126059,721.943366 L884.126059,711.680965 C885.124888,711.680965 886.104405,711.717442 887.080883,711.671845 C888.194865,711.618739 889.327979,711.598891 890.414782,711.378777 C894.530257,710.541771 897.684989,708.258912 899.947999,704.751568 C901.567117,702.243589 902.343865,699.466502 902.395362,696.417625 L894.848895,696.417625 C899.191815,691.342481 903.43478,686.38249 907.716905,681.378691 C911.994918,686.378556 916.233055,691.331574 920.548439,696.373817 L912.139038,696.373817 L912.139038,696.373995 Z" id="Shape" stroke="none" fill="#0069FF" fill-rule="nonzero" opacity="0.68"></path>
</svg>