
<svg width="210px" height="174px" viewBox="750 356 210 174" version="1.1" xmlns="http://www.w3.org/2000/svg" xmlns:xlink="http://www.w3.org/1999/xlink">
    <!-- Generator: Sketch 42 (36781) - http://www.bohemiancoding.com/sketch -->
    <desc>Created with Sketch.</desc>
    <defs></defs>
    <g id="ded-icon4" stroke="none" stroke-width="1" fill="none" fill-rule="evenodd" transform="translate(750.000000, 356.000000)">
        <path d="M80,14 C35.692308,14 0,49.692308 0,94 C0,138.307692 36.102564,174 80,174 C124.307692,174 160,138.307692 160,94 C160,49.692308 123.897436,14 80,14 Z M132.102564,118.205128 C130.871795,120.666667 128.820513,121.897436 126.358974,121.897436 C125.538462,121.897436 124.717949,121.897436 123.897436,121.48718 L76.717949,100.153846 C74.666667,99.333333 73.025641,96.871795 73.025641,94.410256 L73.025641,50.102564 C73.025641,46.820513 75.897436,43.948718 79.179487,43.948718 C82.461539,43.948718 85.333333,46.820513 85.333333,50.102564 L85.333333,90.717949 L128.820513,110.410256 C132.102564,111.641026 133.333333,114.923077 132.102564,118.205128 L132.102564,118.205128 Z" id="Shape-Copy-2" fill="#E3F0FF" fill-rule="nonzero"></path>
        <path d="M90,2 C44.030769,2 7,39.030769 7,85 C7,130.969231 44.45641,168 90,168 C135.969231,168 173,130.969231 173,85 C173,39.030769 135.54359,2 90,2 Z M144.05641,110.11282 C142.779487,112.666667 140.651282,113.94359 138.097436,113.94359 C137.246154,113.94359 136.394872,113.94359 135.54359,113.517949 L86.594872,91.384615 C84.466667,90.533333 82.764103,87.979487 82.764103,85.425641 L82.764103,39.45641 C82.764103,36.051282 85.74359,33.071795 89.148718,33.071795 C92.553846,33.071795 95.533333,36.051282 95.533333,39.45641 L95.533333,81.594872 L140.651282,102.025641 C144.05641,103.302564 145.333333,106.707692 144.05641,110.11282 L144.05641,110.11282 Z" id="Shape" fill="#0069FF" fill-rule="nonzero" opacity="0.68"></path>
        <g id="矩形" transform="translate(173.000000, 0.000000)" fill-rule="nonzero" fill="#FFBF5C">
            <rect id="Rectangle" x="0" y="12.4285714" width="37" height="4.14285714" rx="2.07142857"></rect>
            <rect id="Rectangle-Copy" x="0" y="0" width="21.9259259" height="4.14285714" rx="2.07142857"></rect>
            <rect id="Rectangle-Copy-2" x="0" y="24.8571429" width="21.9259259" height="4.14285714" rx="2.07142857"></rect>
        </g>
    </g>
</svg>