
<svg width="188px" height="158px" viewBox="465 598 188 158" version="1.1" xmlns="http://www.w3.org/2000/svg" xmlns:xlink="http://www.w3.org/1999/xlink">
    <!-- Generator: Sketch 42 (36781) - http://www.bohemiancoding.com/sketch -->
    <desc>Created with Sketch.</desc>
    <defs>
        <linearGradient x1="50%" y1="0%" x2="50%" y2="100%" id="linearGradient-1">
            <stop stop-color="#FFCA73" offset="0%"></stop>
            <stop stop-color="#FFD181" offset="100%"></stop>
        </linearGradient>
    </defs>
    <g id="椭圆形" stroke="none" fill="none" transform="translate(615.000000, 598.000000)" stroke-width="4">
        <ellipse id="Oval" stroke="url(#linearGradient-1)" cx="11.4" cy="11.3333333" rx="7.6" ry="7.55555556"></ellipse>
    </g>
    <path d="M617,656.607259 C617,629.064629 591.673645,606.742076 560.428836,606.742076 C544.749109,606.742076 530.555452,612.374913 520.313929,621.46114 C513.982549,626.266124 508.837292,632.462362 505.926473,640.116175 C504.206444,644.649207 502.707876,650.73563 502.641721,655.621767 C502.547237,661.718688 505.539542,667.689633 502.904841,673.624417 C501.072498,677.775683 496.30984,681.289728 493.245882,684.600143 C493.245882,684.600143 484.670732,690.286804 501.032339,691.062 C501.49359,691.08233 503.564557,700.830939 504.080633,703.060212 C503.75569,703.5048 503.564557,703.981716 503.564557,704.748913 C503.564557,706.61775 505.92614,708.143146 508.831959,708.143146 L510.607312,708.143146 C506.769324,708.663055 504.001813,710.161123 504.001813,712.227258 C504.001813,713.656505 505.820159,715.541672 508.543344,716.673138 C508.543344,716.673138 505.186604,727.50489 510.16589,729.893967 C511.020739,730.265568 512.120545,730.379715 513.521297,730.138924 C520.587547,730.523356 533.233645,730.022278 540.266235,730.022278 C540.266235,729.893967 543.96558,749.626645 543.96558,749.626645 L607.502513,749.626645 C607.502513,749.727627 601.396092,704.21934 601.396092,704.21934 C612.574949,688.265828 616.446431,673.984686 616.656227,662.048297 C616.879188,660.26078 617,658.453099 617,656.607259 L617,656.607259 Z M583.519253,648.15592 C578.932064,648.15592 575.004426,645.444733 573.170083,641.553754 L564.591433,646.506545 C565.665077,648.751315 566.316462,651.235542 566.316462,653.890239 C566.316462,657.432113 565.241319,660.721032 563.40631,663.456881 L579.500297,672.748572 C580.535614,671.728752 581.951531,671.093198 583.51942,671.093198 C586.686027,671.093198 589.253573,673.660744 589.253573,676.827517 C589.253573,679.994624 586.686027,682.56167 583.51942,682.56167 C580.352313,682.56167 577.785101,679.994624 577.785101,676.827517 C577.785101,676.268782 577.953737,675.763039 578.102878,675.252462 L561.566135,665.70515 C558.431356,669.008233 554.026968,671.093198 549.11367,671.093198 C539.61285,671.093198 531.910879,663.391226 531.910879,653.890406 C531.910879,644.389586 539.61285,636.687614 549.11367,636.687614 C554.932641,636.687614 560.055069,639.595267 563.168352,644.017652 L572.260911,638.768247 C572.136599,638.0912 572.050948,637.400155 572.050948,636.687614 C572.050948,630.353734 577.18504,625.218976 583.51942,625.218976 C589.8533,625.218976 594.987892,630.353734 594.987892,636.687614 C594.987892,643.021494 589.853133,648.15592 583.51942,648.15592 L583.519253,648.15592 Z" id="Shape-Copy-3" stroke="none" fill="#C8E2FF" fill-rule="nonzero" opacity="0.51"></path>
    <path d="M610,653.010003 C610,622.625674 582.060608,598 547.592129,598 C530.294652,598 514.63657,604.214003 503.338382,614.237698 C496.353764,619.538434 490.677647,626.373966 487.466506,634.817458 C485.569014,639.818184 483.915831,646.532572 483.842851,651.922833 C483.738619,658.648803 487.039653,665.235797 484.133118,671.7829 C482.111724,676.362471 476.857681,680.239076 473.4776,683.891042 C473.4776,683.891042 464.017712,690.164422 482.067421,691.019599 C482.576262,691.042026 484.860901,701.796445 485.430222,704.255721 C485.071754,704.74618 484.860901,705.272301 484.860901,706.118654 C484.860901,708.180306 487.466138,709.863086 490.671765,709.863086 L492.630289,709.863086 C488.396318,710.436635 485.34327,712.089266 485.34327,714.368573 C485.34327,715.945283 487.349223,718.024951 490.353371,719.273156 C490.353371,719.273156 486.650301,731.222469 492.143323,733.858039 C493.086371,734.267979 494.299648,734.393903 495.844923,734.128269 C503.640231,734.552364 517.591084,733.999588 525.349259,733.999588 C525.349259,733.858039 529.430283,755.626627 529.430283,755.626627 L599.522613,755.626627 C599.522613,755.738028 592.786165,705.534442 592.786165,705.534442 C605.118396,687.934933 609.389317,672.18034 609.620759,659.012418 C609.866723,657.040475 610,655.046288 610,653.010003 L610,653.010003 Z M573.064891,643.686701 C568.00442,643.686701 563.671549,640.695788 561.647949,636.403359 L552.1842,641.867152 C553.368617,644.343525 554.087208,647.084062 554.087208,650.012656 C554.087208,653.919962 552.901137,657.548213 550.876802,660.566333 L568.63128,670.81669 C569.773416,669.69165 571.335419,668.990523 573.065074,668.990523 C576.558395,668.990523 579.390846,671.822975 579.390846,675.316479 C579.390846,678.81035 576.558395,681.64225 573.065074,681.64225 C569.571203,681.64225 566.739119,678.81035 566.739119,675.316479 C566.739119,674.700097 566.925155,674.142173 567.089683,673.578918 L548.846768,663.046566 C545.388559,666.690443 540.529751,668.990523 535.109525,668.990523 C524.628462,668.990523 516.131842,660.493904 516.131842,650.01284 C516.131842,639.531777 524.628462,631.035157 535.109525,631.035157 C541.528866,631.035157 547.179798,634.242806 550.614293,639.121468 L560.644973,633.330458 C560.507836,632.583557 560.413347,631.821214 560.413347,631.035157 C560.413347,624.047782 566.077147,618.383246 573.065074,618.383246 C580.05245,618.383246 585.716802,624.047782 585.716802,631.035157 C585.716802,638.022533 580.052266,643.686701 573.065074,643.686701 L573.064891,643.686701 Z" id="Shape" stroke="none" fill="#0057FF" fill-rule="nonzero" opacity="0.68"></path>
    <g id="矩形" stroke="none" fill="none" transform="translate(465.000000, 743.000000)" fill-rule="evenodd">
        <rect id="Rectangle" fill="#FFBF5C" opacity="0.66089221" x="0" y="5" width="13" height="3"></rect>
        <rect id="Rectangle-2" fill="#FFBF5C" opacity="0.594259511" x="5" y="0" width="3" height="13"></rect>
    </g>
</svg>