
<svg width="204px" height="189px" viewBox="411 349 204 189" version="1.1" xmlns="http://www.w3.org/2000/svg" xmlns:xlink="http://www.w3.org/1999/xlink">
    <!-- Generator: Sketch 42 (36781) - http://www.bohemiancoding.com/sketch -->
    <desc>Created with Sketch.</desc>
    <defs>
        <linearGradient x1="50%" y1="0%" x2="50%" y2="100%" id="linearGradient-1">
            <stop stop-color="#91B8FF" offset="0%"></stop>
            <stop stop-color="#A1D3FF" offset="100%"></stop>
        </linearGradient>
        <linearGradient x1="50%" y1="0%" x2="50%" y2="100%" id="linearGradient-2">
            <stop stop-color="#FFCA73" offset="0%"></stop>
            <stop stop-color="#FFD181" offset="100%"></stop>
        </linearGradient>
    </defs>
    <g id="ded-icon1" stroke="none" stroke-width="1" fill="none" fill-rule="evenodd" transform="translate(412.000000, 351.000000)">
        <g id="网络-(1)" transform="translate(16.000000, 5.000000)" fill-rule="nonzero">
            <path d="M86.3228076,181.620933 C133.997578,181.620933 172.645615,143.007779 172.645615,95.3760402 C172.645615,47.7443012 133.997578,9.13114754 86.3228076,9.13114754 C38.6480374,9.13114754 5.63865118e-15,47.7443012 0,95.3760402 C5.63865118e-15,143.007779 38.6480374,181.620933 86.3228076,181.620933 Z" id="Shape-Copy" fill="#C8E2FF" opacity="0.512794384"></path>
            <path d="M97.5432432,178.752026 C146.948846,178.752026 187,138.737022 187,89.3760131 C187,40.0150041 146.948846,3.24338232e-15 97.5432432,0 C48.1376407,-3.24338232e-15 8.08648649,40.0150041 8.08648649,89.3760131 C8.08648649,138.737022 48.1376407,178.752026 97.5432432,178.752026 Z" id="Shape" fill="#0069FF" opacity="0.677819293"></path>
        </g>
        <path d="M146.855711,82.215941 C145.828924,81.912572 144.743796,81.749219 143.623665,81.749219 C143.086935,81.749219 142.561873,81.784224 142.04848,81.854232 C140.951684,82.005916 139.913229,82.320953 138.944782,82.752671 C130.555464,74.281676 119.074117,68.879376 106.344289,68.365982 C105.92424,66.802465 105.165818,65.367297 104.162366,64.142153 C103.123911,62.893673 101.828759,61.866886 100.358587,61.143468 C98.85341,60.408381 97.161545,60 95.376335,60 C89.087264,60 84,65.087264 84,71.376335 C84,71.843057 84.023336,72.29811 84.081676,72.741495 C84.280033,74.398357 84.828431,75.950205 85.668529,77.303698 C86.356943,78.447165 87.255382,79.450616 88.282169,80.267379 C86.601972,85.19129 85.691865,90.47691 85.691865,95.972555 C85.691865,102.48332 86.963681,108.690715 89.28562,114.36138 C88.060477,115.574856 87.127034,117.068365 86.5553,118.725226 C86.146919,119.880362 85.936894,121.128841 85.936894,122.423993 C85.936894,122.809039 85.96023,123.194084 85.995234,123.579129 C86.566968,129.308135 91.420871,133.800329 97.313229,133.800329 C99.121775,133.800329 100.825308,133.380279 102.330485,132.633525 C103.823993,131.910107 105.130813,130.859984 106.157601,129.5765 C107.406081,128.047987 108.246179,126.181101 108.561216,124.139195 C121.209367,121.490551 132.048973,113.917995 138.991454,103.521775 C140.403287,104.151849 141.978472,104.50189 143.623665,104.50189 C144.557108,104.50189 145.467214,104.38521 146.330649,104.175185 C147.952506,103.778472 149.446015,103.043385 150.706163,102.028266 C153.319803,99.939688 155,96.730978 155,93.125555 C155,87.968283 151.557929,83.604437 146.855711,82.215941 Z M108.246179,119.285292 C106.892687,114.524733 102.517173,111.047658 97.313229,111.047658 C95.948069,111.047658 94.629581,111.292687 93.416105,111.736072 C91.537551,106.847165 90.499096,101.526541 90.499096,95.972555 C90.499096,91.247001 91.24585,86.684799 92.634347,82.414297 C93.509449,82.63599 94.431224,82.752671 95.376335,82.752671 C101.035333,82.752671 105.737551,78.610518 106.612654,73.196549 C117.662284,73.756615 127.626787,78.400493 135.03599,85.658012 C133.297453,87.653246 132.247329,90.266886 132.247329,93.125555 C132.247329,96.019228 133.332457,98.667872 135.105998,100.674774 C128.980279,109.939195 119.424158,116.74166 108.246179,119.285292 Z" id="Shape" fill="#FFFFFF" fill-rule="nonzero" opacity="0.842674366"></path>
        <circle id="Oval-Copy" stroke="url(#linearGradient-1)" stroke-width="3" cx="187.5" cy="7.5" r="7.5"></circle>
        <g id="椭圆形" transform="translate(0.000000, 145.000000)">
            <ellipse id="Oval" stroke="url(#linearGradient-2)" stroke-width="3" cx="6.1" cy="6" rx="5.4" ry="5.33333333"></ellipse>
            <rect id="Rectangle" fill="#6198F8" opacity="0.753226902" x="8.8" y="24.6666667" width="16.2" height="2.66666667"></rect>
            <rect id="Rectangle-2" fill="#6198F8" opacity="0.724467844" x="15.55" y="18" width="2.7" height="16"></rect>
        </g>
    </g>
</svg>