<?xml version="1.0" encoding="utf-8"?>
<!-- Generator: Adobe Illustrator 19.0.0, SVG Export Plug-In . SVG Version: 6.00 Build 0)  -->
<svg version="1.1" id="图层_1" xmlns="http://www.w3.org/2000/svg" xmlns:xlink="http://www.w3.org/1999/xlink" x="0px" y="0px"
	 viewBox="-299 201 200 200" style="enable-background:new -299 201 200 200;" xml:space="preserve">
<style type="text/css">
	.st0{fill:#E8F4FE;}
	.st1{fill:#008EED;}
</style>
<polygon class="st0" points="-155,296 -126,301 -118,310 -124,341 -143,358 -154,357 "/>
<path class="st1" d="M-146.5,291.8V283c0-3-2.7-4.6-5.6-4.6h-129.2c-3,0-5.1,1.6-5.1,4.6v76c0,19.1,3.8,29.5,25.8,29.5h86.2
	c17.5,0,25.6-6.1,27.5-21.1c20.5-2.9,35.5-32.1,35.5-51.4C-111.5,293.6-130.7,292-146.5,291.8z M-157.3,359
	c0,15.3-2.8,18.8-17.2,18.8h-86.2c-13.8,0-15.1-2.6-15.1-18.8v-69.9h118.4L-157.3,359L-157.3,359z M-146.5,356.3v-53.7
	c18.1,0.3,24.3,2.6,24.3,13.3C-122.3,330-133.2,352.6-146.5,356.3z M-266.1,328.7c0.7,0,1.4-0.3,1.9-0.8c0.5-0.5,0.8-1.2,0.8-1.9
	c0-0.7-0.3-1.4-0.8-1.9c-1-1-2.8-1-3.8,0c-0.5,0.5-0.8,1.2-0.8,1.9c0,0.7,0.3,1.4,0.8,1.9C-267.5,328.4-266.8,328.7-266.1,328.7z
	 M-267.7,339.4v9.2c0,15.3,4.5,19.9,19.8,19.9c1.5,0,2.7-1.2,2.7-2.7c0-1.5-1.2-2.7-2.7-2.7c-12.3,0-14.4-2.2-14.4-14.6v-9.2
	c0-1.5-1.2-2.7-2.7-2.7C-266.5,336.7-267.7,337.9-267.7,339.4z M-234.8,246.5c2,1.8,2.2,3.1,2.2,4c-0.1,2.5-2.6,6.1-6.8,9.5
	c-2.3,1.9-2.6,5.3-0.7,7.6c1.1,1.3,2.6,2,4.2,2c1.2,0,2.4-0.4,3.4-1.2c6.9-5.7,10.6-11.7,10.7-17.6c0.1-3.1-0.9-7.8-5.8-12.2
	c-8.1-7.3-9.1-10.5-4.8-16.5c1.7-2.4,1.2-5.8-1.2-7.5s-5.8-1.2-7.5,1.2C-252.1,230.9-240.4,241.4-234.8,246.5z M-202.5,246.5
	c2,1.8,2.2,3.1,2.2,4c-0.1,2.5-2.6,6.1-6.8,9.5c-2.3,1.9-2.6,5.3-0.7,7.6c1.1,1.3,2.6,2,4.2,2c1.2,0,2.4-0.4,3.4-1.2
	c6.9-5.7,10.6-11.7,10.7-17.6c0.1-3.1-0.9-7.8-5.8-12.2c-8.1-7.3-9.1-10.5-4.8-16.5c1.7-2.4,1.2-5.8-1.2-7.5
	c-2.4-1.7-5.8-1.2-7.5,1.2C-219.8,230.9-208.1,241.4-202.5,246.5z"/>
</svg>
