<?xml version="1.0" encoding="utf-8"?>
<!-- Generator: Adobe Illustrator 19.0.0, SVG Export Plug-In . SVG Version: 6.00 Build 0)  -->
<svg version="1.1" id="图层_1" xmlns="http://www.w3.org/2000/svg" xmlns:xlink="http://www.w3.org/1999/xlink" x="0px" y="0px"
	 viewBox="-285 201 228.5 200" style="enable-background:new -285 201 228.5 200;" xml:space="preserve">
<style type="text/css">
	.st0{fill:#E8F4FE;}
	.st1{fill:#008EED;}
</style>
<circle class="st0" cx="-129.1" cy="259.7" r="14.1"/>
<path class="st1" d="M-82.9,212.6h-190.5c-3.8,0-6.9,3-6.9,6.8c0,0,0,0,0,0.1v124.3c0,3.8,3,6.8,6.8,6.9h0.1h29c2.1,0,4.1-1,5.4-2.6
	l38.8-47.9l17.7,14.5c2.8,2.4,6.9,2.1,9.6-0.7l34.3-37c10.5,6.3,24.1,2.9,30.4-7.6c2.1-3.5,3.1-7.4,3.1-11.4
	c-0.4-12.3-10.6-21.8-22.9-21.4c-11.6,0.4-21.1,9.8-21.4,21.4c0,2.9,0.7,5.8,1.6,8.4l-31.1,33.4l-18-14.9c-1.4-1.2-3.3-1.7-5.1-1.5
	s-3.5,1.1-4.7,2.6l-40.9,50.6h-18.9V226.4h176.6v110.5h-95.4c-3.8,0-6.9,3-6.9,6.8c0,0,0,0,0,0.1v33.9h-40.6c-3.8,0-6.9,3-6.9,6.8
	c0,0,0,0,0,0.1c0,3.8,3,6.8,6.8,6.9h0.1h93.2c3.8,0,6.9-3,6.9-6.8c0,0,0,0,0-0.1c0-3.8-3-6.8-6.8-6.9h-0.1h-38.5v-26.9h95.4
	c3.8,0,6.9-3,6.9-6.8c0,0,0,0,0-0.1V219.5C-76,215.7-79,212.6-82.9,212.6 M-127.2,249.9c4.6,0,8.3,3.7,8.3,8.3
	c0,4.6-3.7,8.3-8.3,8.3c0,0,0,0-0.1,0c-4.6,0-8.3-3.7-8.3-8.3C-135.5,253.6-131.8,249.9-127.2,249.9"/>
</svg>
