<?xml version="1.0" encoding="utf-8"?>
<!-- Generator: Adobe Illustrator 19.0.0, SVG Export Plug-In . SVG Version: 6.00 Build 0)  -->
<svg version="1.1" id="图层_1" xmlns="http://www.w3.org/2000/svg" xmlns:xlink="http://www.w3.org/1999/xlink" x="0px" y="0px"
	 viewBox="-299 201 200 200" style="enable-background:new -299 201 200 200;" xml:space="preserve">
<style type="text/css">
	.st0{fill:#E8F4FE;}
	.st1{fill:#008EED;}
</style>
<path class="st0" d="M-213.7,269.8c0,11.7,9.5,21.2,21.2,21.2c11.7,0,21.2-9.5,21.2-21.2s-9.5-21.2-21.2-21.2
	C-204.2,248.6-213.7,258.1-213.7,269.8z"/>
<path class="st1" d="M-192.4,201.5c-40.1,0-73.1,35.8-73.1,80.1v1.4l-11.8,25.5c-0.5,0.9-0.5,2.4,0,3.8c0.5,0.9,1.4,2.4,2.4,2.8
	l18.9,9v33.5c0,2.8,1.9,4.7,4.7,4.7h23.6v33c0,2.8,1.9,4.7,4.7,4.7h66c2.8,0,4.7-1.9,4.7-4.7V349c20.7-15.1,33-40.1,33-66.9
	C-119.4,237.3-152.4,201.5-192.4,201.5z M-190.1,210.9c31.1,1.4,56.6,27.3,60.8,61.3h-18.4v-2.4c0-9.4-2.8-18.9-8.5-26.4
	c-1.9-2.8-4.2-5.2-6.6-7.1c-7.5-6.6-17-10.4-27.3-10.8V210.9z M-169.4,243.4c1.9,1.9,3.8,3.8,5.2,5.7c4.7,6.1,7.1,13.2,7.1,20.7
	c0,19.3-16,35.3-35.3,35.3c-9.4,0-17.9-3.8-24.5-9.9l8.5-8.5c4.2,3.8,9.9,6.6,16,6.6c13.2,0,23.6-10.4,23.6-23.6
	s-10.4-23.6-23.6-23.6c-4.2,0-8.5,1.4-12.3,3.3l-8.5-8.5c5.7-4.2,12.7-6.6,20.7-6.6C-184,234.5-175.5,237.8-169.4,243.4
	L-169.4,243.4z M-177.8,281.1l-6.6-6.6c0.9-1.4,1.4-2.8,1.4-4.7c0-5.2-4.2-9.4-9.4-9.4c-5.2,0-9.4,4.2-9.4,9.4
	c0,5.2,4.2,9.4,9.4,9.4c1.9,0,3.3-0.5,4.7-1.4l6.6,6.6c-3.3,2.4-7.1,4.2-11.3,4.2c-10.4,0-18.9-8.5-18.9-18.9
	c0-10.4,8.5-18.9,18.9-18.9c10.4,0,18.9,8.5,18.9,18.9C-173.6,274.1-175,278.3-177.8,281.1L-177.8,281.1z M-192.4,274.6
	c-2.8,0-4.7-1.9-4.7-4.7s1.9-4.7,4.7-4.7s4.7,1.9,4.7,4.7S-189.6,274.6-192.4,274.6z M-216,269.8c0,5.2,1.9,9.9,4.2,13.7l-8.5,8.5
	c-4.7-6.1-7.5-13.7-7.5-22.2c0-9.9,4.2-19.3,11.3-25.5l8.5,8.5C-213.2,256.6-216,262.8-216,269.8z M-158,341l-1.9,1.4
	c-1.4,0.9-1.9,2.4-1.9,3.8V390h-56.6v-33c0-2.8-1.9-4.7-4.7-4.7h-23.6v-31.6c0-1.9-0.9-3.3-2.8-4.2l-17.4-8l10.4-22.2
	c0.5-0.5,0.5-1.4,0.5-1.9v-2.4c0-38.2,27.3-69.3,61.3-70.7v14.1c-23.6,1.4-42.4,20.7-42.4,44.8c0,24.5,20.3,44.8,44.8,44.8
	c22.2,0,40.5-16.5,44.3-37.7h19.3v4.7C-128.8,305.7-139.7,327.8-158,341L-158,341z"/>
</svg>
