<?xml version="1.0" encoding="utf-8"?>
<!-- Generator: Adobe Illustrator 19.0.0, SVG Export Plug-In . SVG Version: 6.00 Build 0)  -->
<svg version="1.1" id="图层_1" xmlns="http://www.w3.org/2000/svg" xmlns:xlink="http://www.w3.org/1999/xlink" x="0px" y="0px"
	 viewBox="-299 201 200 200" style="enable-background:new -299 201 200 200;" xml:space="preserve">
<style type="text/css">
	.st0{fill:#E8F4FE;}
	.st1{fill:#008EED;}
</style>
<rect x="-291.7" y="295.1" class="st0" width="181.9" height="86.6"/>
<path class="st1" d="M-114.4,300.5v78.3H-287v-78.3H-114.4 M-106,292h-189.5v95.2H-106V292z M-245,281.4V292h-10.6v-10.6H-245
	 M-246,215.9h-8.4V273h-9.5v27.5h27.5V273h-9.5v-57.1H-246z M-146,281.4V292h-10.6v-10.6H-146 M-147,215.9h-8.4V273h-9.5v27.5h27.5
	V273h-9.5L-147,215.9L-147,215.9z M-255.8,320.6h-8.4v38.1h8.4L-255.8,320.6L-255.8,320.6z M-234.4,320.6h-8.4v38.1h8.4V320.6z
	 M-213,320.6h-8.4v38.1h8.4V320.6z M-191.7,320.6h-8.4v38.1h8.4V320.6z M-170.3,320.6h-8.4v38.1h8.4V320.6z M-137.3,320.6h-8.4v8.4
	h8.4V320.6z M-137.3,335.3h-8.4v8.4h8.4V335.3z M-137.3,350.2h-8.4v8.4h8.4V350.2z"/>
</svg>
