<?xml version="1.0" encoding="utf-8"?>
<!-- Generator: Adobe Illustrator 19.0.0, SVG Export Plug-In . SVG Version: 6.00 Build 0)  -->
<svg version="1.1" id="图层_1" xmlns="http://www.w3.org/2000/svg" xmlns:xlink="http://www.w3.org/1999/xlink" x="0px" y="0px"
	 viewBox="-299 201 200 200" style="enable-background:new -299 201 200 200;" xml:space="preserve">
<style type="text/css">
	.st0{fill:#E8F4FE;}
	.st1{fill:#008EED;}
</style>
<polygon class="st0" points="-130,374 -132,364 -143,362 -149.2,346.7 -141,341 -160,323 -170.9,325 -177.9,322.7 -187,310 
	-210,311 -213,319 -211,325 -227,329 -240,319.8 -255,341 -247,351 -247.6,365.5 -269.3,368.4 -266,374 -232,380 -228,369 
	-214.2,361.4 -198,348 -183,352 -170.9,373.7 "/>
<path class="st1" d="M-130.4,250.6c2.9,0,4.7-2.3,4.7-4.7c0-2.9-2.3-4.7-4.7-4.7c-2.9,0-4.7,2.3-4.7,4.7
	C-135.1,248.9-132.8,250.6-130.4,250.6z M-144.5,250.6c2.9,0,4.7-2.3,4.7-4.7c0-2.9-2.3-4.7-4.7-4.7c-2.9,0-4.7,2.3-4.7,4.7
	C-149.8,248.9-147.4,250.6-144.5,250.6z M-159.2,250.6c2.9,0,4.7-2.3,4.7-4.7c0-2.9-2.3-4.7-4.7-4.7s-4.7,2.3-4.7,4.7
	C-163.8,248.9-162.1,250.6-159.2,250.6z M-113.5,224.2h-171.1c-1.8,0-2.3,1.2-2.3,2.3v154.7c0,1.2,1.2,2.3,2.3,2.3h171.1
	c1.2,0,2.3-1.2,2.3-2.3V226.6C-111.1,225.4-111.7,224.2-113.5,224.2z M-120.5,373.7h-157V265.3h157V373.7z M-120.5,258.2h-157v-24
	h157V258.2z"/>
<path class="st1" d="M-176.7,332.1c-2.3-1.2-5.3-2.3-7-3.5c-4.1-1.8-2.9-3.5-2.9-7.6v-7.6h-18.2v6.4c0,3.5,1.2,6.4-1.8,7.6
	c-2.3,0.6-4.7,1.2-6.4,2.3h-0.6c-2.3,1.2-4.7,2.3-6.4,3.5c-2.9,1.8-7,1.2-9.4-1.2l-4.7-4.1l-13.5,14.1l4.1,4.7
	c2.3,2.3,2.3,5.3,1.2,8.8c-1.2,2.9-2.3,4.7-3.5,7l-1.8,2.9c-2.3,4.7-11.1,0-11.7,4.1c0,1.8,0.6,3.5,1.2,4.7h-11.1v-5.9
	c0-4.1,3.5-7.6,7.6-7.6l0,0h8.2c0.6-1.2,0.6-2.3,1.2-3.5v-0.6c0.6-1.2,1.2-1.8,1.2-2.9l-5.9-5.9c-2.9-2.9-2.9-7.6,0-10.5l0,0l0,0
	l17-17.6c2.9-2.9,7.6-2.9,10.5,0l5.9,5.9c1.2-0.6,2.3-1.2,3.5-1.8l0,0c1.2-0.6,2.3-0.6,2.9-1.2v-8.2c0-4.1,3.5-7.6,7.6-7.6l0,0h24
	c4.1,0,7.6,3.5,7.6,7.6l0,0v8.2c1.2,0.6,2.3,1.2,3.5,1.2h0.6c1.2,0.6,1.8,1.2,2.9,1.2l5.9-5.9c2.9-2.9,5.9-2.3,8.8,0.6l0.6,0.6
	l18.8,16.4c2.9,2.9,2.9,7,0,10l-5.9,5.3c0.6,1.2,1.2,3.5,1.8,4.7v0.6c0.6,1.2,0.6,2.3,1.2,2.9h8.2c4.1,0,7.6,3.5,7.6,7.6l0,0v5.9
	h-11.7c1.2-1.8,1.2-2.3,0.6-4.1c-1.8-5.9-6.4-0.6-10-3.5l-1.2-4.1c-1.2-2.3-1.8-4.1-2.9-5.9c-1.8-2.9-2.3-6.4,0-9.4l4.7-4.7
	l-15.2-13.5c0,0-4.7,4.7-6.4,6.4c-1.8,1.2-2.3,1.2-4.7,0 M-170.9,373.7L-170.9,373.7c-1.2-4.7-3.5-8.8-7-12.3
	c-4.7-4.7-11.1-7.6-18.2-7.6s-13.5,2.9-18.2,7.6c-3.5,3.5-5.9,7.6-7,12.3h-9.4c1.2-7,4.7-14.1,10-18.8l0,0
	c6.4-6.4,15.2-10.5,24.6-10.5s18.2,4.1,24.6,10.5c5.3,5.3,8.8,11.7,10,18.8H-170.9z"/>
</svg>
