<?xml version="1.0" encoding="utf-8"?>
<!-- Generator: Adobe Illustrator 19.0.0, SVG Export Plug-In . SVG Version: 6.00 Build 0)  -->
<svg version="1.1" id="图层_1" xmlns="http://www.w3.org/2000/svg" xmlns:xlink="http://www.w3.org/1999/xlink" x="0px" y="0px"
	 viewBox="-299 201 200 200" style="enable-background:new -299 201 200 200;" xml:space="preserve">
<style type="text/css">
	.st0{fill:#E8F4FE;}
	.st1{fill:#008EED;stroke:#008EED;stroke-width:2;stroke-miterlimit:10;}
</style>
<circle class="st0" cx="-199" cy="258" r="17"/>
<path class="st1" d="M-199,336.7c-15.3,0-21.5,9.4-21.5,21.4c0,12.1,21.5,42.8,21.5,42.8s21.5-30.1,21.5-42.8
	C-177.5,345.4-184.8,336.7-199,336.7z M-199,386.7c0,0-14.3-18.8-14.3-28.6c0-9.8,7.5-14.3,14.3-14.3c6.8,0,14.3,5.9,14.3,14.3
	C-184.7,366.6-199,386.7-199,386.7z M-199,236.7c-11.9,0-21.5,9.6-21.5,21.4c0,11.8,9.6,21.4,21.5,21.4c11.8,0,21.5-9.6,21.5-21.4
	C-177.5,246.3-187.1,236.7-199,236.7z M-199,272.4c-7.9,0-14.3-6.4-14.3-14.3c0-7.9,6.4-14.3,14.3-14.3c7.9,0,14.3,6.4,14.3,14.3
	C-184.7,266-191.1,272.4-199,272.4z M-141.8,308.2c-14,0-14.3-7.2-14.3-7.2s0-37.9,0-57.1c0-29.5-42.9-42.9-42.9-42.9
	s-42.9,13.8-42.9,42.9c0,20.4,0,57.1,0,57.1s-1.2,7.2-14.3,7.2c-8.2,0-14.3,0.3-14.3,14.3c0,5,0,42.8,0,42.8s21.8-35.7,35.8-35.7
	h71.5c13.1,0,35.8,35.7,35.8,35.7s0-27.7,0-42.8C-127.5,307.3-133.9,308.2-141.8,308.2z M-134.6,322.4v21.4c0,0-14.7-21.4-28.6-21.4
	h-71.5c-16.2,0-28.6,21.4-28.6,21.4s0-12.5,0-21.4c0-8.9,7.2-7.2,7.2-7.2h7.2c12.1,0,14.3-14.3,14.3-14.3s0-34,0-57.1
	c0-23.2,35.8-35.7,35.8-35.7s35.8,14.4,35.8,35.7V301c0,7.2,4,14.3,14.3,14.3h7.2C-134,315.3-134.6,322.4-134.6,322.4z"/>
</svg>
